<svg xmlns="http://www.w3.org/2000/svg" xmlns:xlink="http://www.w3.org/1999/xlink" width="108" height="108" viewBox="0 0 108 108">
  <defs>
    <filter id="Fondo" x="0" y="0" width="108" height="108" filterUnits="userSpaceOnUse">
      <feOffset dy="3" input="SourceAlpha"/>
      <feGaussianBlur stdDeviation="3" result="blur"/>
      <feFlood flood-opacity="0.161"/>
      <feComposite operator="in" in2="blur"/>
      <feComposite in="SourceGraphic"/>
    </filter>
  </defs>
  <g id="Group_1143035" data-name="Group 1143035" transform="translate(-1166.627 -798.42)">
    <g transform="matrix(1, 0, 0, 1, 1166.63, 798.42)" filter="url(#Fondo)">
      <g id="Fondo-2" data-name="Fondo" transform="translate(9 6)" fill="#cbddf7" stroke="#2f4f7e" stroke-width="3">
        <circle cx="45" cy="45" r="45" stroke="none"/>
        <circle cx="45" cy="45" r="43.5" fill="none"/>
      </g>
    </g>
    <g id="couple_5438927" transform="translate(1186.661 804.42)">
      <g id="Group_1143033" data-name="Group 1143033" transform="translate(1.374 1.374)">
        <g id="Group_1143021" data-name="Group 1143021" transform="translate(52.195 34.339)">
          <path id="Path_903533" data-name="Path 903533" d="M52.736,26V47a39.07,39.07,0,0,1-3.42,15.988A23.52,23.52,0,0,0,39,48.76V41.109a12.045,12.045,0,0,0,8.228-10.989h1.387A4.127,4.127,0,0,0,52.736,26Z" transform="translate(-39 -26)" fill="#fcd770"/>
        </g>
        <g id="Group_1143022" data-name="Group 1143022" transform="translate(36.18 9.615)">
          <path id="Path_903534" data-name="Path 903534" d="M57.091,27.23v5.494A4.115,4.115,0,0,0,52.971,28.6H51.6V25.856a1.378,1.378,0,0,0-1.374-1.374H37.051a1.386,1.386,0,0,1-.961-.4,8,8,0,0,0-5.659-2.349h-.81a4.086,4.086,0,0,0-2.28-3.681l.989-1.978A12.211,12.211,0,0,0,29.62,10.61c0-.247-.014-.494-.027-.742a19.229,19.229,0,0,1,27.5,17.362Z" transform="translate(-27.34 -8)" fill="#fcd770"/>
        </g>
        <g id="Group_1143023" data-name="Group 1143023">
          <path id="Path_903535" data-name="Path 903535" d="M32.592,16.109H28a10.057,10.057,0,0,1-8.049-4.025,3.683,3.683,0,0,0-6.236.563l-.357.714a7.7,7.7,0,0,0-6.4,3.434l-.467.687V20.23H5.121a4.131,4.131,0,0,0-1.841.44l-.989-1.978A12.209,12.209,0,0,1,13.225,1h14.01a12.2,12.2,0,0,1,12.2,11.483c.014.247.027.494.027.742a12.211,12.211,0,0,1-1.291,5.467l-.989,1.978a4.131,4.131,0,0,0-1.841-.44H33.966V17.483A1.378,1.378,0,0,0,32.592,16.109Z" transform="translate(-1 -1)" fill="#656d78"/>
        </g>
        <g id="Group_1143024" data-name="Group 1143024" transform="translate(2.747 42.58)">
          <path id="Path_903536" data-name="Path 903536" d="M22.23,58.1V71.833H3V55.392A23.427,23.427,0,0,1,24.977,32a12.057,12.057,0,0,1,8.241,11.428V58.1Z" transform="translate(-3 -32)" fill="#75b1f2"/>
        </g>
        <g id="Group_1143025" data-name="Group 1143025" transform="translate(32.966 74.172)">
          <path id="Path_903537" data-name="Path 903537" d="M25,55H35.988v8.241H25Z" transform="translate(-25 -55)" fill="#f0d0b4"/>
        </g>
        <g id="Group_1143026" data-name="Group 1143026" transform="translate(32.966 53.569)">
          <path id="Path_903538" data-name="Path 903538" d="M35.988,60.6H25V51.428A12.057,12.057,0,0,1,33.241,40,23.257,23.257,0,0,1,44.23,43.53,23.52,23.52,0,0,1,54.545,57.76a23.766,23.766,0,0,1,.673,5.632v5.453H35.989Z" transform="translate(-25 -40)" fill="#ff826e"/>
        </g>
        <g id="Group_1143027" data-name="Group 1143027" transform="translate(21.977 68.678)">
          <path id="Path_903539" data-name="Path 903539" d="M27.988,56.494v8.241H17V51H27.988Z" transform="translate(-17 -51)" fill="#f0d0b4"/>
        </g>
        <g id="Group_1143028" data-name="Group 1143028" transform="translate(60.423 30.218)">
          <path id="Path_903540" data-name="Path 903540" d="M46.377,23a4.121,4.121,0,0,1,0,8.241H44.99C45,31.09,45,30.953,45,30.8V23Z" transform="translate(-44.99 -23)" fill="#f0d0b4"/>
        </g>
        <g id="Group_1143029" data-name="Group 1143029" transform="translate(32.966 23.351)">
          <path id="Path_903541" data-name="Path 903541" d="M25,32.67V22.121h1.374A4.127,4.127,0,0,0,30.494,18h.81a8,8,0,0,1,5.659,2.349,1.386,1.386,0,0,0,.961.4H51.1a1.378,1.378,0,0,1,1.374,1.374V32.67c0,.151,0,.288-.014.44A12.045,12.045,0,0,1,44.23,44.1v7.651a23.257,23.257,0,0,0-10.989-3.53V44.1A12.054,12.054,0,0,1,25,32.67Z" transform="translate(-25 -18)" fill="#f0d0b4"/>
        </g>
        <g id="Group_1143030" data-name="Group 1143030" transform="translate(32.952 19.23)">
          <path id="Path_903542" data-name="Path 903542" d="M25,22.8V15h1.374a4.131,4.131,0,0,1,1.841.44,4.119,4.119,0,0,1-1.841,7.8H24.99C25,23.09,25,22.953,25,22.8Z" transform="translate(-24.99 -15)" fill="#f0d0b4"/>
        </g>
        <g id="Group_1143031" data-name="Group 1143031" transform="translate(5.494 9.615)">
          <path id="Path_903543" data-name="Path 903543" d="M32.471,17.615v7.8c0,.151,0,.288-.014.44A12.045,12.045,0,0,1,24.23,36.845v4.121A23.257,23.257,0,0,0,13.241,44.5V36.845A12.045,12.045,0,0,1,5.014,25.856C5,25.705,5,25.568,5,25.417V14.868l.467-.687a7.7,7.7,0,0,1,6.4-3.434l.357-.714a3.683,3.683,0,0,1,6.236-.563,9.984,9.984,0,0,0,3.558,2.967,10.05,10.05,0,0,0,4.492,1.058H31.1a1.378,1.378,0,0,1,1.374,1.374Z" transform="translate(-5 -8)" fill="#f0d0b4"/>
        </g>
        <g id="Group_1143032" data-name="Group 1143032" transform="translate(0 19.23)">
          <path id="Path_903544" data-name="Path 903544" d="M6.494,15v7.8c0,.151,0,.288.014.44H5.121a4.121,4.121,0,0,1,0-8.241Z" transform="translate(-1 -15)" fill="#f0d0b4"/>
        </g>
      </g>
      <g id="Group_1143034" data-name="Group 1143034" transform="translate(0)">
        <path id="Path_903549" data-name="Path 903549" d="M25.01,11.7h1.916V8.954H25.01a7.861,7.861,0,0,1-6.556-3.509L16.168,6.968A10.6,10.6,0,0,0,25.01,11.7Z" transform="translate(6.04 2.034)"/>
        <path id="Path_903554" data-name="Path 903554" d="M48.075,9.615a20.447,20.447,0,0,0-7.137,1.29A13.62,13.62,0,0,0,27.61,0H13.6A13.6,13.6,0,0,0,1.435,19.678L1.9,20.6a5.471,5.471,0,0,0,3.6,9.615H5.63a13.4,13.4,0,0,0,8.105,10.565v6A24.814,24.814,0,0,0,2.747,67.347V85.161H65.931V78.336a24.663,24.663,0,0,0-.633-5.464,40.128,40.128,0,0,0,3.38-16.154v-26.5A20.627,20.627,0,0,0,48.075,9.615Zm17.856,20.6v.764a5.438,5.438,0,0,0-2.747-.764V28.845A2.75,2.75,0,0,0,60.437,26.1h-2.92a5.771,5.771,0,0,0-3.042-3.831l-.29-.144L52.955,24.58l.29.144A3.034,3.034,0,0,1,54.594,26.1H52.022a5.771,5.771,0,0,0-3.042-3.831l-.29-.144L47.461,24.58l.29.144A3.034,3.034,0,0,1,49.1,26.1H47.27a9.309,9.309,0,0,0-6.252-2.729A5.472,5.472,0,0,0,39.309,20.6l.463-.926A13.654,13.654,0,0,0,41.2,13.763a17.67,17.67,0,0,1,6.877-1.4A17.877,17.877,0,0,1,65.931,30.218Zm-2.747,2.747a2.747,2.747,0,0,1,0,5.494ZM52.2,49.831v6.325a24.622,24.622,0,0,0-8.241-2.442V49.831l-.94-.313a10.666,10.666,0,0,1-7.3-10.13v-9.17A5.487,5.487,0,0,0,41,26.133a6.575,6.575,0,0,1,4.327,1.907,2.768,2.768,0,0,0,1.942.8H60.437V39.388a10.668,10.668,0,0,1-7.3,10.131ZM32.966,71.425V82.414H24.724V71.425Zm2.747,5.494h8.241v5.494H35.713Zm0-54.943a2.747,2.747,0,0,1,0,5.494Zm5.494,29.8v2.218a13.357,13.357,0,0,0-5.494,4.3v-2.9A13.41,13.41,0,0,0,27.471,43V40.784a13.357,13.357,0,0,0,5.494-4.3v2.9a13.407,13.407,0,0,0,8.241,12.385ZM3.893,18.45a10.85,10.85,0,0,1,9.7-15.7H27.609a10.849,10.849,0,0,1,9.706,15.7l-.453.905a5.549,5.549,0,0,0-1.148-.124V17.856a2.75,2.75,0,0,0-2.747-2.747h-4.59a8.719,8.719,0,0,1-6.942-3.47,5.057,5.057,0,0,0-8.567.764,9.052,9.052,0,0,0-4.623,1.808,3.3,3.3,0,0,1,.97-2.253L7.27,10.017A6.022,6.022,0,0,0,5.494,14.3V19.23a5.457,5.457,0,0,0-1.148.125ZM2.747,24.724a2.75,2.75,0,0,1,2.747-2.747v5.494a2.75,2.75,0,0,1-2.747-2.747Zm12.8,13.807A10.669,10.669,0,0,1,8.241,28.4V18.273l.231-.346a6.314,6.314,0,0,1,5.263-2.817h.847l.736-1.468a2.3,2.3,0,0,1,2.067-1.279,2.328,2.328,0,0,1,1.85.924,11.475,11.475,0,0,0,9.138,4.57h4.59V28.4a10.668,10.668,0,0,1-7.3,10.131l-.94.312v3.883a24.622,24.622,0,0,0-8.241,2.442V38.843ZM5.494,67.347A22.1,22.1,0,0,1,25.9,45.356a10.658,10.658,0,0,1,7.066,10.031V68.678H21.977V58.258a3.294,3.294,0,0,1,.971-2.345l-1.942-1.942a6.022,6.022,0,0,0-1.776,4.287v10.42a2.75,2.75,0,0,0,2.747,2.747V82.414H5.494Zm57.69,15.067H46.7V76.92a2.75,2.75,0,0,0,2.747-2.747V69.247a6.022,6.022,0,0,0-1.776-4.287L45.73,66.9a3.3,3.3,0,0,1,.971,2.345v4.926H35.713v-7.8a10.656,10.656,0,0,1,7.066-10.031A22.1,22.1,0,0,1,63.184,78.336Zm.783-13.7a24.953,24.953,0,0,0-9.024-10.935v-6a13.4,13.4,0,0,0,8.105-10.565h.136a5.438,5.438,0,0,0,2.747-.764V56.719A37.408,37.408,0,0,1,63.967,68.711Z" transform="translate(0)"/>
      </g>
    </g>
  </g>
</svg>
