<svg xmlns="http://www.w3.org/2000/svg" xmlns:xlink="http://www.w3.org/1999/xlink" width="108" height="108" viewBox="0 0 108 108">
  <defs>
    <filter id="Fondo" x="0" y="0" width="108" height="108" filterUnits="userSpaceOnUse">
      <feOffset dy="3" input="SourceAlpha"/>
      <feGaussianBlur stdDeviation="3" result="blur"/>
      <feFlood flood-opacity="0.161"/>
      <feComposite operator="in" in2="blur"/>
      <feComposite in="SourceGraphic"/>
    </filter>
  </defs>
  <g id="Group_1143007" data-name="Group 1143007" transform="translate(-326.627 -798.42)">
    <g transform="matrix(1, 0, 0, 1, 326.63, 798.42)" filter="url(#Fondo)">
      <g id="Fondo-2" data-name="Fondo" transform="translate(9 6)" fill="#dce8fa">
        <path d="M 45 88.5 C 39.12687683105469 88.5 33.43022537231445 87.35007476806641 28.06830024719238 85.08217620849609 C 22.88852500915527 82.89131164550781 18.23629951477051 79.75458526611328 14.2408504486084 75.75914764404297 C 10.24541282653809 71.76370239257812 7.108687400817871 67.11147308349609 4.917825222015381 61.93170166015625 C 2.649924993515015 56.56977462768555 1.5 50.87312316894531 1.5 45 C 1.5 39.12687683105469 2.649924993515015 33.43022537231445 4.917825222015381 28.06830024719238 C 7.108687400817871 22.88852500915527 10.24541282653809 18.23629951477051 14.2408504486084 14.2408504486084 C 18.23629951477051 10.24541282653809 22.88852500915527 7.108687400817871 28.06830024719238 4.917825222015381 C 33.43022537231445 2.649924993515015 39.12687683105469 1.5 45 1.5 C 50.87312316894531 1.5 56.56977462768555 2.649924993515015 61.93170166015625 4.917825222015381 C 67.11147308349609 7.108687400817871 71.76370239257812 10.24541282653809 75.75914764404297 14.2408504486084 C 79.75458526611328 18.23629951477051 82.89131164550781 22.88852500915527 85.08217620849609 28.06830024719238 C 87.35007476806641 33.43022537231445 88.5 39.12687683105469 88.5 45 C 88.5 50.87312316894531 87.35007476806641 56.56977462768555 85.08217620849609 61.93170166015625 C 82.89131164550781 67.11147308349609 79.75458526611328 71.76370239257812 75.75914764404297 75.75914764404297 C 71.76370239257812 79.75458526611328 67.11147308349609 82.89131164550781 61.93170166015625 85.08217620849609 C 56.56977462768555 87.35007476806641 50.87312316894531 88.5 45 88.5 Z" stroke="none"/>
        <path d="M 45 3 C 39.32871246337891 3 33.82865524291992 4.110054016113281 28.65262985229492 6.299339294433594 C 23.65165710449219 8.414573669433594 19.15968322753906 11.44334411621094 15.301513671875 15.301513671875 C 11.44334411621094 19.15968322753906 8.414573669433594 23.65165710449219 6.299339294433594 28.65262985229492 C 4.110054016113281 33.82865524291992 3 39.32871246337891 3 45 C 3 50.67128753662109 4.110054016113281 56.17134475708008 6.299339294433594 61.34737396240234 C 8.414573669433594 66.34834289550781 11.44334411621094 70.84031677246094 15.301513671875 74.698486328125 C 19.15968322753906 78.55665588378906 23.65165710449219 81.58542633056641 28.65262985229492 83.70066070556641 C 33.82865524291992 85.88994598388672 39.32871246337891 87 45 87 C 50.67128753662109 87 56.17134475708008 85.88994598388672 61.34737396240234 83.70066070556641 C 66.34834289550781 81.58542633056641 70.84031677246094 78.55665588378906 74.698486328125 74.698486328125 C 78.55665588378906 70.84031677246094 81.58542633056641 66.34834289550781 83.70066070556641 61.34737396240234 C 85.88994598388672 56.17134475708008 87 50.67128753662109 87 45 C 87 39.32871246337891 85.88994598388672 33.82865524291992 83.70066070556641 28.65262985229492 C 81.58542633056641 23.65165710449219 78.55665588378906 19.15968322753906 74.698486328125 15.301513671875 C 70.84031677246094 11.44334411621094 66.34834289550781 8.414573669433594 61.34737396240234 6.299339294433594 C 56.17134475708008 4.110054016113281 50.67128753662109 3 45 3 M 45 0 C 69.85281372070312 0 90 20.14718627929688 90 45 C 90 69.85281372070312 69.85281372070312 90 45 90 C 20.14718627929688 90 0 69.85281372070312 0 45 C 0 20.14718627929688 20.14718627929688 0 45 0 Z" stroke="none" fill="#2f4f7e"/>
      </g>
    </g>
    <g id="users_391194" transform="translate(341.186 791.432)">
      <path id="Path_903443" data-name="Path 903443" d="M48.614,29.77h0A18.724,18.724,0,0,0,29.89,48.494v8.52H67.339v-8.52A18.724,18.724,0,0,0,48.614,29.77Z" transform="translate(-25.284 -6.636)" fill="#515262"/>
      <path id="Path_903444" data-name="Path 903444" d="M129.172,29.079h.009a18.919,18.919,0,0,0-4.041.489A18.778,18.778,0,0,1,139.823,47.91v8.4h8.055v-8.4A18.8,18.8,0,0,0,129.172,29.079Z" transform="translate(-105.86 -6.052)" opacity="0.1"/>
      <path id="Path_903445" data-name="Path 903445" d="M22.344,174.69a4.6,4.6,0,0,0-4.6,4.6h0a4.6,4.6,0,0,0,4.6,4.6h2.236v-9.2H22.344Z" transform="translate(-15.011 -129.23)" fill="#e6b696"/>
      <path id="Path_903446" data-name="Path 903446" d="M52.086,377.775A23.936,23.936,0,0,0,38.644,364.5l-.1-.036H21.382A23.936,23.936,0,0,0,7.844,377.775H52.086Z" transform="translate(-6.635 -289.767)" fill="#ff6465"/>
      <path id="Path_903447" data-name="Path 903447" d="M109.165,309.924v-8.64H99.431v8.64a23.727,23.727,0,0,0-3.716,1.094,8.9,8.9,0,0,0,17.166,0A23.74,23.74,0,0,0,109.165,309.924Z" transform="translate(-80.968 -236.32)" fill="#e6b696"/>
      <path id="Path_903448" data-name="Path 903448" d="M216.99,377.775A23.936,23.936,0,0,1,230.431,364.5l.1-.036h17.166a23.937,23.937,0,0,1,13.538,13.311H216.99Z" transform="translate(-183.559 -289.767)" fill="#a5eb78"/>
      <path id="Path_903449" data-name="Path 903449" d="M308.579,309.924v-8.64h9.734v8.64a23.726,23.726,0,0,1,3.716,1.094,8.9,8.9,0,0,1-17.166,0A23.737,23.737,0,0,1,308.579,309.924Z" transform="translate(-257.894 -236.32)" fill="#e6b696"/>
      <path id="Path_903450" data-name="Path 903450" d="M120.056,299.923V308.1a20.573,20.573,0,0,0,9.666,0v-8.176h-9.666Z" transform="translate(-101.559 -235.169)" opacity="0.1"/>
      <path id="Path_903451" data-name="Path 903451" d="M329.2,299.924V308.1a20.57,20.57,0,0,0,9.667,0v-8.176H329.2Z" transform="translate(-278.485 -235.17)" opacity="0.1"/>
      <path id="Path_903452" data-name="Path 903452" d="M75.02,110.1a2.883,2.883,0,0,1-2.883-2.883,2.883,2.883,0,0,1-5.765,0,2.883,2.883,0,0,1-5.765,0,2.883,2.883,0,0,1-5.765,0,2.88,2.88,0,0,1-5.164,1.758,14.7,14.7,0,0,0-2.2,7.763v8.072a16.016,16.016,0,0,0,32.031,0v-8.072a14.7,14.7,0,0,0-2.2-7.763A2.876,2.876,0,0,1,75.02,110.1Z" transform="translate(-40.159 -72.148)" fill="#f0c5a6"/>
      <path id="Path_903453" data-name="Path 903453" d="M257.762,29.77h0a18.724,18.724,0,0,0-18.724,18.724v8.52h37.449v-8.52A18.725,18.725,0,0,0,257.762,29.77Z" transform="translate(-202.211 -6.636)" fill="#ffd782"/>
      <path id="Path_903454" data-name="Path 903454" d="M338.318,29.079h.009a18.919,18.919,0,0,0-4.041.489A18.778,18.778,0,0,1,348.969,47.91v8.4h8.055v-8.4A18.8,18.8,0,0,0,338.318,29.079Z" transform="translate(-282.784 -6.052)" opacity="0.1"/>
      <path id="Path_903455" data-name="Path 903455" d="M452.13,174.69a4.6,4.6,0,0,1,4.6,4.6h0a4.6,4.6,0,0,1-4.6,4.6h-2.236v-9.2h2.236Z" transform="translate(-380.582 -129.23)" fill="#e6b696"/>
      <path id="Path_903456" data-name="Path 903456" d="M261.1,110.1a2.883,2.883,0,0,0,2.883-2.883,2.883,2.883,0,1,0,5.765,0,2.883,2.883,0,0,0,5.765,0,2.883,2.883,0,1,0,5.765,0,2.88,2.88,0,0,0,5.164,1.758,14.7,14.7,0,0,1,2.2,7.763v8.072a16.016,16.016,0,0,1-32.031,0v-8.072a14.7,14.7,0,0,1,2.2-7.763A2.876,2.876,0,0,0,261.1,110.1Z" transform="translate(-217.081 -72.148)" fill="#f0c5a6"/>
      <path id="Path_903457" data-name="Path 903457" d="M153.188,61.142h0a18.724,18.724,0,0,0-18.724,18.724v8.52h37.449v-8.52A18.724,18.724,0,0,0,153.188,61.142Z" transform="translate(-113.748 -33.175)" fill="#5a4146"/>
      <path id="Path_903458" data-name="Path 903458" d="M233.745,60.451h.009a18.919,18.919,0,0,0-4.041.489A18.778,18.778,0,0,1,244.4,79.282v8.4h8.055v-8.4A18.8,18.8,0,0,0,233.745,60.451Z" transform="translate(-194.322 -32.591)" opacity="0.1"/>
      <g id="Group_1143006" data-name="Group 1143006" transform="translate(18.845 50.294)">
        <path id="Path_903459" data-name="Path 903459" d="M126.917,206.062a4.6,4.6,0,0,0-4.6,4.6h0a4.6,4.6,0,0,0,4.6,4.6h2.236v-9.2h-2.236Z" transform="translate(-122.319 -206.062)" fill="#e6b273"/>
        <path id="Path_903460" data-name="Path 903460" d="M347.556,206.062a4.6,4.6,0,0,1,4.6,4.6h0a4.6,4.6,0,0,1-4.6,4.6H345.32v-9.2h2.236Z" transform="translate(-310.964 -206.062)" fill="#e6b273"/>
      </g>
      <path id="Path_903461" data-name="Path 903461" d="M156.66,409.147a23.936,23.936,0,0,0-13.441-13.275l-.1-.037H125.956a23.937,23.937,0,0,0-13.538,13.311H156.66Z" transform="translate(-95.098 -316.305)" fill="#6ab2cc"/>
      <path id="Path_903462" data-name="Path 903462" d="M213.739,341.3v-8.64h-9.734v8.64a23.722,23.722,0,0,0-3.716,1.094,8.9,8.9,0,0,0,17.166,0A23.7,23.7,0,0,0,213.739,341.3Z" transform="translate(-169.431 -262.86)" fill="#f0c087"/>
      <path id="Path_903463" data-name="Path 903463" d="M224.629,331.3v8.176a20.572,20.572,0,0,0,9.667,0v-8.176h-9.667Z" transform="translate(-190.021 -261.708)" opacity="0.1"/>
      <path id="Path_903464" data-name="Path 903464" d="M179.593,141.468a2.883,2.883,0,0,1-2.883-2.883,2.883,2.883,0,1,1-5.765,0,2.883,2.883,0,0,1-5.765,0,2.883,2.883,0,0,1-5.765,0,2.88,2.88,0,0,1-5.164,1.758,14.7,14.7,0,0,0-2.2,7.763v8.072a16.016,16.016,0,0,0,32.031,0v-8.072a14.7,14.7,0,0,0-2.2-7.763A2.876,2.876,0,0,1,179.593,141.468Z" transform="translate(-128.622 -98.687)" fill="#f0c087"/>
      <path id="Path_903468" data-name="Path 903468" d="M78.792,87.555A25.053,25.053,0,0,0,61.627,72.64V68.773A17.283,17.283,0,0,0,72.49,55.789,5.8,5.8,0,0,0,75.484,45.8V41.858a19.972,19.972,0,0,0-6.58-14.8,1.208,1.208,0,0,0-1.619,1.794,17.55,17.55,0,0,1,5.783,13v2.6q-.146-.039-.293-.071c0-.061,0-.123-.006-.184a16.151,16.151,0,0,0-1.348-6.055,15.435,15.435,0,0,0-1.03-1.957,1.208,1.208,0,0,0-1.984-.1,1.672,1.672,0,0,1-3-1.019,1.208,1.208,0,1,0-2.417,0,1.674,1.674,0,0,1-3.349,0,1.208,1.208,0,1,0-2.417,0,1.661,1.661,0,0,1-.179.745,1.709,1.709,0,0,1-.5.592l-.025.018a19.9,19.9,0,0,0-2.642-3.451l-.041-.043A19.969,19.969,0,0,0,46.105,27.9c-.1-.037-.712-.318-.789-.262a17.535,17.535,0,0,1,18.183-1.4,1.208,1.208,0,0,0,1.1-2.153,19.942,19.942,0,0,0-22.291,2.874,19.951,19.951,0,0,0-5.73,0,19.931,19.931,0,0,0-24.854-1.312,1.208,1.208,0,1,0,1.409,1.964,17.521,17.521,0,0,1,20.435.026,19.951,19.951,0,0,0-8.03,4.781A20.318,20.318,0,0,0,23.375,34.9a17.623,17.623,0,0,0-1.019,1.522l-.025-.019a1.707,1.707,0,0,1-.675-1.336,1.208,1.208,0,0,0-2.417,0,1.674,1.674,0,0,1-3.349,0,1.208,1.208,0,0,0-2.417,0,1.672,1.672,0,0,1-3,1.02,1.208,1.208,0,0,0-1.984.1,15.813,15.813,0,0,0-2.23,6.186A16.755,16.755,0,0,0,6.113,44.2c0,.061,0,.123-.006.184-.1.021-.2.045-.293.071v-2.6A17.541,17.541,0,0,1,9.823,30.7a1.208,1.208,0,1,0-1.863-1.54A19.962,19.962,0,0,0,3.4,41.857V45.8a5.8,5.8,0,0,0,2.995,9.992A17.283,17.283,0,0,0,17.255,68.773V72.64a24.9,24.9,0,0,0-8.868,4.2,1.208,1.208,0,0,0,1.442,1.939,22.663,22.663,0,0,1,4.2-2.474c-.325.147,2.212,3.239,2.471,3.474A10.112,10.112,0,0,0,23.33,82.44l.179,0A25.17,25.17,0,0,0,19.354,86.8H3.082a22.649,22.649,0,0,1,3.361-4.928,1.208,1.208,0,0,0-1.8-1.611A25,25,0,0,0,.089,87.554a1.208,1.208,0,0,0,1.12,1.662h16.55A24.877,24.877,0,0,0,16.2,92.387a1.208,1.208,0,0,0,1.12,1.662H61.561a1.208,1.208,0,0,0,1.12-1.662,24.849,24.849,0,0,0-1.559-3.171h16.55a1.209,1.209,0,0,0,1.12-1.662ZM59.21,69.491V73.6a1.208,1.208,0,0,0,.963,1.183,22.561,22.561,0,0,1,2.42.644l-.033.075a7.634,7.634,0,0,1-1.967,2.63,7.7,7.7,0,0,1-12.049-2.63l-.033-.075a22.587,22.587,0,0,1,2.42-.644,1.208,1.208,0,0,0,.963-1.183V69.49l.186.038a17.268,17.268,0,0,0,7-.011ZM46.392,80.461a7.693,7.693,0,0,1-13.992-.2l.069-.022a22.917,22.917,0,0,1,2.35-.623,1.208,1.208,0,0,0,.963-1.183V74.324l.13.026a17.28,17.28,0,0,0,6.9.032c.1-.019.192-.037.287-.058v4.113a1.208,1.208,0,0,0,.963,1.183,22.32,22.32,0,0,1,2.344.62l.075.025-.033.074C46.43,80.38,46.411,80.421,46.392,80.461Zm-24.166-22.4a3.387,3.387,0,0,1-.7-5.957,3.477,3.477,0,0,1,.673-.36l.016-.006V57.49c0,.176,0,.352.009.527C22.226,58.03,22.226,58.043,22.226,58.057ZM27.91,43.989A4.077,4.077,0,0,0,30.793,42.8a4.084,4.084,0,0,0,5.765,0,4.08,4.08,0,0,0,2.467,1.17,4.127,4.127,0,0,0,.416.021A4.078,4.078,0,0,0,42.324,42.8a4.084,4.084,0,0,0,5.765,0,4.091,4.091,0,0,0,4.806.712,13.54,13.54,0,0,1,1.353,5.909V57.49c0,.44-.021.88-.059,1.318l-.006.066A14.9,14.9,0,0,1,50.342,67.5l-.324.341a14.821,14.821,0,0,1-6.506,3.887l-.023.007a14.847,14.847,0,0,1-8.1,0l-.023-.007a15.043,15.043,0,0,1-10.6-12.2l0-.023a14.725,14.725,0,0,1-.137-2.014V49.419a13.544,13.544,0,0,1,1.353-5.909,4.027,4.027,0,0,0,.684.289A4.1,4.1,0,0,0,27.91,43.989ZM46.55,77.755q-.513-.152-1.033-.282v-.819q.367-.182.738-.35c-.036.016.718,1.371.816,1.522.024.036.046.074.07.11l-.063-.019Q46.814,77.834,46.55,77.755Zm-.007-4.189h0l-.108.041c-.306.12-.612.249-.916.383v-.384a17.2,17.2,0,0,0,3.96-2.127v1.16A25.037,25.037,0,0,0,46.542,73.567ZM56.656,58.01c.005-.173.008-.346.008-.519V51.734l.015.006a3.424,3.424,0,0,1,.633.332l.041.028a3.387,3.387,0,0,1-.7,5.957C56.656,58.041,56.656,58.025,56.656,58.01ZM29.405,71.48a17.2,17.2,0,0,0,3.96,2.127v.384c-.307-.134-.615-.265-.927-.387l-.1-.037h0a25,25,0,0,0-2.933-.926V71.48h0Zm3.96,5.993q-.788.2-1.561.444l-.062.019c.169-.253.327-.518.473-.785s.289-.559.413-.847q.372.168.737.349v.82Zm39.4-24.25c0-.016,0-.031,0-.047.005-.173.008-.346.008-.519V46.9l.016.006a3.4,3.4,0,0,1,.633.332l.041.028a3.387,3.387,0,0,1-.7,5.957ZM61.317,39.156A4.078,4.078,0,0,0,64.2,37.965a4.091,4.091,0,0,0,4.806.712,13.544,13.544,0,0,1,1.353,5.909v8.072c0,.584-.048,1.161-.1,1.742A14.846,14.846,0,0,1,59.667,66.882l-.068.02a14.967,14.967,0,0,1-6,.433l-.021,0a17.206,17.206,0,0,0,1.2-2l.008-.016a17.306,17.306,0,0,0,1.567-4.539l.007-.034c.008-.041.016-.082.024-.123a5.8,5.8,0,0,0,2.995-9.992V46.691a19.872,19.872,0,0,0-.821-5.665L58.546,41a20.145,20.145,0,0,0-.9-2.434l.02-.013a6.524,6.524,0,0,0,.762-.6,4.091,4.091,0,0,0,2.888,1.2ZM43.36,29.617q.795.182,1.57.44a17.749,17.749,0,0,1,7.23,4.6,17.557,17.557,0,0,1,3.976,6.728l.015.046a17.618,17.618,0,0,1,.731,3.634l0,.044c.048.525.072,1.052.072,1.579v2.6c-.1-.026-.195-.05-.293-.071,0-.061,0-.123-.006-.184A15.923,15.923,0,0,0,54.28,41.02a1.208,1.208,0,0,0-1.984-.1,1.672,1.672,0,0,1-3-1.02,1.208,1.208,0,1,0-2.417,0,1.674,1.674,0,0,1-3.349,0,1.208,1.208,0,1,0-2.417,0,1.674,1.674,0,0,1-3.349,0,1.208,1.208,0,1,0-2.417,0A1.674,1.674,0,0,1,32,39.9a1.208,1.208,0,1,0-2.417,0,1.672,1.672,0,0,1-3,1.02,1.208,1.208,0,0,0-1.984.1,15.642,15.642,0,0,0-1.5,3.155,16.617,16.617,0,0,0-.713,2.908,15.687,15.687,0,0,0-.166,1.962c0,.057,0,.114,0,.171-.1.021-.2.045-.293.071v-2.6a17.515,17.515,0,0,1,1.218-6.418,17.756,17.756,0,0,1,9.849-9.866,17.441,17.441,0,0,1,10.368-.791ZM6.115,53.223a3.4,3.4,0,0,1-2.173-3.164A3.437,3.437,0,0,1,6.09,46.907l.016-.006v5.757c0,.174,0,.347.008.519C6.115,53.192,6.115,53.208,6.115,53.223ZM8.626,54.4a14.921,14.921,0,0,1-.1-1.742V44.585a13.544,13.544,0,0,1,1.353-5.909,4.091,4.091,0,0,0,4.806-.712,4.084,4.084,0,0,0,5.77-.005,7.512,7.512,0,0,0,.706.562l.055.036.02.013c-.174.39-.334.787-.482,1.188s-.291.826-.416,1.246l-.006.021a19.871,19.871,0,0,0-.821,5.665V50.63A5.8,5.8,0,0,0,22.5,60.622c.008.044.017.088.025.132l0,.018a17.315,17.315,0,0,0,2.774,6.561l-.02,0A14.8,14.8,0,0,1,8.626,54.4ZM18.709,74.787a1.208,1.208,0,0,0,.963-1.183V69.49l.126.025a17.3,17.3,0,0,0,7.191-.026V73.6a1.208,1.208,0,0,0,.963,1.183,12.065,12.065,0,0,1,2.42.654A8.043,8.043,0,0,1,25.6,79.68a7.665,7.665,0,0,1-2.267.344A7.8,7.8,0,0,1,17.3,77.1a5.247,5.247,0,0,1-1-1.674A15.863,15.863,0,0,1,18.709,74.787Zm.485,16.847a22.815,22.815,0,0,1,8.788-9.376l.013-.008a23.217,23.217,0,0,1,2.15-1.109,13.536,13.536,0,0,0,.875,1.623,10.12,10.12,0,0,0,17.718-1.624c.592.267,1.174.558,1.741.875a22.824,22.824,0,0,1,6.573,5.542q.391.482.754.986a22.649,22.649,0,0,1,1.882,3.09H19.194ZM59.528,86.8a25.153,25.153,0,0,0-4.156-4.361l.18,0A10.244,10.244,0,0,0,63.559,78.5a10.111,10.111,0,0,0,1.29-2.191A22.784,22.784,0,0,1,75.8,86.8Z"/>
    </g>
  </g>
</svg>
