<svg xmlns="http://www.w3.org/2000/svg" xmlns:xlink="http://www.w3.org/1999/xlink" width="108" height="108" viewBox="0 0 108 108">
  <defs>
    <filter id="Fondo" x="0" y="0" width="108" height="108" filterUnits="userSpaceOnUse">
      <feOffset dy="3" input="SourceAlpha"/>
      <feGaussianBlur stdDeviation="3" result="blur"/>
      <feFlood flood-opacity="0.161"/>
      <feComposite operator="in" in2="blur"/>
      <feComposite in="SourceGraphic"/>
    </filter>
  </defs>
  <g id="Group_1142923" data-name="Group 1142923" transform="translate(9 6)">
    <g transform="matrix(1, 0, 0, 1, -9, -6)" filter="url(#Fondo)">
      <g id="Fondo-2" data-name="Fondo" transform="translate(9 6)" fill="#f6ecaa" stroke="#dfd281" stroke-width="3">
        <circle cx="45" cy="45" r="45" stroke="none"/>
        <circle cx="45" cy="45" r="43.5" fill="none"/>
      </g>
    </g>
    <g id="nino_1_" data-name="nino (1)" transform="translate(13.534)">
      <g id="Group_1143087" data-name="Group 1143087" transform="translate(1.362 0)">
        <g id="Group_1143086" data-name="Group 1143086">
          <g id="Group_1143059" data-name="Group 1143059" transform="translate(46.108)">
            <g id="Group_1143057" data-name="Group 1143057" transform="translate(26.997)">
              <path id="Path_903593" data-name="Path 903593" transform="translate(0)" fill="#f7e0ba"/>
            </g>
            <g id="Group_1143058" data-name="Group 1143058" transform="translate(0 52.56)">
              <path id="Path_903594" data-name="Path 903594" d="M127.118,318.172v10.877a11.582,11.582,0,0,1-1.551,5.79l-2.1,3.642-2.728-8.89V307.824A11.581,11.581,0,0,1,127.118,318.172Z" transform="translate(-120.737 -307.824)" fill="#f7e0ba"/>
            </g>
          </g>
          <g id="Group_1143060" data-name="Group 1143060" transform="translate(46.107 52.56)">
            <path id="Path_903595" data-name="Path 903595" d="M123.722,328.8V316.214a11.578,11.578,0,0,0-2.985-7.759v-.631a11.58,11.58,0,0,1,6.382,10.348v10.877a11.582,11.582,0,0,1-1.551,5.79l-2.1,3.642L122.09,334S123.722,330.832,123.722,328.8Z" transform="translate(-120.737 -307.824)" fill="#f0b582"/>
          </g>
          <g id="Group_1143061" data-name="Group 1143061" transform="translate(6.418 52.56)">
            <path id="Path_903596" data-name="Path 903596" d="M359.561,307.824v21.767l-2.728,8.89-2.1-3.642a11.58,11.58,0,0,1-1.551-5.79V318.172A11.58,11.58,0,0,1,359.561,307.824Z" transform="translate(-353.18 -307.824)" fill="#f7e0ba"/>
          </g>
          <g id="Group_1143062" data-name="Group 1143062" transform="translate(7.564 52.561)">
            <path id="Path_903597" data-name="Path 903597" d="M354.711,329.079v-18.31a11.568,11.568,0,0,1,3.7-2.944v21.767l-2.728,8.89-2.1-3.642c-.146-.252-.28-.51-.406-.771Z" transform="translate(-353.18 -307.825)" fill="#f0b582"/>
          </g>
          <g id="Group_1143063" data-name="Group 1143063" transform="translate(23.054 46.984)">
            <path id="Path_903598" data-name="Path 903598" d="M230.907,275.24a5.5,5.5,0,0,1-5.5,5.5H223.6a5.5,5.5,0,0,1-5.5-5.5v-.073Z" transform="translate(-218.095 -275.167)" fill="#f0b582"/>
          </g>
          <g id="Group_1143064" data-name="Group 1143064" transform="translate(8.818 47.057)">
            <path id="Path_903599" data-name="Path 903599" d="M138.522,302.864V281.1l10.242-5.5.012.01a6.483,6.483,0,0,0,12.81.027l.044-.038,10.242,5.5v21.767l3.982,12.977H134.541Z" transform="translate(-134.541 -275.594)" fill="#f35173"/>
          </g>
          <g id="Group_1143066" data-name="Group 1143066" transform="translate(8.818 50.45)">
            <g id="Group_1143065" data-name="Group 1143065">
              <path id="Path_903600" data-name="Path 903600" d="M135.379,329.583h35.668L167.9,319.34V295.463l3.971,2.111v21.767l3.982,12.977H134.543Z" transform="translate(-134.543 -295.463)" fill="#ec1646"/>
            </g>
          </g>
          <g id="Group_1143067" data-name="Group 1143067" transform="translate(46.073 34.632)">
            <path id="Path_903601" data-name="Path 903601" d="M95.992,215.658H92.115a8.956,8.956,0,0,1-8.956-8.956v-3.877h3.877a8.956,8.956,0,0,1,8.956,8.956Z" transform="translate(-83.159 -202.825)" fill="#58575b"/>
          </g>
          <g id="Group_1143068" data-name="Group 1143068" transform="translate(46.956 35.695)">
            <path id="Path_903602" data-name="Path 903602" d="M87.394,216.813h3.877v-3.877a8.922,8.922,0,0,0-.884-3.884,8.953,8.953,0,0,1,4.721,7.892v3.877H91.231a8.956,8.956,0,0,1-8.072-5.071A8.914,8.914,0,0,0,87.394,216.813Z" transform="translate(-83.159 -209.052)" fill="#48474a"/>
          </g>
          <g id="Group_1143069" data-name="Group 1143069" transform="translate(7.654 26.95)">
            <path id="Path_903603" data-name="Path 903603" d="M356.936,157.835h1.284l.035,7.682h-1.319a3.841,3.841,0,0,1,0-7.682Z" transform="translate(-353.095 -157.835)" fill="#f0b582"/>
          </g>
          <g id="Group_1143070" data-name="Group 1143070" transform="translate(46.073 26.95)">
            <path id="Path_903604" data-name="Path 903604" d="M129.414,157.835H128.13l-.035,7.682h1.319a3.841,3.841,0,0,0,0-7.682Z" transform="translate(-128.095 -157.835)" fill="#f0b582"/>
          </g>
          <g id="Group_1143071" data-name="Group 1143071" transform="translate(7.629 1.338)">
            <path id="Path_903605" data-name="Path 903605" d="M147.287,7.84c.1.018,5.2-.013,5.288,0A19.124,19.124,0,0,1,171.7,26.964V37.29a3.841,3.841,0,0,0-3.841-3.841h-1.284V28.333h-9.817a6.83,6.83,0,0,1-6.83-6.83,6.83,6.83,0,0,1-6.83,6.83h-9.817l-.035,5.116h-1.284a3.841,3.841,0,0,0-3.841,3.841h-.026V26.964A19.125,19.125,0,0,1,147.287,7.84Z" transform="translate(-128.095 -7.837)" fill="#58575b"/>
          </g>
          <g id="Group_1143072" data-name="Group 1143072" transform="translate(46.107 23.109)">
            <path id="Path_903606" data-name="Path 903606" d="M133.22,139.182v3.841a3.841,3.841,0,0,0-3.841-3.841h-1.284v-3.841h1.284A3.841,3.841,0,0,1,133.22,139.182Z" transform="translate(-128.095 -135.341)" fill="#48474a"/>
          </g>
          <g id="Group_1143073" data-name="Group 1143073" transform="translate(7.629 1.219)">
            <path id="Path_903607" data-name="Path 903607" d="M143.1,23.912a2.9,2.9,0,0,0,3.1-2.873V17.46h3.732a6.518,6.518,0,0,0,6.83,6.453h10.925a19.127,19.127,0,0,0-18.63-16.647c12.025-1.25,22.572,6.862,22.647,19.12V36.71a3.841,3.841,0,0,0-3.858-3.841V27.753H156.757a6.83,6.83,0,0,1-6.83-6.83v0h0a6.83,6.83,0,0,1-6.83,6.825h-9.817l-.035,5.116h-1.284a3.841,3.841,0,0,0-3.841,3.841h-.026v-12.8h15Z" transform="translate(-128.095 -7.138)" fill="#48474a"/>
          </g>
          <g id="Group_1143074" data-name="Group 1143074" transform="translate(12.814 11.541)">
            <path id="Path_903608" data-name="Path 903608" d="M171.771,103.483h5.973a13.66,13.66,0,0,0,13.66-13.66V77.881h-9.817a6.83,6.83,0,0,1-6.83-6.83v0a6.83,6.83,0,0,1-6.83,6.83h-9.817V89.823A13.66,13.66,0,0,0,171.771,103.483Z" transform="translate(-158.111 -67.588)" fill="#f7e0ba"/>
          </g>
          <g id="Group_1143075" data-name="Group 1143075" transform="translate(12.814 21.834)">
            <path id="Path_903609" data-name="Path 903609" d="M171.721,149.631c.345.021,6.567,0,6.668-.017a9.633,9.633,0,0,0,9.165-9.173q.014-.311.014-.626V127.873h3.786c-.047,2.623.034,9.424,0,11.941a13.66,13.66,0,0,1-13.66,13.66h-5.973a13.66,13.66,0,0,1-13.66-13.66v-3.843A13.66,13.66,0,0,0,171.721,149.631Z" transform="translate(-158.061 -127.873)" fill="#f0b582"/>
          </g>
          <g id="Group_1143076" data-name="Group 1143076" transform="translate(0 34.632)">
            <path id="Path_903610" data-name="Path 903610" d="M352.985,215.658h3.877a8.956,8.956,0,0,0,8.956-8.956v-3.877h-3.877a8.956,8.956,0,0,0-8.956,8.956Z" transform="translate(-352.985 -202.825)" fill="#58575b"/>
          </g>
          <g id="Group_1143077" data-name="Group 1143077" transform="translate(0 34.632)">
            <path id="Path_903611" data-name="Path 903611" d="M356.583,211.942a5.52,5.52,0,0,0,5.52-5.52v-3.6h3.715V206.7a8.956,8.956,0,0,1-8.956,8.956h-3.877v-3.715Z" transform="translate(-352.985 -202.824)" fill="#48474a"/>
          </g>
          <g id="Group_1143078" data-name="Group 1143078" transform="translate(42.274 15.428)">
            <path id="Path_903612" data-name="Path 903612" d="M168.124,90.356h-2.561v2.561h2.561Z" transform="translate(-165.563 -90.356)" fill="#fff"/>
          </g>
          <g id="Group_1143079" data-name="Group 1143079" transform="translate(37.151 15.428)">
            <path id="Path_903613" data-name="Path 903613" d="M198.124,90.356h-2.561v2.561h2.561Z" transform="translate(-195.563 -90.356)" fill="#fff"/>
          </g>
          <g id="Group_1143080" data-name="Group 1143080" transform="translate(20.498 58.96)">
            <path id="Path_903614" data-name="Path 903614" d="M209.567,364.517h4.985a6.472,6.472,0,0,0,6.472-6.472V345.3H220.6l-5.124,6.405h-6.828l-5.124-6.405h-.432v12.742A6.472,6.472,0,0,0,209.567,364.517Z" transform="translate(-203.095 -345.303)" fill="#e5ecf5"/>
          </g>
          <g id="Group_1143083" data-name="Group 1143083" transform="translate(20.498 58.96)">
            <g id="Group_1143081" data-name="Group 1143081">
              <path id="Path_903615" data-name="Path 903615" d="M209.567,360.723c1.249-.065,3.736.125,5.622-.059a2.414,2.414,0,0,0,2.162-2.225c.214-2.854-.034-7.882.057-9.143l3.2-3.995h.421v12.742a6.472,6.472,0,0,1-6.472,6.472h-4.985a6.472,6.472,0,0,1-6.472-6.472v-3.793A6.472,6.472,0,0,0,209.567,360.723Z" transform="translate(-203.095 -345.302)" fill="#cad8eb"/>
            </g>
            <g id="Group_1143082" data-name="Group 1143082" transform="translate(0 0)">
              <path id="Path_903616" data-name="Path 903616" d="M270.148,345.3l6.121,7.687H272l-2.289-3.116V345.3Z" transform="translate(-269.716 -345.303)" fill="#cad8eb"/>
            </g>
          </g>
          <g id="Group_1143084" data-name="Group 1143084" transform="translate(42.274 82.006)">
            <path id="Path_903617" data-name="Path 903617" d="M168.124,480.277h-2.561v2.561h2.561Z" transform="translate(-165.563 -480.277)" fill="#fff"/>
          </g>
          <g id="Group_1143085" data-name="Group 1143085" transform="translate(37.146 82.006)">
            <path id="Path_903618" data-name="Path 903618" d="M198.156,480.277H195.6v2.561h2.561Z" transform="translate(-195.595 -480.277)" fill="#fff"/>
          </g>
        </g>
      </g>
      <g id="Group_1143088" data-name="Group 1143088" transform="translate(0)">
        <path id="Path_903619" data-name="Path 903619" d="M232.105,213.767c1.724,1.5,3,0,4.186-1.247l1.811,1.811c-1.184,1.283-2.644,2.709-4.528,2.606-1.882.1-3.347-1.324-4.528-2.606l1.811-1.811Z" transform="translate(-202.746 -176.233)"/>
        <path id="Path_903620" data-name="Path 903620" d="M295.624,165.3h-2.561v2.561h2.561Z" transform="translate(-271.198 -137.078)"/>
        <path id="Path_903621" data-name="Path 903621" d="M205.624,165.3h-2.561v2.561h2.561Z" transform="translate(-165.831 -137.078)"/>
        <path id="Path_903622" data-name="Path 903622" d="M83.707,33.512a5.109,5.109,0,0,1-.743-3.375c-.138-8.643-.841-18.221,6.378-24.491L91.1,7.506c-5.526,4.9-5.884,11.95-5.578,18.827a5.094,5.094,0,0,1,2.556-.664V20.553h11.1A5.556,5.556,0,0,0,104.728,15V11.54h2.561V15a5.556,5.556,0,0,0,5.549,5.549h11.1v5.116a5.088,5.088,0,0,1,2.564.689c1.189-12.48-4.255-23.156-17.843-23.736-5.321-.174-11.4-.11-15.749,3.387L91.4,3.935C96.217.114,102.759-.176,108.657.061a20.427,20.427,0,0,1,20.4,20.4V30.791a5.088,5.088,0,0,1-.784,2.718c8.041,1.843,8.855,8.063,8.457,15.236-3.573-.015-8.381.484-11.292-2.041l1.641-1.964c1.947,1.55,4.722,1.509,7.09,1.443.5-5.4-1.773-10-7.675-10.272-.04.009-2.554-.006-2.6,0-.067,2.376-.1,5.144,1.448,7.1l-1.931,1.681a10.169,10.169,0,0,1-1.636-3.2,15.043,15.043,0,0,1-6.319,5.746l8.473,4.553v0c8.2,4.435,6.181,14.321,6.381,21.986.164,3.439-1.825,6.752-3.546,9.589l1.13,3.876h-2.619l-3.906-12.732V53.326L113.4,49.04c-1.143,3.682-4.56,5.152-8.293,4.8a6.8,6.8,0,0,1-6.489-4.806l-7.987,4.292V74.519L86.722,87.251h-2.8l1.313-3.876c-2.578-4.247-3.819-6.476-3.547-11.609h2.561c-.133,3.241.2,5.5,2.012,8.264l1.809-5.895V54.9a10.635,10.635,0,0,0-3.82,9.185H81.685A13.039,13.039,0,0,1,88.067,51.8v0l8.48-4.556a15.046,15.046,0,0,1-6.325-5.765c-2.391,7.128-8.337,7.606-14.955,7.272-.4-7.169.421-13.386,8.44-15.233ZM125.744,80.03a11.366,11.366,0,0,0,2.012-6.244V62.908a10.238,10.238,0,0,0-3.82-8.01V74.135Zm-37.7-51.8a2.49,2.49,0,0,0-2.517,2.56h-.043a2.564,2.564,0,0,0,2.6,2.56V28.231Zm38.457,2.56a2.563,2.563,0,0,0-2.564-2.56v5.121A2.563,2.563,0,0,0,126.5,30.791ZM105.1,51.28c2.485.147,4.7-.161,5.734-2.678a82.174,82.174,0,0,1-9.663,0A4.228,4.228,0,0,0,105.1,51.28Zm-2.083-5.125H109a12.364,12.364,0,0,0,12.344-12.8h.035V23.114c-5.044-.293-12.27,1.514-15.366-3.741-3.114,5.264-10.315,3.442-15.366,3.741V33.351h.019A12.388,12.388,0,0,0,103.022,46.154Zm-25.193.03c5.4.505,10-1.773,10.272-7.675v-2.6H85.5C79.6,36.181,77.324,40.782,77.829,46.184Z" transform="translate(-75.186 0)"/>
        <path id="Path_903623" data-name="Path 903623" d="M385.62,390.3h-2.561v2.641h2.561Z" transform="translate(-376.561 -323.659)"/>
        <path id="Path_903624" data-name="Path 903624" d="M203.047,344.208h5.6l5.124-6.405h2.317v14.023a7.761,7.761,0,0,1-7.752,7.752h-4.985a7.761,7.761,0,0,1-7.752-7.752V337.8h2.328Zm-4.891,7.618c.486,6.066,5.739,5.184,10.176,5.191a5.2,5.2,0,0,0,5.191-5.191v-9.618l-3.649,4.561h-8.059l-3.66-4.575Z" transform="translate(-175.016 -280.124)"/>
      </g>
    </g>
  </g>
</svg>
