<svg xmlns="http://www.w3.org/2000/svg" width="1360" height="791" viewBox="0 0 1360 791">
  <g id="Group_1143710" data-name="Group 1143710" transform="translate(-120 -439)">
    <rect id="Rectangle_404709" data-name="Rectangle 404709" width="1360" height="791" transform="translate(120 439)" fill="#f9f9f9"/>
    <g id="Group_1143398" data-name="Group 1143398">
      <rect id="Rectangle_404730" data-name="Rectangle 404730" width="522" height="73" transform="translate(539 497)" fill="#d7f9fe"/>
      <text id="Desarrollo_físico_y_motor_en_niños_y_adolescentes" data-name="Desarrollo físico y motor en niños y adolescentes" transform="translate(563 520)" fill="#212429" font-size="20" font-family="SegoeUI-Bold, Segoe UI" font-weight="700" letter-spacing="0em"><tspan x="0" y="22">Desarrollo físico y motor en niños y adolescentes</tspan></text>
      <path id="Path_904768" data-name="Path 904768" d="M-5072.213,2254v386h46.409" transform="translate(5250 -1555)" fill="none" stroke="#3573cc" stroke-width="1"/>
      <path id="Path_904772" data-name="Path 904772" d="M-5072.213,2254v335h46.409" transform="translate(5510 -1555)" fill="none" stroke="#3573cc" stroke-width="1"/>
      <path id="Path_904776" data-name="Path 904776" d="M-5072.213,2254v249h46.409" transform="translate(5770 -1555)" fill="none" stroke="#3573cc" stroke-width="1"/>
      <path id="Path_904780" data-name="Path 904780" d="M-5072.213,2254v390.5h46.409" transform="translate(6030 -1555)" fill="none" stroke="#3573cc" stroke-width="1"/>
      <path id="Path_904784" data-name="Path 904784" d="M-5072.213,2254v252.493h46.409" transform="translate(6290 -1555)" fill="none" stroke="#3573cc" stroke-width="1"/>
      <g id="Rectangle_404988" data-name="Rectangle 404988" transform="translate(213 751)" fill="#dce8fa" stroke="#a7bcdc" stroke-width="1">
        <rect width="193" height="72" stroke="none"/>
        <rect x="0.5" y="0.5" width="192" height="71" fill="none"/>
      </g>
      <g id="Rectangle_404995" data-name="Rectangle 404995" transform="translate(473 738)" fill="#dce8fa" stroke="#a7bcdc" stroke-width="1">
        <rect width="193" height="99" stroke="none"/>
        <rect x="0.5" y="0.5" width="192" height="98" fill="none"/>
      </g>
      <g id="Rectangle_405015" data-name="Rectangle 405015" transform="translate(733 738)" fill="#dce8fa" stroke="#a7bcdc" stroke-width="1">
        <rect width="193" height="99" stroke="none"/>
        <rect x="0.5" y="0.5" width="192" height="98" fill="none"/>
      </g>
      <g id="Rectangle_405016" data-name="Rectangle 405016" transform="translate(733 864)" fill="#dce8fa" stroke="#a7bcdc" stroke-width="1">
        <rect width="193" height="172" stroke="none"/>
        <rect x="0.5" y="0.5" width="192" height="171" fill="none"/>
      </g>
      <g id="Rectangle_405013" data-name="Rectangle 405013" transform="translate(473 864)" fill="#dce8fa" stroke="#a7bcdc" stroke-width="1">
        <rect width="193" height="99" stroke="none"/>
        <rect x="0.5" y="0.5" width="192" height="98" fill="none"/>
      </g>
      <g id="Rectangle_405014" data-name="Rectangle 405014" transform="translate(473 986)" fill="#dce8fa" stroke="#a7bcdc" stroke-width="1">
        <rect width="193" height="99" stroke="none"/>
        <rect x="0.5" y="0.5" width="192" height="98" fill="none"/>
      </g>
      <g id="Rectangle_404992" data-name="Rectangle 404992" transform="translate(155 627)" fill="#f6ecaa" stroke="#e3d57b" stroke-width="1">
        <rect width="193" height="72" stroke="none"/>
        <rect x="0.5" y="0.5" width="192" height="71" fill="none"/>
      </g>
      <g id="Rectangle_404996" data-name="Rectangle 404996" transform="translate(415 627)" fill="#f6ecaa" stroke="#e3d57b" stroke-width="1">
        <rect width="193" height="72" stroke="none"/>
        <rect x="0.5" y="0.5" width="192" height="71" fill="none"/>
      </g>
      <g id="Rectangle_405001" data-name="Rectangle 405001" transform="translate(675 627)" fill="#f6ecaa" stroke="#e3d57b" stroke-width="1">
        <rect width="193" height="72" stroke="none"/>
        <rect x="0.5" y="0.5" width="192" height="71" fill="none"/>
      </g>
      <g id="Rectangle_405006" data-name="Rectangle 405006" transform="translate(935 627)" fill="#f6ecaa" stroke="#e3d57b" stroke-width="1">
        <rect width="193" height="72" stroke="none"/>
        <rect x="0.5" y="0.5" width="192" height="71" fill="none"/>
      </g>
      <g id="Rectangle_405011" data-name="Rectangle 405011" transform="translate(1195 627)" fill="#f6ecaa" stroke="#e3d57b" stroke-width="1">
        <rect width="193" height="72" stroke="none"/>
        <rect x="0.5" y="0.5" width="192" height="71" fill="none"/>
      </g>
      <g id="Rectangle_404989" data-name="Rectangle 404989" transform="translate(213 850)" fill="#dce8fa" stroke="#a7bcdc" stroke-width="1">
        <rect width="193" height="72" stroke="none"/>
        <rect x="0.5" y="0.5" width="192" height="71" fill="none"/>
      </g>
      <g id="Rectangle_404990" data-name="Rectangle 404990" transform="translate(213 949)" fill="#dce8fa" stroke="#a7bcdc" stroke-width="1">
        <rect width="193" height="72" stroke="none"/>
        <rect x="0.5" y="0.5" width="192" height="71" fill="none"/>
      </g>
      <g id="Rectangle_404991" data-name="Rectangle 404991" transform="translate(213 1048)" fill="#dce8fa" stroke="#a7bcdc" stroke-width="1">
        <rect width="193" height="72" stroke="none"/>
        <rect x="0.5" y="0.5" width="192" height="71" fill="none"/>
      </g>
      <text id="Infancia_temprana_0-2_años_" data-name="Infancia temprana (0-2 años)" transform="translate(238 765)" fill="#212429" font-size="16" font-family="SegoeUI, Segoe UI" letter-spacing="0em"><tspan x="0" y="17">Infancia temprana </tspan><tspan x="0" y="41">(0-2 años)</tspan></text>
      <text id="Genética:_herencia_de_características_físicas_y_de_desarrollo" data-name="Genética: herencia de características físicas y de desarrollo" transform="translate(488 752)" fill="#212429" font-size="16" font-family="SegoeUI, Segoe UI" letter-spacing="0em"><tspan x="0" y="17">Genética: herencia de </tspan><tspan x="0" y="41">características físicas y </tspan><tspan x="0" y="65">de desarrollo</tspan></text>
      <text id="Cambios_hormonales:_incremento_de_hormonas_sexuales" data-name="Cambios hormonales: incremento de hormonas sexuales" transform="translate(748 752)" fill="#212429" font-size="16" font-family="SegoeUI, Segoe UI" letter-spacing="0em"><tspan x="0" y="17">Cambios hormonales: </tspan><tspan x="0" y="41">incremento de </tspan><tspan x="0" y="65">hormonas sexuales</tspan></text>
      <text id="Características_sexuales_secundarias:_desarrollo_físico_específico_ej._Crecimiento_de_vello_cambios_en_la_voz_" data-name="Características sexuales secundarias: desarrollo físico específico (ej., Crecimiento de vello, cambios en la voz)" transform="translate(748 878)" fill="#212429" font-size="16" font-family="SegoeUI, Segoe UI" letter-spacing="0em"><tspan x="0" y="17">Características sexuales </tspan><tspan x="0" y="41">secundarias: desarrollo </tspan><tspan x="0" y="65">físico específico (ej., </tspan><tspan x="0" y="89">Crecimiento de vello, </tspan><tspan x="0" y="113">cambios en la voz)</tspan></text>
      <text id="Nutrición:_impacto_de_una_dieta_equilibrada_en_el_crecimiento" data-name="Nutrición: impacto de una dieta equilibrada en el crecimiento" transform="translate(488 878)" fill="#212429" font-size="16" font-family="SegoeUI, Segoe UI" letter-spacing="0em"><tspan x="0" y="17">Nutrición: impacto de </tspan><tspan x="0" y="41">una dieta equilibrada </tspan><tspan x="0" y="65">en el crecimiento</tspan></text>
      <text id="Entorno:_papel_de_la_familia_educación_y_contexto_social" data-name="Entorno: papel de la familia, educación y contexto social" transform="translate(488 1000)" fill="#212429" font-size="16" font-family="SegoeUI, Segoe UI" letter-spacing="0em"><tspan x="0" y="17">Entorno: papel de la </tspan><tspan x="0" y="41">familia, educación y </tspan><tspan x="0" y="65">contexto social</tspan></text>
      <text id="Infancia_media_2-6_años_" data-name="Infancia media (2-6 años)" transform="translate(238 864)" fill="#212429" font-size="16" font-family="SegoeUI, Segoe UI" letter-spacing="0em"><tspan x="0" y="17">Infancia media (2-6 </tspan><tspan x="0" y="41">años)</tspan></text>
      <text id="Infancia_tardía_6-12_años_" data-name="Infancia tardía (6-12 años)" transform="translate(238 963)" fill="#212429" font-size="16" font-family="SegoeUI, Segoe UI" letter-spacing="0em"><tspan x="0" y="17">Infancia tardía </tspan><tspan x="0" y="41">(6-12 años)</tspan></text>
      <text id="Adolescencia_12-18_años_" data-name="Adolescencia (12-18 años)" transform="translate(238 1062)" fill="#212429" font-size="16" font-family="SegoeUI, Segoe UI" letter-spacing="0em"><tspan x="0" y="17">Adolescencia </tspan><tspan x="0" y="41">(12-18 años)</tspan></text>
      <text id="Etapas_del_crecimiento" data-name="Etapas del crecimiento" transform="translate(168 670)" fill="#212429" font-size="16" font-family="SegoeUI, Segoe UI" letter-spacing="0em"><tspan x="0" y="0">Etapas del crecimiento</tspan></text>
      <text id="Factores_influyentes" data-name="Factores influyentes" transform="translate(438 670)" fill="#212429" font-size="16" font-family="SegoeUI, Segoe UI" letter-spacing="0em"><tspan x="0" y="0">Factores influyentes</tspan></text>
      <text id="Cambios_en_la_pubertad" data-name="Cambios en la pubertad" transform="translate(721 641)" fill="#212429" font-size="16" font-family="SegoeUI, Segoe UI" letter-spacing="0em"><tspan x="-49.748" y="17">Cambios en la </tspan><tspan x="-32.396" y="41">pubertad</tspan></text>
      <text id="Importancia_de_la_estimulación" data-name="Importancia de la estimulación" transform="translate(1225 641)" fill="#212429" font-size="16" font-family="SegoeUI, Segoe UI" letter-spacing="0em"><tspan x="-61.501" y="17">Importancia de la </tspan><tspan x="-44.509" y="41">estimulación</tspan></text>
      <text id="Hitos_motores_" data-name="Hitos motores " transform="translate(978 669)" fill="#212429" font-size="16" font-family="SegoeUI, Segoe UI" letter-spacing="0em"><tspan x="0" y="0">Hitos motores </tspan></text>
      <path id="Path_904769" data-name="Path 904769" d="M-5072.213,2540H-5037" transform="translate(5250 -1554.5)" fill="none" stroke="#3573cc" stroke-width="1"/>
      <path id="Path_904770" data-name="Path 904770" d="M-5072.213,2540H-5037" transform="translate(5250 -1653.5)" fill="none" stroke="#3573cc" stroke-width="1"/>
      <path id="Path_904782" data-name="Path 904782" d="M-5072.213,2540H-5037" transform="translate(6030 -1602.5)" fill="none" stroke="#3573cc" stroke-width="1"/>
      <path id="Path_904771" data-name="Path 904771" d="M-5072.213,2540H-5037" transform="translate(5250 -1752.5)" fill="none" stroke="#3573cc" stroke-width="1"/>
      <path id="Path_904775" data-name="Path 904775" d="M-5072.213,2540H-5037" transform="translate(5510 -1752)" fill="none" stroke="#3573cc" stroke-width="1"/>
      <path id="Path_904790" data-name="Path 904790" d="M-5072.213,2540H-5037" transform="translate(5510 -1626)" fill="none" stroke="#3573cc" stroke-width="1"/>
      <path id="Path_904779" data-name="Path 904779" d="M-5072.213,2540H-5037" transform="translate(5770 -1752)" fill="none" stroke="#3573cc" stroke-width="1"/>
      <path id="Path_904783" data-name="Path 904783" d="M-5072.213,2540H-5037" transform="translate(6030 -1752)" fill="none" stroke="#3573cc" stroke-width="1"/>
      <path id="Path_904791" data-name="Path 904791" d="M-5072.213,2540H-5037" transform="translate(6290 -1740.5)" fill="none" stroke="#3573cc" stroke-width="1"/>
      <path id="Path_904788" data-name="Path 904788" d="M-4535.608,1704v27.866h-548.5V1761.3" transform="translate(5335.608 -1134)" fill="none" stroke="#3573cc" stroke-width="1"/>
      <path id="Path_904789" data-name="Path 904789" d="M-5084.107,1704v27.866h492V1761.3" transform="translate(5884.108 -1134)" fill="none" stroke="#3573cc" stroke-width="1"/>
      <g id="Rectangle_405017" data-name="Rectangle 405017" transform="translate(993 738)" fill="#dce8fa" stroke="#a7bcdc" stroke-width="1">
        <rect width="193" height="99" stroke="none"/>
        <rect x="0.5" y="0.5" width="192" height="98" fill="none"/>
      </g>
      <g id="Rectangle_405020" data-name="Rectangle 405020" transform="translate(1253 738)" fill="#dce8fa" stroke="#a7bcdc" stroke-width="1">
        <rect width="193" height="123" stroke="none"/>
        <rect x="0.5" y="0.5" width="192" height="122" fill="none"/>
      </g>
      <g id="Rectangle_405021" data-name="Rectangle 405021" transform="translate(1253 887)" fill="#dce8fa" stroke="#a7bcdc" stroke-width="1">
        <rect width="193" height="123" stroke="none"/>
        <rect x="0.5" y="0.5" width="192" height="122" fill="none"/>
      </g>
      <g id="Rectangle_405018" data-name="Rectangle 405018" transform="translate(993 864)" fill="#dce8fa" stroke="#a7bcdc" stroke-width="1">
        <rect width="193" height="146" stroke="none"/>
        <rect x="0.5" y="0.5" width="192" height="145" fill="none"/>
      </g>
      <g id="Rectangle_405019" data-name="Rectangle 405019" transform="translate(993 1036)" fill="#dce8fa" stroke="#a7bcdc" stroke-width="1">
        <rect width="193" height="107" stroke="none"/>
        <rect x="0.5" y="0.5" width="192" height="106" fill="none"/>
      </g>
      <text id="Habilidades_básicas:_gatear_caminar_correr" data-name="Habilidades básicas: gatear, caminar, correr" transform="translate(1008 752)" fill="#212429" font-size="16" font-family="SegoeUI, Segoe UI" letter-spacing="0em"><tspan x="0" y="17">Habilidades básicas: </tspan><tspan x="0" y="41">gatear, caminar, correr</tspan></text>
      <text id="Juego_y_actividad_física:_desarrollo_de_habilidades_motoras_y_autoestima" data-name="Juego y actividad física: desarrollo de habilidades motoras y autoestima" transform="translate(1268 754)" fill="#212429" font-size="16" font-family="SegoeUI, Segoe UI" letter-spacing="0em"><tspan x="0" y="17">Juego y actividad </tspan><tspan x="0" y="41">física: desarrollo de </tspan><tspan x="0" y="65">habilidades motoras y </tspan><tspan x="0" y="89">autoestima</tspan></text>
      <text id="Participación_social:_interacciones_que_refuerzan_habilidades_motoras_y_sociales" data-name="Participación social: interacciones que refuerzan habilidades motoras y sociales" transform="translate(1268 903)" fill="#212429" font-size="16" font-family="SegoeUI, Segoe UI" letter-spacing="0em"><tspan x="0" y="17">Participación social: </tspan><tspan x="0" y="41">interacciones que </tspan><tspan x="0" y="65">refuerzan habilidades </tspan><tspan x="0" y="89">motoras y sociales</tspan></text>
      <text id="Coordinación_y_equilibrio:_destrezas_más_complejas_en_la_infancia_media_y_tardía" data-name="Coordinación y equilibrio: destrezas más complejas en la infancia media y tardía" transform="translate(1008 880)" fill="#212429" font-size="16" font-family="SegoeUI, Segoe UI" letter-spacing="0em"><tspan x="0" y="17">Coordinación y </tspan><tspan x="0" y="41">equilibrio: destrezas </tspan><tspan x="0" y="65">más complejas en la </tspan><tspan x="0" y="89">infancia media y tardía</tspan></text>
      <text id="Fuerza_y_resistencia:_incremento_notable_en_la_adolescencia" data-name="Fuerza y resistencia: incremento notable en la adolescencia" transform="translate(1008 1052)" fill="#212429" font-size="16" font-family="SegoeUI, Segoe UI" letter-spacing="0em"><tspan x="0" y="17">Fuerza y resistencia: </tspan><tspan x="0" y="41">incremento notable en </tspan><tspan x="0" y="65">la adolescencia</tspan></text>
      <path id="Path_904793" data-name="Path 904793" d="M-4818.178,1723.649v30.011" transform="translate(5329.678 -1125.864)" fill="none" stroke="#3573cc" stroke-width="1"/>
      <path id="Path_904794" data-name="Path 904794" d="M-4818.178,1723.649v30.011" transform="translate(5618.178 -1125.864)" fill="none" stroke="#3573cc" stroke-width="1"/>
      <path id="Path_904795" data-name="Path 904795" d="M-4818.178,1723.649v30.011" transform="translate(5849.678 -1125.864)" fill="none" stroke="#3573cc" stroke-width="1"/>
    </g>
  </g>
</svg>
