<svg xmlns="http://www.w3.org/2000/svg" xmlns:xlink="http://www.w3.org/1999/xlink" width="86" height="86" viewBox="0 0 86 86">
  <defs>
    <filter id="Ellipse_11496" x="0" y="0" width="86" height="86" filterUnits="userSpaceOnUse">
      <feOffset dy="3" input="SourceAlpha"/>
      <feGaussianBlur stdDeviation="3" result="blur"/>
      <feFlood flood-opacity="0.161"/>
      <feComposite operator="in" in2="blur"/>
      <feComposite in="SourceGraphic"/>
    </filter>
  </defs>
  <g id="Group_1099695" data-name="Group 1099695" transform="translate(-503 -1853)">
    <g transform="matrix(1, 0, 0, 1, 503, 1853)" filter="url(#Ellipse_11496)">
      <g id="Ellipse_11496-2" data-name="Ellipse 11496" transform="translate(9 6)" fill="#f5e9a1" stroke="#bcac89" stroke-width="2">
        <circle cx="34" cy="34" r="34" stroke="none"/>
        <circle cx="34" cy="34" r="33" fill="none"/>
      </g>
    </g>
    <g id="agreement_9252289" transform="translate(514.572 1841.432)">
      <g id="Group_1099694" data-name="Group 1099694" transform="translate(8.851 28.033)">
        <g id="Group_1099691" data-name="Group 1099691" transform="translate(0 0)">
          <path id="Path_874985" data-name="Path 874985" d="M16.95,35.179H46.041a.916.916,0,0,1,.671.278l5.328,5.328a.917.917,0,0,1,.278.671V81.3a.951.951,0,0,1-.949.949H16.95A.951.951,0,0,1,16,81.3V36.128a.951.951,0,0,1,.949-.949Z" transform="translate(-16.001 -35.179)" fill="#eceff1" fill-rule="evenodd"/>
          <path id="Path_874986" data-name="Path 874986" d="M16.95,35.179h1.736V82.25H16.95A.951.951,0,0,1,16,81.3V36.128A.951.951,0,0,1,16.95,35.179Z" transform="translate(-16.001 -35.179)" fill="#d1d1d6" fill-rule="evenodd"/>
          <path id="Path_874987" data-name="Path 874987" d="M301.543,35.951a.952.952,0,0,1,.278.2l5.328,5.328a.95.95,0,0,1,.2.278h-5.327a.475.475,0,0,1-.475-.475Z" transform="translate(-271.11 -35.869)" fill="#a79ba7" fill-rule="evenodd"/>
        </g>
        <g id="Group_1099692" data-name="Group 1099692" transform="translate(14.821 20.519)">
          <path id="Path_874988" data-name="Path 874988" d="M203,273.664l.957.526a1.657,1.657,0,1,0,1.6-2.9,1.652,1.652,0,0,0,2.284-2.171l.249-.1-11.218-8.929c-3.2-2.158-5.429.623-7.629-.615l-2.914-1.344a.991.991,0,0,0-1.309.477l-3.129,6.658a.989.989,0,0,0,.489,1.322c1.04.468,2.633,1.185,2.96,1.312,1,.387.668,1.945,1.214,2.657.84,1.095.977,1.893,1.692,2.3l10.424,5.988a1.651,1.651,0,0,0,2.25-.653,1.67,1.67,0,0,0-.651-2.254l1.139.633a1.657,1.657,0,0,0,1.6-2.9Z" transform="translate(-178.939 -254.8)" fill="#f6dccd" fill-rule="evenodd"/>
          <path id="Path_874989" data-name="Path 874989" d="M218.445,260.35l-.334-.266c-3.2-2.158-5.429.623-7.629-.615l-2.914-1.345a.991.991,0,0,0-1.309.477l-.692,1.472a2.515,2.515,0,0,1,2.418.41c4.359,2.613,5.856-.218,9.275.991q.206-.195.4-.394c.249-.252.511-.5.783-.731Z" transform="translate(-200.183 -254.8)" fill="#f1cbbc" fill-rule="evenodd"/>
          <path id="Path_874990" data-name="Path 874990" d="M326.333,358.155l1.356.779a1.65,1.65,0,0,0,2.217-.6l-2.823-1.609Zm7.673-7.1.572.32a1.657,1.657,0,0,0,2.189-.551l-5.361-3.047a.787.787,0,0,0-.773,1.372C331.773,349.8,334.036,351.075,334.006,351.058Zm-2.54,2.391-3.676-2.088a.787.787,0,0,1,.773-1.372l6.6,3.753a1.663,1.663,0,0,1-2.182.54Zm-5.1.847a.788.788,0,0,1,1.011-1.166l5.242,2.97a1.66,1.66,0,0,1-2.195.56l-1.03-.571-2.572-1.468a1.12,1.12,0,0,1-.457-.325Z" transform="translate(-307.965 -334.891)" fill="#f1cbbc" fill-rule="evenodd"/>
          <path id="Path_874991" data-name="Path 874991" d="M160,228.324l-4.853,10.98a1.058,1.058,0,0,0,.539,1.392l2.114.934a1.058,1.058,0,0,0,1.392-.539l4.853-10.98a1.058,1.058,0,0,0-.539-1.392l-2.114-.934A1.058,1.058,0,0,0,160,228.324Z" transform="translate(-155.059 -227.696)" fill="#d1d1d6" fill-rule="evenodd"/>
          <path id="Path_874992" data-name="Path 874992" d="M174.1,249.708a1.058,1.058,0,0,1-1.387.541l.86.38a1.058,1.058,0,0,0,1.392-.539l4.853-10.98a1.059,1.059,0,0,0-.44-1.342Z" transform="translate(-170.834 -236.694)" fill="#b1b1b5" fill-rule="evenodd"/>
          <path id="Path_874993" data-name="Path 874993" d="M227.443,366.631a1.714,1.714,0,0,1,2.074-.365,1.687,1.687,0,0,1,.566.49,1.715,1.715,0,0,1,.134,1.82l-1.009,1.886a1.706,1.706,0,0,1-3.184-1.1,1.706,1.706,0,0,1-3.073-1.249,1.706,1.706,0,1,1-3.013-1.6l.318-.595a1.706,1.706,0,0,1-2.653-2.067l1.052-1.967a1.706,1.706,0,0,1,3.057,1.513,1.706,1.706,0,0,1,2.808,1.678,1.706,1.706,0,0,1,2.922,1.563Z" transform="translate(-210.758 -346.772)" fill="#d6b4a8" fill-rule="evenodd"/>
          <path id="Path_874994" data-name="Path 874994" d="M224.595,366.777a1.713,1.713,0,0,1-1.953.243,1.69,1.69,0,0,1-.383-.28c.523.023.758-.389,1-.808l1.787-3.145a.974.974,0,0,0,.044-.84,1.7,1.7,0,0,1,.965,2.31Zm2.7,2.2,1.57-3.041a1.714,1.714,0,0,0-.848-1.927,1.694,1.694,0,0,0-.258-.112.962.962,0,0,1,.04.655l-2.364,4.579a1.033,1.033,0,0,1-.688.4,1.706,1.706,0,0,0,2.549-.554Zm6.375-1.93a1.708,1.708,0,0,1,.892,2.4l-1.009,1.886a1.711,1.711,0,0,1-2.309.7l-.028-.015a.6.6,0,0,0,.339-.26l2.106-4.078A.793.793,0,0,0,233.664,367.044Zm-3.3,3.179a1.712,1.712,0,0,1-2.192.51,1.735,1.735,0,0,1-.16-.1,1.418,1.418,0,0,0,.7-.669l1.962-3.8a.708.708,0,0,0-.007-.712,1.7,1.7,0,0,1,1.112,2.041Z" transform="translate(-215.097 -347.637)" fill="#cca393" fill-rule="evenodd"/>
          <path id="Path_874995" data-name="Path 874995" d="M279.254,272.388l5.731,3.266a1.694,1.694,0,0,1,.687.733l3.234-1.349a.99.99,0,0,0,.541-1.27l-2.7-6.962a.989.989,0,0,0-1.389-.515l-1.934,1.035c-2.31,1.2-4.535-2.843-8.719.027a10.51,10.51,0,0,0-1.517,1.286,20.132,20.132,0,0,1-4.182,3.157.2.2,0,0,0-.056.293C272.269,276.359,276.308,270.709,279.254,272.388Z" transform="translate(-256.774 -262.07)" fill="#d6b4a8" fill-rule="evenodd"/>
          <path id="Path_874996" data-name="Path 874996" d="M287.815,317.418l1.286.733a1.694,1.694,0,0,1,.687.733l3.234-1.349a.99.99,0,0,0,.542-1.269l-.792-2.042a1.334,1.334,0,0,1-.782,1.493Zm-14.3-2.318c3.229,3.266,7.041-1.819,9.855-.215C278.913,311.866,277.254,315.844,273.515,315.1Z" transform="translate(-260.89 -304.567)" fill="#cca393" fill-rule="evenodd"/>
          <path id="Path_874997" data-name="Path 874997" d="M419.468,235.259l4.339,11.193a1.059,1.059,0,0,1-.6,1.366l-2.155.835a1.058,1.058,0,0,1-1.365-.6l-4.339-11.193a1.059,1.059,0,0,1,.6-1.365l2.155-.835A1.058,1.058,0,0,1,419.468,235.259Z" transform="translate(-387.54 -233.851)" fill="#d1d1d6" fill-rule="evenodd"/>
          <path id="Path_874998" data-name="Path 874998" d="M415.773,243.91a1.059,1.059,0,0,0-.427,1.278l4.339,11.193a1.058,1.058,0,0,0,1.365.6l.8-.31h0a1.058,1.058,0,0,1-1.365-.6Z" transform="translate(-387.541 -242.182)" fill="#b1b1b5" fill-rule="evenodd"/>
        </g>
        <g id="Group_1099693" data-name="Group 1099693" transform="translate(4.662 4.245)">
          <path id="Path_874999" data-name="Path 874999" d="M69.754,76.4a7.126,7.126,0,0,1,2.086.865l1.356-.6,1.6,1.6-.6,1.355a7.123,7.123,0,0,1,.865,2.087l1.383.532v2.26l-1.383.532a7.126,7.126,0,0,1-.865,2.086l.6,1.356-1.6,1.6-1.355-.6a7.123,7.123,0,0,1-2.087.865l-.532,1.383h-2.26l-.532-1.383a7.126,7.126,0,0,1-2.086-.865l-1.356.6-1.6-1.6.6-1.355a7.124,7.124,0,0,1-.865-2.087l-1.383-.532v-2.26l1.383-.532a7.125,7.125,0,0,1,.865-2.087l-.6-1.355,1.6-1.6,1.356.6a7.126,7.126,0,0,1,2.086-.865l.533-1.383h2.26Z" transform="translate(-59.743 -75.012)" fill="#ffe177" fill-rule="evenodd"/>
          <path id="Path_875000" data-name="Path 875000" d="M89.788,89.461l-1.356.6-.209-.209,1.271-.565Q89.639,89.379,89.788,89.461ZM95.2,76.4a7.126,7.126,0,0,1,2.086.865l-.385.171A9.4,9.4,0,0,0,94.52,76.4l-.532-1.383h.679Zm2.087,13.065a7.123,7.123,0,0,1-2.087.865l-.532,1.383h-.679l.532-1.383A9.393,9.393,0,0,0,96.9,89.29ZM88.223,76.867l.209-.209,1.356.6q-.149.082-.293.171Zm9.947,0,.47-.209,1.6,1.6-.6,1.355A7.123,7.123,0,0,1,100.5,81.7l1.383.532v2.26l-1.383.532a7.126,7.126,0,0,1-.865,2.086l.6,1.356-1.6,1.6-.47-.209,1.389-1.389-.6-1.356a7.126,7.126,0,0,0,.865-2.086l1.383-.532v-2.26L99.823,81.7a7.123,7.123,0,0,0-.865-2.087l.6-1.355Z" transform="translate(-85.188 -75.012)" fill="#ffd064" fill-rule="evenodd"/>
          <circle id="Ellipse_11531" data-name="Ellipse 11531" cx="3.941" cy="3.941" r="3.941" transform="translate(3.608 5.413) rotate(-13.3)" fill="#eceff1"/>
          <path id="Path_875001" data-name="Path 875001" d="M105.041,116.369a3.941,3.941,0,1,0,0,7.881q.158,0,.313-.012a3.941,3.941,0,0,1,0-7.856Q105.2,116.369,105.041,116.369Z" transform="translate(-96.692 -111.961)" fill="#d1d1d6" fill-rule="evenodd"/>
        </g>
      </g>
      <path id="Path_875002" data-name="Path 875002" d="M53.944,51.088a.718.718,0,1,0,.718.718A.719.719,0,0,0,53.944,51.088Zm5.2,10.372a.2.2,0,0,1,0,.154.2.2,0,0,1-.112.108l-2.154.836a.2.2,0,0,1-.262-.116L52.272,51.249a.2.2,0,0,1,.115-.262l2.155-.836a.194.194,0,0,1,.07-.013.224.224,0,0,1,.084.017.206.206,0,0,1,.108.112Zm-4.835-.241-2.754-7.1-.829.443c-1.3.676-2.541.168-3.637-.28-1.49-.609-2.9-1.184-5,.259a9.68,9.68,0,0,0-1.394,1.182A20.229,20.229,0,0,1,37.02,58.6c1.308,1.221,2.683.763,4.688-.048,1.537-.622,3.278-1.328,4.867-.423L52.3,61.395a2.519,2.519,0,0,1,.557.427ZM51.8,63.241a.794.794,0,0,1-.5,1.12.777.777,0,0,1-.6-.066h0c-1.148-.643-2.576-1.443-3.936-2.222a.853.853,0,1,0-.847,1.48c1.367.783,2.8,1.584,3.948,2.229h0a.816.816,0,0,1,.325,1.1.809.809,0,0,1-1.092.316l-5.184-2.916a.852.852,0,0,0-.836,1.486l4.234,2.395a.814.814,0,0,1,.324,1.1.8.8,0,0,1-.485.386.787.787,0,0,1-.6-.066L43.571,67.89a2.508,2.508,0,0,0-.739-.6,2.544,2.544,0,0,0-1.747-.245,2.562,2.562,0,0,0-2.922-1.564,2.557,2.557,0,0,0-2.6-1.608A2.556,2.556,0,0,0,31.6,62.37a2.081,2.081,0,0,0-1.227-1.519c-.085-.034-.329-.136-.967-.42l3.076-6.959,1.1.508a4.722,4.722,0,0,0,3.561.138A5.192,5.192,0,0,1,40.025,54c-.182.164-.364.337-.544.519a19.349,19.349,0,0,1-4.006,3.021,1.05,1.05,0,0,0-.3,1.552c2.331,3,5.13,1.866,7.174,1.039,1.347-.546,2.512-1.018,3.381-.522l5.731,3.267a.839.839,0,0,1,.342.364Zm-18.325.468a.856.856,0,0,0-1.156.351l-1.052,1.967a.858.858,0,0,0,.35,1.155.856.856,0,0,0,.893-.056l1.348-2.333a.866.866,0,0,0-.383-1.083Zm2.708,1.963a.857.857,0,0,0-.9.062L33.6,68.687a.855.855,0,0,0,.041.873l.016.022a.846.846,0,0,0,.294.261.861.861,0,0,0,1.159-.357l1.511-2.927a.865.865,0,0,0-.438-.888Zm2.922,1.564a.866.866,0,0,0-.975.119L36.7,70.128a.851.851,0,0,0,1.517.548l1.329-2.555a.862.862,0,0,0-.438-.886ZM42.028,68.8a.864.864,0,0,0-.975.121l-1.286,2.47a.864.864,0,0,0,.446.8.858.858,0,0,0,1.155-.35l1.008-1.886a.862.862,0,0,0-.068-.912A.838.838,0,0,0,42.028,68.8Zm2.082,1.356a2.513,2.513,0,0,1-.228.6l-.463.866.4.23a.745.745,0,0,0,.582.067.809.809,0,0,0,.176-1.49ZM31.878,50.623a.2.2,0,0,0,0-.154.2.2,0,0,0-.106-.113l-2.114-.935a.2.2,0,0,0-.079-.016.217.217,0,0,0-.076.014.2.2,0,0,0-.112.105L27.177,54.54l0,0-2.332,5.277,0,.006-.3.677a.206.206,0,0,0,0,.155.2.2,0,0,0,.106.113l2.114.935a.206.206,0,0,0,.267-.1ZM44.316,74.155a.1.1,0,0,1-.1.1H9.8a.1.1,0,0,1-.1-.1V28.981a.1.1,0,0,1,.1-.1H38.431v4.558a1.328,1.328,0,0,0,1.327,1.327h4.558V51.94a5.965,5.965,0,0,0-2.725.891,6.122,6.122,0,0,0-4.836-.373c-1.083.254-1.727.379-2.367.019a.479.479,0,0,0-.061-.031l-1.155-.533.266-.6a1.911,1.911,0,0,0-.974-2.517l-2.114-.934a1.911,1.911,0,0,0-2.516.974l-2,4.521H13.773a.853.853,0,1,0,0,1.705H25.082L23.5,58.639H13.773a.853.853,0,1,0,0,1.705h9.061a1.912,1.912,0,0,0,1.121,1.987l2.114.935a1.889,1.889,0,0,0,.769.163,1.912,1.912,0,0,0,1.748-1.137l.133-.3c.727.323.943.412,1.039.45.155.06.24.517.308.885.036.192.074.393.127.6H13.773a.853.853,0,1,0,0,1.705H29.592A2.556,2.556,0,0,0,31.8,68.977c0,.076,0,.15,0,.226H13.773a.853.853,0,1,0,0,1.705H32.554a2.556,2.556,0,0,0,2.8.536,2.551,2.551,0,0,0,2.977,1.135,2.56,2.56,0,0,0,4.235.518l.409.236a2.426,2.426,0,0,0,1.214.324c.044,0,.088,0,.131,0v.5ZM40.137,30.091v2.974H43.11ZM60.7,62.3a1.89,1.89,0,0,1-1.054,1.009l-2.155.836a1.908,1.908,0,0,1-2.468-1.089l-.1-.248-1.346.561a2.494,2.494,0,0,1-1.647,2.578,2.508,2.508,0,0,1-2.5,3.05,2.5,2.5,0,0,1-1.811,2.28,2.521,2.521,0,0,1-.931.088,2.5,2.5,0,0,1-.672,1.493v1.294a1.8,1.8,0,0,1-1.8,1.8H9.8a1.8,1.8,0,0,1-1.8-1.8V28.981a1.8,1.8,0,0,1,1.8-1.8H38.891a1.767,1.767,0,0,1,1.274.528l5.328,5.328a1.765,1.765,0,0,1,.529,1.274v17.8a11.993,11.993,0,0,1,1.712.595c1.026.42,1.635.643,2.2.351l1-.537-.25-.648A1.91,1.91,0,0,1,51.771,49.4l2.155-.836a1.912,1.912,0,0,1,2.468,1.089l4.339,11.193A1.893,1.893,0,0,1,60.7,62.3ZM30.215,50.385a.718.718,0,1,1-.751.684.718.718,0,0,1,.751-.684ZM18.773,40.627a3.088,3.088,0,1,0,3.088-3.088,3.092,3.092,0,0,0-3.088,3.088Zm-1.706,0a4.794,4.794,0,1,0,4.794-4.793A4.8,4.8,0,0,0,17.068,40.627Zm-2.7.545.837.322a.854.854,0,0,1,.523.6,6.24,6.24,0,0,0,.762,1.837.852.852,0,0,1,.053.793l-.364.82.77.77.82-.365a.854.854,0,0,1,.793.053,6.248,6.248,0,0,0,1.837.762.85.85,0,0,1,.6.523l.322.837h1.089l.322-.837a.854.854,0,0,1,.6-.523A6.272,6.272,0,0,0,25.164,46a.847.847,0,0,1,.793-.053l.82.363.77-.77-.364-.82a.852.852,0,0,1,.053-.793A6.284,6.284,0,0,0,28,42.092a.853.853,0,0,1,.523-.6l.837-.322V40.082l-.837-.322a.854.854,0,0,1-.523-.6,6.241,6.241,0,0,0-.762-1.838.851.851,0,0,1-.053-.793l.364-.821-.77-.77-.821.365a.855.855,0,0,1-.794-.053,6.265,6.265,0,0,0-1.837-.762.852.852,0,0,1-.6-.522l-.322-.838H21.317l-.322.838a.851.851,0,0,1-.6.522,6.274,6.274,0,0,0-1.837.762.853.853,0,0,1-.793.053l-.82-.365-.77.77.364.821a.851.851,0,0,1-.053.793,6.265,6.265,0,0,0-.762,1.838.854.854,0,0,1-.523.6l-.837.322v1.089Zm-1.159,1.381a.853.853,0,0,1-.546-.8V39.5a.85.85,0,0,1,.546-.795l.979-.377a7.974,7.974,0,0,1,.621-1.5l-.426-.959a.853.853,0,0,1,.176-.95l1.6-1.6a.851.851,0,0,1,.949-.176l.96.426a7.946,7.946,0,0,1,1.5-.621l.377-.978a.853.853,0,0,1,.8-.547h2.26a.853.853,0,0,1,.8.547l.377.978a7.933,7.933,0,0,1,1.5.621l.96-.426a.853.853,0,0,1,.949.176l1.6,1.6a.853.853,0,0,1,.176.95l-.425.959a7.911,7.911,0,0,1,.62,1.5l.979.377a.851.851,0,0,1,.546.795v2.26a.853.853,0,0,1-.546.8l-.979.376a7.939,7.939,0,0,1-.621,1.5l.426.96a.852.852,0,0,1-.176.949l-1.6,1.6a.853.853,0,0,1-.949.177l-.959-.426a7.957,7.957,0,0,1-1.5.62l-.377.978a.852.852,0,0,1-.8.547h-2.26a.853.853,0,0,1-.8-.547l-.377-.978a8.035,8.035,0,0,1-1.5-.62l-.959.426a.853.853,0,0,1-.949-.177l-1.6-1.6a.852.852,0,0,1-.176-.949l.426-.959a7.986,7.986,0,0,1-.621-1.5Zm20.974-3.337h6.065a.853.853,0,1,0,0-1.706H34.181a.853.853,0,1,0,0,1.706Zm0,5.282h6.065a.853.853,0,1,0,0-1.705H34.181a.853.853,0,1,0,0,1.705Zm-.853,4.43a.853.853,0,0,0,.853.853h6.065a.853.853,0,1,0,0-1.705H34.181a.853.853,0,0,0-.853.853Z" fill-rule="evenodd"/>
    </g>
  </g>
</svg>
