<svg xmlns="http://www.w3.org/2000/svg" xmlns:xlink="http://www.w3.org/1999/xlink" width="86" height="86" viewBox="0 0 86 86">
  <defs>
    <filter id="Ellipse_11497" x="0" y="0" width="86" height="86" filterUnits="userSpaceOnUse">
      <feOffset dy="3" input="SourceAlpha"/>
      <feGaussianBlur stdDeviation="3" result="blur"/>
      <feFlood flood-opacity="0.161"/>
      <feComposite operator="in" in2="blur"/>
      <feComposite in="SourceGraphic"/>
    </filter>
  </defs>
  <g id="Group_1099697" data-name="Group 1099697" transform="translate(-818 -1853)">
    <g transform="matrix(1, 0, 0, 1, 818, 1853)" filter="url(#Ellipse_11497)">
      <g id="Ellipse_11497-2" data-name="Ellipse 11497" transform="translate(9 6)" fill="#f5e9a1" stroke="#bcac89" stroke-width="2">
        <circle cx="34" cy="34" r="34" stroke="none"/>
        <circle cx="34" cy="34" r="33" fill="none"/>
      </g>
    </g>
    <g id="agreement_2838110" transform="translate(832.367 1862.287)">
      <path id="Path_875003" data-name="Path 875003" d="M92.55,55.461V11.5A4.594,4.594,0,0,0,87.969,6.92H55.25a4.6,4.6,0,0,0-4.533,3.926H82.952a4.594,4.594,0,0,1,4.581,4.58V62.106a4.529,4.529,0,0,1-.047.654h.483a4.594,4.594,0,0,0,4.581-4.581Z" transform="translate(-43.236 -6.09)" fill="#eceff1" fill-rule="evenodd"/>
      <path id="Path_875004" data-name="Path 875004" d="M50.387,87.634V90.9a4.594,4.594,0,0,1-4.581,4.58H13.088a4.594,4.594,0,0,1-4.58-4.58V44.225a4.594,4.594,0,0,1,4.58-4.58H45.807a4.594,4.594,0,0,1,4.581,4.58Z" transform="translate(-6.09 -34.889)" fill="#eceff1" fill-rule="evenodd"/>
      <path id="Path_875005" data-name="Path 875005" d="M219.285,46.033l5.3,3.571V39.645H213.514V49.681h.361Z" transform="translate(-186.501 -34.889)" fill="#ffb954" fill-rule="evenodd"/>
      <path id="Path_875006" data-name="Path 875006" d="M222.23,245.986l2.627.848a1.175,1.175,0,0,1,.755,1.474l-3.41,10.569a1.175,1.175,0,0,1-1.475.755l-2.627-.848a1.175,1.175,0,0,1-.755-1.475l3.41-10.569A1.175,1.175,0,0,1,222.23,245.986Z" transform="translate(-189.824 -216.425)" fill="#929ba0" fill-rule="evenodd"/>
      <g id="Group_1099696" data-name="Group 1099696" transform="translate(32.02 31.337)">
        <path id="Path_875007" data-name="Path 875007" d="M259.668,352.517a1.824,1.824,0,0,0-.725-2.391,1.771,1.771,0,0,0-2.39.724l-1.1,2.053a1.766,1.766,0,0,0,3.114,1.668" transform="translate(-255.251 -339.275)" fill="#f2c07e" fill-rule="evenodd"/>
        <path id="Path_875008" data-name="Path 875008" d="M277.5,368.68l-1.5,2.8a1.766,1.766,0,1,0,3.115,1.666l1.495-2.8a1.766,1.766,0,1,0-3.115-1.666Z" transform="translate(-273.335 -354.965)" fill="#f2c07e" fill-rule="evenodd"/>
        <path id="Path_875009" data-name="Path 875009" d="M305.357,386.286l-.966,1.805a1.766,1.766,0,1,0,3.115,1.666l.966-1.805a1.766,1.766,0,1,0-3.115-1.666Z" transform="translate(-298.318 -370.459)" fill="#f2c07e" fill-rule="evenodd"/>
        <path id="Path_875010" data-name="Path 875010" d="M331.368,407.048l-.428.8c-.924,1.728,1.835,4.06,3.115,1.666l.312-.584c.619-1.157.767-2.014-.549-2.718A1.884,1.884,0,0,0,331.368,407.048Z" transform="translate(-321.696 -388.652)" fill="#f2c07e" fill-rule="evenodd"/>
        <path id="Path_875011" data-name="Path 875011" d="M270.125,276.3a1.771,1.771,0,0,1,.724,2.391l-.483.9a1.884,1.884,0,0,1,2.45-.836c1.316.7,1.168,1.561.549,2.718a8.3,8.3,0,0,1,.8.4,1.518,1.518,0,0,0,1.393-2.694,2.41,2.41,0,0,0-.24-.146l.69.369a1.827,1.827,0,0,0,1.723-3.221l1.434.767a1.847,1.847,0,0,0,1.868-3.183q-.061-.039-.126-.074l1.363.729c1.795.96,2.768-1.109,2.1-2.484a1.922,1.922,0,0,0-.123-.216c-.952-1.447-5.131-3.144-6.747-4.08-2.663-2.107-6.5,3.341-9.494-.683.292-.711,1.736-2,3.024-3.306a11.128,11.128,0,0,1,1.564-1.333l.054-.037c-3.425-2.311-5.5-.108-8.137-.655l-1.246,3.841-1.641,5.087a5.446,5.446,0,0,0,.019,2.886l.355-.664a1.771,1.771,0,0,1,2.391-.725,1.824,1.824,0,0,1,.725,2.391l-.253.473a1.766,1.766,0,1,1,3.115,1.666l-.239.446a1.772,1.772,0,0,1,2.391-.724Z" transform="translate(-260.694 -261.202)" fill="#f2c07e" fill-rule="evenodd"/>
        <path id="Path_875012" data-name="Path 875012" d="M325.678,267.739c1.616.936,5.794,2.633,6.747,4.08a1.921,1.921,0,0,1,.123.216s.921-.331,1.031-.37l-3.46-9.315c-2.273,1.584-4.826-3.014-9.294.029a11.044,11.044,0,0,0-1.618,1.371c-1.288,1.3-2.732,2.6-3.024,3.306C319.176,271.08,323.015,265.632,325.678,267.739Z" transform="translate(-308.874 -261.299)" fill="#f2c07e" fill-rule="evenodd"/>
      </g>
      <path id="Path_875013" data-name="Path 875013" d="M438.2,257.264l-2.588.961a1.175,1.175,0,0,1-1.506-.69l-3.867-10.41a1.175,1.175,0,0,1,.69-1.506l2.588-.961a1.175,1.175,0,0,1,1.506.69l3.867,10.41A1.175,1.175,0,0,1,438.2,257.264Z" transform="translate(-377.164 -215.24)" fill="#929ba0" fill-rule="evenodd"/>
      <path id="Path_875014" data-name="Path 875014" d="M10.094,22.176a.83.83,0,0,1,.83-.83H35.79a.83.83,0,0,1,0,1.66H10.924a.83.83,0,0,1-.83-.83Zm13.578,6.17H10.924a.83.83,0,0,0,0,1.66H23.673a.83.83,0,1,0,0-1.66Zm0,7H10.924a.83.83,0,0,0,0,1.66H23.673a.83.83,0,1,0,0-1.66Zm0,7H10.924a.83.83,0,0,0,0,1.66H23.673a.83.83,0,1,0,0-1.66Zm38.776-.588a1.989,1.989,0,0,0,.059-1.53l-3.867-10.41a2,2,0,0,0-2.573-1.18L53.48,29.6a1.99,1.99,0,0,0-1.253,2.295,4.7,4.7,0,0,1-1.757-.516l-.325-.136V5.411A5.417,5.417,0,0,0,44.734,0H12.015a5.441,5.441,0,0,0-5.2,3.935,5.413,5.413,0,0,0-5.228,5.4V56.016A5.417,5.417,0,0,0,7,61.427H39.716a5.417,5.417,0,0,0,5.2-3.935,5.414,5.414,0,0,0,5.227-5.4v-2.37a2.55,2.55,0,0,0,.7-1.635,2.677,2.677,0,0,0,3.187-2.492,2.084,2.084,0,0,0,2-.658,2.763,2.763,0,0,0,.67-1.57,1.975,1.975,0,0,0,2.032.4l2.588-.961a1.989,1.989,0,0,0,1.121-1.043ZM49.829,32.91a6.338,6.338,0,0,0,2.368.649,2.724,2.724,0,0,0,.591-.071l2.6,7a25.406,25.406,0,0,0-4.416-2.537c-.651-.322-1.266-.625-1.684-.864-1.521-1.158-3.237-.511-4.755.06-1.863.7-3.045,1.061-4.18-.122.384-.477,1.1-1.177,1.7-1.768.3-.29.6-.588.893-.886A10.4,10.4,0,0,1,44.4,33.131c2.248-1.552,3.865-.875,5.428-.221ZM8.574,3.926H39.716a5.417,5.417,0,0,1,5.411,5.411V30.881a5.672,5.672,0,0,1,3.357-.194V5.411a3.755,3.755,0,0,0-3.75-3.75H12.015A3.774,3.774,0,0,0,8.574,3.926Zm19.269,9.549V5.586h9.409v7.569l-4-2.7a.83.83,0,0,0-.928,0ZM43.467,56.016V53.985a2.2,2.2,0,0,1-.524.067,2.468,2.468,0,0,1-1.16-.3,3,3,0,0,1-1.328-1.483l-.051.016a2.58,2.58,0,0,1-1.977-.194,2.426,2.426,0,0,1-1.067-1.068,2.624,2.624,0,0,1-.362.139,2.579,2.579,0,0,1-1.977-.193,2.48,2.48,0,0,1-1.24-1.486,2.676,2.676,0,0,1-.111-1.091,2.585,2.585,0,0,1-1.114-.3,2.478,2.478,0,0,1-1.24-1.485,2.631,2.631,0,0,1,.175-2.029l.3-.558A1.9,1.9,0,0,1,30.649,44l-2.627-.847a2,2,0,0,1-1.29-2.519l3.41-10.569a2,2,0,0,1,2.52-1.29l2.628.847a2,2,0,0,1,1.317,1.4,8.315,8.315,0,0,0,1.894-.233,7.013,7.013,0,0,1,4.967.378V9.337a3.755,3.755,0,0,0-3.75-3.75h-.8v9.13a.83.83,0,0,1-1.294.688l-4.833-3.258L27.838,15.48a.832.832,0,0,1-.464.142h-.361a.83.83,0,0,1-.83-.83V5.586H7a3.755,3.755,0,0,0-3.75,3.75V56.016A3.755,3.755,0,0,0,7,59.766H39.716a3.754,3.754,0,0,0,3.75-3.75Zm2.456-6.272L46.4,50a.746.746,0,0,1,.318,1.009.588.588,0,0,1-.849.264l-.084-.044a2.586,2.586,0,0,0,.138-1.486Zm-.821,3h-.085l.02-.034Zm-2.676-2.623a1.137,1.137,0,0,1,.62-.518.887.887,0,0,1,.705.025c.627.336.8.494.209,1.6v0l-.311.582c-.441.823-.924.566-1.081.48A1.11,1.11,0,0,1,42,50.924l.428-.8Zm-1.367-2.951a.938.938,0,0,1,.384,1.268l-.483.9h0l0,0-.423.791,0,0-.056.1a.931.931,0,0,1-.555.452.945.945,0,0,1-.733-.079.859.859,0,0,1-.42-.514.964.964,0,0,1,.057-.742h0l.964-1.8,0,0a.939.939,0,0,1,1.267-.385Zm-2.424-1.557a.927.927,0,0,1-.069.713l-.238.446v0l-.963,1.8v0l-.291.543a.944.944,0,0,1-1.288.374.858.858,0,0,1-.42-.515.964.964,0,0,1,.057-.742l.648-1.213.845-1.58v0a.934.934,0,0,1,1.719.171ZM35.279,42.9c.806.575.519,1.11.425,1.288l-.253.472h0l-.844,1.577,0,0a.942.942,0,0,1-1.286.373A.859.859,0,0,1,32.9,46.1a.964.964,0,0,1,.057-.742l.743-1.389h0l.355-.664a.943.943,0,0,1,1.227-.4ZM35,31.628l-2.722,8.439a.752.752,0,0,0-.032.072c-.024.073-.042.148-.063.222L31.589,42.2a.343.343,0,0,1-.43.219l-2.627-.847a.346.346,0,0,1-.22-.43l3.41-10.569a.34.34,0,0,1,.17-.2.349.349,0,0,1,.158-.039.326.326,0,0,1,.1.016l2.627.847a.346.346,0,0,1,.22.429ZM48.484,52.089a3.756,3.756,0,0,1-3.357,3.73V52.758a2.366,2.366,0,0,0,1.067.261,2.241,2.241,0,0,0,1.994-1.238,2.43,2.43,0,0,0,.278-1.21l.018,0v1.522Zm6.394-9.775a1.348,1.348,0,0,1-.066,1.5c-.076.084-.279.3-.826.011L52.624,43.1c-.013-.007-.027-.011-.041-.017L48.2,40.7a.83.83,0,1,0-.792,1.459l4.482,2.432a1.015,1.015,0,0,1-1,1.763l-1.352-.723a.841.841,0,0,0-.077-.052L46.19,43.834a.83.83,0,1,0-.782,1.463L48.588,47a.837.837,0,0,0,.078.053h0a1,1,0,0,1-.943,1.757l-.687-.368h0a.834.834,0,0,0-.139-.058L44.143,46.9a.829.829,0,0,0-1.071.26,2.582,2.582,0,0,0-2.777-1.74,2.621,2.621,0,0,0-.07-.29,2.59,2.59,0,0,0-2.778-1.826,2.858,2.858,0,0,0-1.234-1.781.794.794,0,0,0-.108-.069,2.57,2.57,0,0,0-1.977-.193,2.63,2.63,0,0,0-.49.2,4.762,4.762,0,0,1,.136-.63l2.635-8.167a9.279,9.279,0,0,0,2.417-.255,5.611,5.611,0,0,1,3.652.117q-.356.313-.711.671c-.289.292-.587.584-.876.869a10.708,10.708,0,0,0-2.325,2.706.832.832,0,0,0,.1.811c2.056,2.764,4.6,1.809,6.454,1.111,1.484-.56,2.432-.872,3.191-.272a.9.9,0,0,0,.1.067c.465.27,1.1.582,1.828.943,1.622.8,4.073,2.012,4.641,2.876Zm6.073-1.508a.342.342,0,0,1-.011.26.338.338,0,0,1-.191.178l-2.587.961A.347.347,0,0,1,57.9,42.2.339.339,0,0,1,57.723,42l-3.867-10.41a.344.344,0,0,1,.2-.439l2.588-.961a.33.33,0,0,1,.116-.021.35.35,0,0,1,.144.032.339.339,0,0,1,.178.19Z" fill-rule="evenodd"/>
    </g>
  </g>
</svg>
