<svg xmlns="http://www.w3.org/2000/svg" xmlns:xlink="http://www.w3.org/1999/xlink" width="86" height="86" viewBox="0 0 86 86">
  <defs>
    <filter id="Ellipse_11495" x="0" y="0" width="86" height="86" filterUnits="userSpaceOnUse">
      <feOffset dy="3" input="SourceAlpha"/>
      <feGaussianBlur stdDeviation="3" result="blur"/>
      <feFlood flood-opacity="0.161"/>
      <feComposite operator="in" in2="blur"/>
      <feComposite in="SourceGraphic"/>
    </filter>
  </defs>
  <g id="Group_1099689" data-name="Group 1099689" transform="translate(-187 -1853)">
    <g transform="matrix(1, 0, 0, 1, 187, 1853)" filter="url(#Ellipse_11495)">
      <g id="Ellipse_11495-2" data-name="Ellipse 11495" transform="translate(9 6)" fill="#f5e9a1" stroke="#bcac89" stroke-width="2">
        <circle cx="34" cy="34" r="34" stroke="none"/>
        <circle cx="34" cy="34" r="33" fill="none"/>
      </g>
    </g>
    <g id="attorney_10165211" transform="translate(165.622 1834.875)">
      <path id="Path_874978" data-name="Path 874978" d="M116.193,399.105h9.928a1.373,1.373,0,0,1,1.369,1.369v3.766a1.373,1.373,0,0,1-1.369,1.369h-9.928a1.373,1.373,0,0,1-1.369-1.369v-3.766A1.373,1.373,0,0,1,116.193,399.105Z" transform="translate(-65.23 -324.672)" fill="#685e68" fill-rule="evenodd"/>
      <path id="Path_874979" data-name="Path 874979" d="M280.661,399.105h-9.928a1.373,1.373,0,0,0-1.369,1.369v3.766a1.373,1.373,0,0,0,1.369,1.369h9.928a1.373,1.373,0,0,0,1.369-1.369v-3.766A1.373,1.373,0,0,0,280.661,399.105Z" transform="translate(-202.868 -324.672)" fill="#685e68" fill-rule="evenodd"/>
      <path id="Path_874980" data-name="Path 874980" d="M128.583,156.689a4.775,4.775,0,1,1-9.549,0Zm9.549,0a4.775,4.775,0,1,0,9.549,0Z" transform="translate(-68.98 -108.769)" fill="#ccc" fill-rule="evenodd"/>
      <path id="Path_874981" data-name="Path 874981" d="M70,196.675l-3.1-8.359-5.88-4.693a1.793,1.793,0,0,0-2.5.267l-.023.029a1.793,1.793,0,0,0,.293,2.5L63,189.774a.474.474,0,1,1-.59.742l-4.188-3.342a.475.475,0,0,1-.048-.039,2.742,2.742,0,0,1-.545-3.634l-2.356-10.9a.764.764,0,0,0-.26-.442,1.283,1.283,0,0,0-.763-.341,1.024,1.024,0,0,0-.483.092,1.279,1.279,0,0,0-.436.332,2.125,2.125,0,0,0-.469,1.285c0,.025,0,.041,0,.048h0v.048l.842,14.572a.769.769,0,0,0,.311.593l6.185,4.827a1.7,1.7,0,0,1,.559.752l.893,2.309Z" transform="translate(-10.043 -122.242)" fill="#f0b16e" fill-rule="evenodd"/>
      <path id="Path_874982" data-name="Path 874982" d="M293.5,188.316l-3.1,8.359h8.349l.893-2.309a1.7,1.7,0,0,1,.559-.752l6.185-4.827a.769.769,0,0,0,.311-.593l.842-14.572v-.048h0c0-.007,0-.022,0-.048a2.124,2.124,0,0,0-.469-1.285,1.28,1.28,0,0,0-.436-.332,1.027,1.027,0,0,0-.483-.092,1.284,1.284,0,0,0-.763.341.764.764,0,0,0-.26.442l-2.356,10.9a2.742,2.742,0,0,1-.545,3.634.494.494,0,0,1-.048.039l-4.188,3.342a.474.474,0,0,1-.59-.742l4.21-3.361a1.794,1.794,0,0,0,.293-2.5l-.023-.029a1.793,1.793,0,0,0-2.5-.267Z" transform="translate(-221.601 -122.242)" fill="#f0b16e" fill-rule="evenodd"/>
      <path id="Path_874983" data-name="Path 874983" d="M115.146,153.226a5.2,5.2,0,0,0,10.4,0,.425.425,0,0,0-.425-.425h-9.549A.425.425,0,0,0,115.146,153.226Zm19.1,0a5.2,5.2,0,0,0,10.4,0,.425.425,0,0,0-.425-.425H134.67A.425.425,0,0,0,134.244,153.226Z" transform="translate(-65.517 -105.306)" fill="#4187b5" fill-rule="evenodd"/>
      <path id="Path_874984" data-name="Path 874984" d="M54.829,37.466,58.5,47.151H51.156ZM77.6,47.151H70.254l3.673-9.685Zm-3.673,4.774a4.022,4.022,0,0,1-3.942-3.254H77.87A4.022,4.022,0,0,1,73.928,51.925Zm-19.1,0a4.022,4.022,0,0,1-3.942-3.254h7.885A4.022,4.022,0,0,1,54.829,51.925Zm0,1.52a5.541,5.541,0,0,0,5.535-5.534.763.763,0,0,0-.05-.27h0L55.93,36.083h7.688V58.055h-3a.76.76,0,0,0,0,1.521h7.52a.76.76,0,0,0,0-1.521h-3V36.083h7.688L68.442,47.641h0a.763.763,0,0,0-.05.27,5.535,5.535,0,0,0,11.069,0,.763.763,0,0,0-.05-.27h0L74.638,35.053a.761.761,0,0,0-.711-.49h-19.1a.761.761,0,0,0-.711.49L49.344,47.641h0a.763.763,0,0,0-.05.27,5.541,5.541,0,0,0,5.535,5.534ZM61.5,79.559a.61.61,0,0,1-.609.609H50.963a.61.61,0,0,1-.609-.609V75.793a.61.61,0,0,1,.609-.609h9.928a.61.61,0,0,1,.609.609ZM44.149,66.31l6.185,4.826a1.988,1.988,0,0,1,.65.875l.64,1.652h7.75L56.618,66.24,50.8,61.594a1.5,1.5,0,1,0-1.872,2.345l4.21,3.361a.76.76,0,0,1-.948,1.188l-4.21-3.361a3.03,3.03,0,0,1-.7-3.933L44.951,50.41a.476.476,0,0,0-.169-.286c-.795-.691-1.612.023-1.677,1.169a.45.45,0,0,0,0,.06l.842,14.573A.489.489,0,0,0,44.149,66.31ZM61,73.666,57.97,65.512a.768.768,0,0,0-.238-.33l-5.985-4.777a3.024,3.024,0,0,0-3.16-.376l-2.149-9.941a2,2,0,0,0-.658-1.112c-1.7-1.476-4.048-.292-4.191,2.229a1.967,1.967,0,0,0,0,.235l.842,14.572a2,2,0,0,0,.784,1.5L49.4,72.335a.474.474,0,0,1,.167.225l.5,1.3a2.13,2.13,0,0,0-1.236,1.931v3.766a2.131,2.131,0,0,0,2.129,2.129h9.928a2.131,2.131,0,0,0,2.13-2.129V75.793A2.133,2.133,0,0,0,61,73.666ZM85.652,51.353a.45.45,0,0,0,0-.059c-.066-1.154-.886-1.858-1.677-1.17a.477.477,0,0,0-.169.286L81.474,61.195a3.03,3.03,0,0,1-.7,3.933l-4.21,3.361a.76.76,0,0,1-.948-1.188l4.21-3.361a1.5,1.5,0,1,0-1.872-2.345l-5.82,4.646-2.756,7.424h7.75l.639-1.652a1.989,1.989,0,0,1,.65-.875l6.186-4.826a.49.49,0,0,0,.2-.385ZM78.4,79.559a.61.61,0,0,1-.609.609H67.865a.61.61,0,0,1-.609-.609V75.793a.61.61,0,0,1,.609-.609h9.928a.61.61,0,0,1,.609.609Zm8.767-28.354c-.144-2.523-2.494-3.7-4.191-2.229a2,2,0,0,0-.658,1.112l-2.149,9.94a3.026,3.026,0,0,0-3.16.377l-5.985,4.777a.766.766,0,0,0-.238.33L67.76,73.666a2.132,2.132,0,0,0-2.024,2.126v3.766a2.131,2.131,0,0,0,2.129,2.129h9.928a2.131,2.131,0,0,0,2.129-2.129V75.792a2.13,2.13,0,0,0-1.236-1.931l.5-1.3a.476.476,0,0,1,.167-.225l6.186-4.827a1.994,1.994,0,0,0,.784-1.5l.842-14.572A1.967,1.967,0,0,0,87.169,51.205Z" fill-rule="evenodd"/>
    </g>
  </g>
</svg>
