<svg xmlns="http://www.w3.org/2000/svg" xmlns:xlink="http://www.w3.org/1999/xlink" width="1240" height="930" viewBox="0 0 1240 930">
  <defs>
    <clipPath id="clip-path">
      <rect id="Rectangle_404964" data-name="Rectangle 404964" width="1240" height="930" transform="translate(0)" fill="none"/>
    </clipPath>
  </defs>
  <g id="Group_1143709" data-name="Group 1143709" transform="translate(-180.445 -433)">
    <g id="Group_1143285" data-name="Group 1143285" transform="translate(0 10)">
      <rect id="Rectangle_404791" data-name="Rectangle 404791" width="1240" height="930" transform="translate(180.445 423)" fill="#fdfbed"/>
      <g id="_6153592" data-name="6153592" transform="translate(130.016 370.35)" opacity="0.28">
        <g id="OBJECTS" transform="translate(50.43 52.65)">
          <g id="Group_1143284" data-name="Group 1143284" transform="translate(0 0)" clip-path="url(#clip-path)">
            <g id="Group_1143267" data-name="Group 1143267" transform="translate(-79.232 -97.979)">
              <path id="Path_903934" data-name="Path 903934" d="M839.635,67.514C815.588,131.768,783.376,204.1,723,219.637c-32.179,8.281-65.465-2.066-98.074-7.834s-69.514-5.582-94.272,18.98c-15.3,15.184-23.4,37.272-32.063,58.077-19.734,47.414-55.135,98.047-101.362,92.3-30.1-3.74-56.044-31.6-86.256-29.122-36.625,3-57.449,46.614-76.39,82.044-21.9,40.994-50.789,78.583-88.355,100.932s-84.7,27.5-122.485,5.62C2.854,375.407,5.515,206.388,2.49,39.527,185.663,41.276,369.828,26.538,552.472,10.87,638.051,3.539,724.506-7.589,809.275,7.5c14.577,2.605,30.51,7,38.939,20.637s6.181,40.213-8.561,39.357Z" transform="translate(-2.49 0.003)" fill="#f0c884"/>
              <path id="Path_903935" data-name="Path 903935" d="M1006.223,59.72c-.479-6.532-1.124-13.547-4.942-18.515-4.115-5.359-10.809-6.922-17.007-8.132C849.841,7.207,718.7,25.815,585.783,60.222,578.99,109.162,571.6,188.564,599.236,227.1c22.676,31.616,60.656,41.794,94.008,57.314s68.027,46.018,65.878,86.566c-.992,18.757-9.916,35.654-14.842,53.611-9.982,36.454-.512,76.536,20.2,105.9,20.742,29.438,57.615,32.639,74.853,64.72,20.13,37.459-1.834,86.1,5.074,129.179,3.372,21.046,14.048,40.51,29.237,53.35,16.428,13.882,37.038,19.688,55.317,30.239,22.725,13.1,41.913,33.83,54.491,58.84.364.707,21.006-63.845,22.213-70.116,6.38-33.011,11.817-65.818,14.941-99.461,19.5-209.883.826-427.936-14.4-637.521Z" transform="translate(374.145 18.051)" fill="#9cc8c8"/>
              <path id="Path_903936" data-name="Path 903936" d="M37.442,540.827c24.328-90.213,127.426-140.716,202.642-99.257,26.427,14.57,48.194,37.7,71.993,57.165,43.236,35.356,97.71,59.3,149.97,46.725,50.359-12.114,89.446-55.025,130.649-89.822,41.186-34.8,94.834-63.64,142.83-42.594,50.541,22.181,71.035,85.1,114.634,117.251,59.912,44.195,128.666,2.252,194.015,6.271,99.611,6.122,191.486,90.753,216.575,199.444-93.677,6.308-183.834,36.77-276.768,39.6-100.668,3.07-201.386-.279-301.972-5.21-201.188-9.862-402.74-26.61-604.126-12.97-13.057.893-28.824.409-35.633-12.17-2.4-4.429-3.19-9.7-3.934-14.812Q27.063,653.017,15.791,575.588c-5.6-38.575-7.685-13.9,21.667-34.8Z" transform="translate(3.975 349.42)" fill="#e79aa9"/>
            </g>
            <g id="Group_1143273" data-name="Group 1143273" transform="translate(14.792 56.397)">
              <g id="Group_1143268" data-name="Group 1143268" transform="translate(173.818 233.447)">
                <path id="Path_903937" data-name="Path 903937" d="M174.9,260.714a14.618,14.618,0,0,1-7.008-1.358c-1.355-.577-1.636-2.177-2.116-3.48-.2-.558-.033-1.358-.43-1.935-1.223-1.786-.793-3.759-.3-5.582.727-2.773,1.636-5.527,3.57-7.592,2.958-3.163,6.264-5.843,10.429-6.141a6.57,6.57,0,0,1,5.471,2.847,19.83,19.83,0,0,1,1.7,2.7,5.615,5.615,0,0,1,.661,3.926c-.545,2.828-.694,5.713-1.587,8.485a11.232,11.232,0,0,1-3.206,5.378c-1.835,1.507-3.867,2.754-6.264,2.754h-.942Z" transform="translate(-164.549 -185.854)" fill="#f0c884"/>
                <path id="Path_903938" data-name="Path 903938" d="M187.934,220.337a13.579,13.579,0,0,1-1.62,7.574c-1.19,2.4-2.082,4.968-3.9,7a14.784,14.784,0,0,1-4.628,3.2c-1.587.819-3.107-.484-4.644-.019-1.934-1.786-4.644-2.475-5.9-5.229-.331-.744-.76-1.433-1.074-2.177a5.367,5.367,0,0,1,.2-5.378c1.339-2.289,2.562-4.671,3.967-6.96,2.165-3.517,5.223-5.341,8.644-6.662a3.454,3.454,0,0,1,2.909.019c2.182,1.191,4.562,2.159,5.52,5.1.38,1.172,1.091,2.233.529,3.517Z" transform="translate(-163.902 -205.862)" fill="#f0c884"/>
                <path id="Path_903939" data-name="Path 903939" d="M209,219.109c.231,5.378-1.62,9.546-5.685,12.468a3.91,3.91,0,0,1-1.653.819,13.752,13.752,0,0,1-8.908-2.01c-.628-.372-1.454-1-1.587-1.675-.595-2.94-2.578-5.415-2.281-8.616a10.24,10.24,0,0,1,.4-2.01c.231-.782.6-1.526.859-2.307.38-1.172.711-2.363,1.058-3.554,1.669-.372,2.479-2.1,3.785-3.052,1.57-1.135,3.322-.67,4.975-.651,1.554,0,3.107.744,4.661,1.042a3.942,3.942,0,0,1,2.991,2.735,14.737,14.737,0,0,1,1.4,6.811Z" transform="translate(-148.686 -208.411)" fill="#f0c884"/>
              </g>
              <g id="Group_1143269" data-name="Group 1143269" transform="translate(528.471 615.007)">
                <path id="Path_903940" data-name="Path 903940" d="M404.09,453.883c-.645-.037-1.388-.13-2.116-.112a3.839,3.839,0,0,1-2.942-1.451c-2.5-2.512-3.388-5.9-4.148-9.36a4.33,4.33,0,0,1,.4-2.828c1.554-3.126,3.041-6.308,4.727-9.36,1.818-3.294,4.826-4.652,8.032-5.248,2.859-.54,5.289.856,7.371,3.015a7.247,7.247,0,0,1,1.653,2.717c.545,1.563.81,3.2,1.24,4.782.793,2.921.711,5.489-1.636,7.462-.694.577-.2,1.693-.859,2.159-.612.428-1.388.577-1.95,1.061a10.983,10.983,0,0,0-1.421,1.879,14.748,14.748,0,0,1-2.116,2.866c-.826.689-2.066.67-2.578,1.991-.1.242-.612.391-.959.409-.859.056-1.719.019-2.677.019Z" transform="translate(-368.91 -403.172)" fill="#f0c884"/>
                <path id="Path_903941" data-name="Path 903941" d="M444.332,424.31c.1,2.2.463,4.429-1.19,6.252-.248.279.033,1.1-.132,1.582-.562,1.656-1.008,3.368-2.578,4.354a8.215,8.215,0,0,0-2.942,3.07,2.79,2.79,0,0,1-2.049,1.6c-3.537.558-7.024.558-10.23-1.638a2.791,2.791,0,0,1-1.074-1.079,24.725,24.725,0,0,1-1.983-6.606,4.793,4.793,0,0,1,.859-3.852c.975-1.1,1.273-2.661,1.752-4.075a26.532,26.532,0,0,1,3.14-6.048c1.9-2.922,4.71-3.666,7.57-4.354a1.249,1.249,0,0,1,1.074.13c1.206,1.154,2.793,1,4.148,1.619a5.684,5.684,0,0,1,3.471,5.341c.066,1.247.1,2.493.149,3.74Z" transform="translate(-351.092 -413.458)" fill="#f0c884"/>
                <path id="Path_903942" data-name="Path 903942" d="M418.575,469.906a12.958,12.958,0,0,1-9.536-1.526c-2.116-1.228-2.909-3.666-3.19-6.215a25.739,25.739,0,0,1,.512-6.569,4.329,4.329,0,0,1,.843-1.8A40.708,40.708,0,0,1,414,446.2c1.521-1.247,3.074-2.214,5.09-1.3a8.255,8.255,0,0,0,2.562.3,6.6,6.6,0,0,1,5.685,4.5,6.761,6.761,0,0,0,.578,1.489,3.427,3.427,0,0,1,.463,3.833,1.865,1.865,0,0,0-.165.8c.066,4.41-2.082,7.667-4.71,10.439a12.852,12.852,0,0,1-4.958,3.666Z" transform="translate(-361.744 -386.705)" fill="#f0c884"/>
                <path id="Path_903943" data-name="Path 903943" d="M429.661,449.416a14.221,14.221,0,0,1,3.934-10.979c.264-.279.562-.54.826-.837,2.281-2.735,4.843-4.317,8.2-2.456,2.512-.409,3.553,1.265,4.776,3.48a14.289,14.289,0,0,1,2.016,7.815c-.1,1.768-.859,3.48-.975,5.229a9.389,9.389,0,0,1-1.4,4.187c-.479.837-.81,1.228-1.7.651-.512-.335-.512.335-.545.726a1.933,1.933,0,0,1-1.421,2.028c-1.768.614-3.454,1.47-5.338,1.563a6.77,6.77,0,0,1-3.223-.633c-3.239-1.451-4.743-4.206-5.124-7.89a28.356,28.356,0,0,1,0-2.9Z" transform="translate(-346.172 -395.486)" fill="#f0c884"/>
                <path id="Path_903944" data-name="Path 903944" d="M449.3,459.2c.066-.577.132-.986.149-1.4.066-2.512.066-5.1,1.868-6.941,2.38-2.456,5.041-4.578,8.412-4.652a7.917,7.917,0,0,1,6.016,2.7c3.058,3.517,4.595,7.108,2.38,13.193-1.223,3.35-3.471,5.694-5.5,8.225a3.994,3.994,0,0,1-4.5,1.061,32.118,32.118,0,0,1-4.545-1.675c-2.81-1.544-3.967-4.392-4.248-7.76-.083-.968,0-1.935,0-2.754Z" transform="translate(-333.336 -385.265)" fill="#f0c884"/>
                <path id="Path_903945" data-name="Path 903945" d="M457.832,449.083c-1.4.651-2.826-.484-4.2-1.731-.678-.614-1.256-1.34-1.917-1.954a7.09,7.09,0,0,1-2.248-7.369c.314-1.172-.711-2.14-.165-3.219a6.661,6.661,0,0,0,.992-3.089,4.326,4.326,0,0,1,2.43-3.889,30.536,30.536,0,0,1,5.09-2.456c4.776-1.693,9.553,1.6,11.255,7.239a11.372,11.372,0,0,1-.479,7.648c-.446,1.135-1.041,2.177-1.554,3.294-.5,1.1-.711,2.605-1.851,3-1.653.577-2.81,2.27-4.628,2.345-.744.019-1.471.112-2.727.223Z" transform="translate(-333.438 -403.583)" fill="#f0c884"/>
                <path id="Path_903946" data-name="Path 903946" d="M388.068,468.785c-1.025-.149-2.727-.354-4.413-.633-2.049-.354-3.289-1.656-3.586-4.019a4,4,0,0,0-.281-1.191c-1.256-3.015-.545-5.88.81-8.5,1.62-3.163,3.636-5.955,7.305-6.234a16.253,16.253,0,0,0,4-.67c2.793-.912,4.909.67,7.074,2.121a5.021,5.021,0,0,1,1.934,3.368c1.289,5.917-1.14,10.123-4.925,13.64C393.853,468.636,392.25,468.953,388.068,468.785Z" transform="translate(-379.134 -384.356)" fill="#f0c884"/>
              </g>
              <g id="Group_1143270" data-name="Group 1143270" transform="translate(1064.394 259.187)">
                <path id="Path_903947" data-name="Path 903947" d="M724.173,286.078c-2.3-1.117-3.173-3.275-3.52-5.862a9.666,9.666,0,0,0-.1-1.228c-1.273-4.559,1.025-7.685,3.438-10.7.892-1.116,2.578-.8,3.421-2.14,1.587.279,2.81-.856,4.2-1.321a9.221,9.221,0,0,1,9.04,1.8,9.392,9.392,0,0,1,3.586,6.922,11.149,11.149,0,0,1-2.777,7.89,46.622,46.622,0,0,1-6.76,5.676c-2.182,1.489-4.694,1.377-7.123.484-1.173-.428-2.281-1.023-3.421-1.544Z" transform="translate(-692.437 -186.008)" fill="#f6ecd8"/>
                <path id="Path_903948" data-name="Path 903948" d="M725.047,240.54a8.644,8.644,0,0,1,5.024-4.708,19.881,19.881,0,0,1,11.536-1.433c4.231.744,5.867,4.5,4.528,9.267A11.663,11.663,0,0,1,744.714,247a39.3,39.3,0,0,0-3.339,5.955,11.907,11.907,0,0,1-3.438,4.168c-.859.707-2.033,1.507-3.4.447-.595-.465-1.669-.2-2.512-.186-3.636.112-7.57-4.224-8.165-8.113a17.055,17.055,0,0,1,1.173-8.746Z" transform="translate(-690.154 -212.038)" fill="#f6ecd8"/>
                <path id="Path_903949" data-name="Path 903949" d="M764.36,269.216c-.331,1.805-2.248,2.717-3.223,4.466a1.963,1.963,0,0,1-1.256.8c-3.124.614-6.165,1.842-9.437,1.619a4.563,4.563,0,0,1-3.95-2.512,14.513,14.513,0,0,1-1.124-13.063c.76-2.121,2.281-3.294,3.669-4.727.892-.93,2.082-.893,2.942-1.656,3.686-3.256,7.008-1.042,10.115,1.079,2.859,1.954,3.752,5.266,3.8,8.951.017,1.805-.876,3.145-1.554,5.043Z" transform="translate(-676.679 -196.203)" fill="#f6ecd8"/>
                <path id="Path_903950" data-name="Path 903950" d="M728.61,238.966c-.331,1.8-2.248,2.717-3.223,4.466a1.963,1.963,0,0,1-1.256.8c-3.124.614-6.165,1.842-9.437,1.619a4.563,4.563,0,0,1-3.95-2.512,14.514,14.514,0,0,1-1.124-13.063c.76-2.121,2.281-3.294,3.669-4.726.892-.93,2.083-.893,2.942-1.656,3.686-3.256,7.008-1.042,10.115,1.079,2.859,1.954,3.752,5.266,3.8,8.951.017,1.805-.876,3.145-1.553,5.043Z" transform="translate(-700.014 -222.243)" fill="#f6ecd8"/>
                <path id="Path_903951" data-name="Path 903951" d="M764.871,291.015a13.152,13.152,0,0,1-9.09,8.5,4.979,4.979,0,0,1-2.545.2c-3.57-.875-6.776-2.326-8.578-6.308a11.869,11.869,0,0,1-.463-7.071c.694-3.684,3.6-5.1,5.421-7.611a1.29,1.29,0,0,1,.645-.409,16.3,16.3,0,0,1,11.156.223c.727.3,1.273,1.265,1.851,1.973.992,1.191,1.537,2.717,2.793,3.777,1.24,1.042,1.157,2.94.264,4.54-.446.819-1.025,1.544-1.438,2.177Z" transform="translate(-676.975 -174.719)" fill="#f6ecd8"/>
                <path id="Path_903952" data-name="Path 903952" d="M724.391,263.525a13.152,13.152,0,0,1-9.09,8.5,4.978,4.978,0,0,1-2.545.2c-3.57-.875-6.776-2.326-8.578-6.308a11.869,11.869,0,0,1-.463-7.071c.694-3.684,3.6-5.1,5.421-7.611a1.289,1.289,0,0,1,.645-.409,16.3,16.3,0,0,1,11.156.223c.727.3,1.273,1.265,1.851,1.973.992,1.191,1.537,2.717,2.793,3.777,1.24,1.042,1.157,2.94.264,4.54-.446.819-1.025,1.544-1.438,2.177Z" transform="translate(-703.398 -198.383)" fill="#f6ecd8"/>
                <path id="Path_903953" data-name="Path 903953" d="M763.053,245.91c-.826,2.214-1.735,3.35-3.454,3.554-.694.093-1.322.707-2.016,1.023-3.008,1.433-6.066,1-9.057,0a3.192,3.192,0,0,1-2.264-2.512,5.8,5.8,0,0,0-.793-1.879c-1.488-2.345-1.025-4.782-.066-7.053,1.074-2.531,2.562-4.689,5.19-5.564,3.372-1.117,6.661-1.9,10.082-.2,2.033,1,3.306,2.828,4.512,4.745a2.392,2.392,0,0,1,0,2.4c-1.206,1.842-1.256,4.224-2.149,5.508Z" transform="translate(-676.562 -213.593)" fill="#f6ecd8"/>
              </g>
              <g id="Group_1143271" data-name="Group 1143271" transform="translate(689.448)">
                <path id="Path_903954" data-name="Path 903954" d="M517.85,99.315c-.083,3.926-1.339,7.183-4.247,9.527-1.8,1.451-3.62,2.866-5.305,4.485-2.363,2.252-5.223,2.289-8.032,2.568-.43.037-.893-.409-1.339-.633a14.363,14.363,0,0,1-3.884-3.145c-2.347-2.438-2.958-5.75-2.215-9.416,1.223-5.992,4.776-9.769,9.222-12.709.942-.614,1.9-1.21,2.843-1.842,3.058-2.1,6.313-1.563,8.974.465A10.734,10.734,0,0,1,517.619,96c.116,1.1.132,2.214.2,3.331Z" transform="translate(-466.095 -79.641)" fill="#f0c884"/>
                <path id="Path_903955" data-name="Path 903955" d="M476.725,119.534c.992-6.848,2.413-10.886,7.652-13.082,1.256-.521,2.562-.93,3.8-1.507,2.744-1.247,5.322-.391,7.867.726a3.339,3.339,0,0,1,1.124,1c.5.614.909,1.321,1.355,1.991,2.727,4.112,2.529,7.425-.727,12.393-1.24,1.879-2.628,3.61-3.14,5.955a2.086,2.086,0,0,1-1.669,1.9,8.842,8.842,0,0,0-3.091,1.265c-1.273.875-2.727-.056-3.9.67-1.554.949-2.1-1.079-3.272-1.191-.744-.074-1.256-.93-1.9-1.154-2.529-.856-3.421-2.959-3.586-5.62-.083-1.228-1.157-2.289-.479-3.368Z" transform="translate(-476.535 -64.56)" fill="#f0c884"/>
                <path id="Path_903956" data-name="Path 903956" d="M530.964,83.074a6.423,6.423,0,0,1,4.4.8c1.388.707,2.644,1.489,2.661,3.536a1.851,1.851,0,0,0,.43,1.117c1.8,2.1,1.289,4.447.843,6.959-.611,3.443-2.2,6.345-3.619,9.341-1.372,2.9-3.934,4.336-6.214,6.085a3.447,3.447,0,0,1-3.223.465c-3.025-1.079-5.983-2.345-7.784-5.657a9.1,9.1,0,0,1-.992-7.015,19.318,19.318,0,0,1,3.074-7.35c1.124-1.451,2.2-2.94,3.272-4.447,1.868-2.642,4.082-4.392,7.173-3.833Z" transform="translate(-450.021 -82.958)" fill="#f0c884"/>
                <path id="Path_903957" data-name="Path 903957" d="M544.852,110.527c.446,3.368-1.851,4.931-3.8,6.476a15.949,15.949,0,0,1-5.289,2.81,6.688,6.688,0,0,1-6.594-1.116,13.23,13.23,0,0,1-4.694-6.048,11.623,11.623,0,0,1,.529-8.43c2.066-1.433,3.355-4.057,5.9-4.745a10.281,10.281,0,0,1,10.859,3.033C544.306,105.167,544.852,106.47,544.852,110.527Z" transform="translate(-445.613 -69.137)" fill="#f0c884"/>
                <path id="Path_903958" data-name="Path 903958" d="M523.068,113.6c-.1,1.768-.182,3.126-1.173,4.205a10.409,10.409,0,0,0-1.372,1.954c-2.975,5.192-10.974,6.513-15.569.354-1.587-2.14-1.785-6.848-.248-9.453a22.142,22.142,0,0,1,4.248-5.1c1.752-1.6,3.686-1.972,5.752-2.475,1.537-.372,2.595,1.507,4.181.6.578-.335,1.008,1.023,1.537,1.582.248.261.727.521.727.8,0,2.326.959,4.261,1.785,6.271a3.771,3.771,0,0,1,.165,1.284Z" transform="translate(-458.834 -65.676)" fill="#f0c884"/>
              </g>
              <g id="Group_1143272" data-name="Group 1143272" transform="translate(0 564.417)">
                <path id="Path_903959" data-name="Path 903959" d="M87.98,396.782c.545,4.745-1.554,7.927-3.884,10.793a54.531,54.531,0,0,1-5.553,5.285c-1.173,1.079-2.413,1.972-4.049,1.358a1.037,1.037,0,0,0-.711,0c-1.322.521-2.71.875-3.917-.056a11.605,11.605,0,0,1-3.256-4.447c-1.636-3.74-1.008-7.555.2-11.3a1.809,1.809,0,0,1,.43-.651c2.33-2.233,3.967-5.266,6.594-7.164,1.289-.93,2.082-2.68,3.752-3.07,1.4-1.991,3.372-.986,5.09-1.154a2,2,0,0,1,1.6.93c1.768,3.052,4.727,5.564,3.686,9.49Z" transform="translate(-55.306 -386.272)" fill="#e79aa9"/>
                <path id="Path_903960" data-name="Path 903960" d="M102.9,405.377a53.9,53.9,0,0,1-.876,6.364,6.279,6.279,0,0,1-2.793,4.15,33.088,33.088,0,0,1-5.818,3.331c-3.454,1.265-6.28.167-8.677-2.735a16.161,16.161,0,0,1-2.248-4.727c-.661-1.693.562-3.256-.083-4.838a.893.893,0,0,1,.231-.726c1.835-1.042,1.025-4,2.876-5.006,1.206-3.312,3.934-4.82,6.4-6.55a3.458,3.458,0,0,1,3.9-.2,10.028,10.028,0,0,0,1.355.633c4.165,1.768,5.718,4.317,5.718,10.309Z" transform="translate(-44.428 -379.683)" fill="#e79aa9"/>
                <path id="Path_903961" data-name="Path 903961" d="M69.577,408.479c1.537,0,3.041-.186,4.347.893,3.52,2.884,6.446,9.769,1.256,15.222-2.4,2.531-4.876,4.075-8.082,3.964-2.777-.093-4.809-1.321-5.983-4.522-.76-2.084-.859-4.317-1.735-6.308.959-2.289,1.041-5.006,2.777-6.941a7.251,7.251,0,0,1,5.652-2.587,10.467,10.467,0,0,1,1.768.279Z" transform="translate(-59.38 -367.395)" fill="#e79aa9"/>
              </g>
            </g>
            <g id="Group_1143275" data-name="Group 1143275" transform="translate(760.179 530.699)">
              <g id="Group_1143274" data-name="Group 1143274" transform="translate(102.393 82.815)">
                <path id="Path_903962" data-name="Path 903962" d="M676.638,441.916c1.834-.242,1.62-4.41,1.768-6.252.661-8.076-1.983-16.022-5.8-22.721-6.115-10.737-14.065-20.339-21.188-30.183-.793-1.1-2.182.223-1.686,1.358,4.413,10.551,3.157,22.739,7.9,33.365a51.147,51.147,0,0,0,7.586,12.133c2.529,3,5.471,5.582,7.718,8.858.645.93,2.429,3.461,3.586,3.424h.116Z" transform="translate(-521.883 -382.349)" fill="#506b7d"/>
                <path id="Path_903963" data-name="Path 903963" d="M825.733,761.014c14.081.651,28.03-3.052,42.128-1.265.711.112,1.19-.8,1.025-1.507a1.26,1.26,0,0,0,.2-1.358,106.036,106.036,0,0,1-5.669-18.85c-1.834-8.15,1.14-9.769,6.875-14.868,7.255-6.457,12.346-10.458,17.188-19.892,10.941-21.344,16.412-45.888,18.048-70.339,2.082-30.946-1.669-61.984-6.214-92.576A233.658,233.658,0,0,0,865.3,607.533a248.522,248.522,0,0,0-8.958,38.147c-1.785,11.649-4.909,21.939-4.4,33.923.529,12.077,2.479,23.967,4.71,35.784-1.157-2.977-2.363-5.936-3.52-8.913-4.793-12.263-9.619-24.489-14.809-36.547a1.229,1.229,0,0,0-.843-1.973,1,1,0,0,1-.083-.242,1.094,1.094,0,0,0-.1-1.4c-.347-.372-.661-.726-1.008-1.1-1.521-3.461-3.074-6.922-4.661-10.346-4.248-9.137-8.859-18.087-13.734-26.815-3.355-6.01-10.875-15.091-9.206-22.8,1.157-5.359,4.264-9.788,6.082-14.849,11.024-30.834,16.891-61.556,16.114-94.94-.578-24.749-3.933-49.312-7.685-73.726-8.049,13.119-12.776,27.317-19.006,41.292-6.231,14.012-12.3,26.461-14.726,42.222-3.074,20.023-4.049,42.129.628,61.891a128.45,128.45,0,0,0,6.5,20.339,90.944,90.944,0,0,0,4.793,10.439c-3.636-5.415-7.437-10.7-11.52-15.687a91.974,91.974,0,0,0-12-11.947c-4.958-4.243-9.222-9.9-13.966-14.477-1.173-1.135-14.147-12.5-14.015-12.765a1.354,1.354,0,0,0,.116-.744c-2.182-12.821.926-25.9,2.562-38.519a168.373,168.373,0,0,0-6.446-71.958,158.342,158.342,0,0,0-6.446-16.952c-.975-2.177-8-12.784-7.52-14.57a217.3,217.3,0,0,0-6.528,72.256,239.544,239.544,0,0,0,5.818,35.877c2.033,8.727,2.5,21.4,9.85,27.41q-6.942-5.666-14.048-11.053c-2.744-2.1-5.537-4.168-8.33-6.234a1.029,1.029,0,0,0-.1-.968c-1.785-2.959-2.082-6.848-3.289-10.123-1.273-3.405-2.644-6.792-3.933-10.179a172.781,172.781,0,0,0-9.6-19.669c-5.074-9.416-12.974-16.264-20.213-23.651q-11.5-11.723-23.667-22.572-12.148-10.858-24.923-20.786-6.371-4.968-12.908-9.695c-1.868-1.358-12.131-6.68-12.511-8.765,6.115,34.463,25.221,63.994,44.872,91.292,6.892,9.565,16.23,16.655,25.915,22.256,11.09,6.42,23.783,11.463,36.261,12.542a2.055,2.055,0,0,1-.2.13c20.676,15.408,40.938,31.355,58.821,50.633-7.14-7.685-20.3-9.751-29.336-12.858-12.61-4.336-24.609-9.509-37.633-12.375a193.073,193.073,0,0,0-79.513-.875c14.081,27.6,41.533,43.9,69.349,49.61,16.626,3.405,33.6,3.536,50.425,2.382a207.109,207.109,0,0,0,21.37-2.866c5.4-.968,12.99-4.54,18.412-4.038,10.3.968,16.131,18.7,21.37,27.243q6.594,10.746,12.511,22c3.487,6.606,6.5,17.529,11.239,22.87-10.445-11.779-18.1-16.58-32.014-21.79a279.991,279.991,0,0,0-126.3-16.487c2.363-.242,15.85,17.1,18.61,19.539a157.427,157.427,0,0,0,22.3,16.45,152.066,152.066,0,0,0,51.5,19.781c17.469,3.219,35.7,3.442,53.119-.316,3.95-.856,6.842-2.568,10.445-4,6.38-2.568,6.28-3.07,9.735,3.74,5.884,11.574,10,24.786,14.776,36.975a167.563,167.563,0,0,1,7.437,24.116,130.317,130.317,0,0,0,4.942,17.176,1.072,1.072,0,0,0-1.488.707,1.231,1.231,0,0,0-.231-.744c-14.263-19.427-33.617-30.722-55.02-37.124-13.585-4.057-27.435-6.569-41.3-9.044-12.2-2.159-25.584-.744-37.253-5.415-.926-.372-1.884,1.21-1.058,1.954,9.685,8.988,18.345,19.3,28.212,28.024a105.9,105.9,0,0,0,31.914,19.26c11.338,4.41,23.766,7.629,35.8,8.169Z" transform="translate(-549.204 -373.903)" fill="#506b7d"/>
                <path id="Path_903964" data-name="Path 903964" d="M620.19,428.672c-15.205-3.908-31.3-4.206-46.789-5.75-.992-.093-1.521,1.693-.562,2.2,12.429,6.718,19.5,21.083,32.724,26.777,14.461,6.215,30.229,4.131,45.12,1.358,1.058-.2.959-1.675.182-2.159a1.6,1.6,0,0,0-.083-.261c-6.776-12.319-18.312-19.018-30.576-22.163Z" transform="translate(-572.334 -347.425)" fill="#506b7d"/>
              </g>
              <path id="Path_903965" data-name="Path 903965" d="M666.066,537.971c-26.675-40.566-68.407-58.951-110.5-70.879-1.289-.372-2.231.837-2.066,2.214,5.289,42.8,19.635,84.221,44.145,117.753a168.771,168.771,0,0,0,39.269,39.059c16.742,11.667,37.484,16.58,52.028,31.988-.033.167-.05.354-.066.521-.347,2.345,2.826,3.387,3.173,1.023,6.429-42.576-3.14-86.975-25.965-121.7Zm-62.837,50.782c-22.907-29.587-37.236-66.134-44.062-104.374,4.479,9.621,10.875,18.032,17.255,26.405q18.42,24.2,37.2,48.065,18.221,23.2,36.757,46.074,9.272,11.444,18.61,22.814c5.652,6.866,12.214,13.528,15.982,21.976-11.817-9.416-26.047-14.142-38.839-21.9-16.312-9.9-30.724-23.372-42.889-39.077Zm-44.773-115.93c59.4,37.477,110.833,95.051,127.294,170.955-6.049-11-15.668-20.153-23.172-29.345q-19.163-23.474-38-47.284-18.3-23.112-36.294-46.539C577.181,506.15,563.563,491.524,558.456,472.823Zm131.591,175.29c-14.693-76.052-63.961-134.575-122.121-173.448,35.931,11.537,70.572,29.029,94.008,63.287,21.3,31.132,31.485,71.158,28.1,110.161Z" transform="translate(-482.25 -226.643)" fill="#506b7d"/>
              <path id="Path_903966" data-name="Path 903966" d="M642.318,582.333c-10.792-22.832-28.46-45.683-51.632-51.955-25.3-6.848-53.83-3.833-79.084,1.731-1.14.261-1.454,1.656-1.058,2.717.132.335.281.651.413.986a2.094,2.094,0,0,0,.711,1.712c21.767,51.843,84.009,63.975,128.649,48.81a1.991,1.991,0,0,0,1.223-1.452,1.9,1.9,0,0,0,.793-2.531Zm-55.5-49.089c21.965,4.857,38.872,24.4,49.962,45.628A146.893,146.893,0,0,0,585.6,545.954a133.14,133.14,0,0,0-31.8-7.574c-12.544-1.377-25.122-.8-37.517-3.48,22.874-4.689,47.7-6.718,70.522-1.675Zm48.541,49.126a405.644,405.644,0,0,1-63.118-17.864c-17.635-6.606-36.509-13.6-52.375-25.065,19.816,3.61,40.046,1.861,59.7,8.281,20.692,6.755,39.649,18.7,55.78,34.649ZM517.569,542.2c15.387,11.277,33.749,18.255,50.871,24.8a403.5,403.5,0,0,0,62.523,18.217c-40.393,10.086-91.5-1.191-113.394-43.041Z" transform="translate(-510.381 -175.508)" fill="#506b7d"/>
              <path id="Path_903967" data-name="Path 903967" d="M824.635,502.278c-9.553-1.656-20.229-5.173-29.9-4.689a15.913,15.913,0,0,0-3.256.521c16.924-13.249,30.262-29.587,34.129-54.82,5.19-33.793-2.066-70.451-5.454-104.076-.182-1.786-2.3-1.675-3.025-.521-29.6,46.688-80.422,111.836-48.177,172.257a7.315,7.315,0,0,0,1.207,4.206,696.21,696.21,0,0,0-13.9,271.607c.347,2.363,3.553,1.489,3.223-.875a691.184,691.184,0,0,1,13.371-267.811c6.082,4.894,17.6,7.127,22.13,7.071,11.453-.167,27.8-6.848,31.2-20.488a1.884,1.884,0,0,0-1.554-2.382Zm-6.413-150.672c3.289,28.08,7.768,57.221,4.909,85.189-1.7,16.617-7.041,32.025-17.5,44.139-8.412,9.732-18.775,16.878-29.2,23.577a641.569,641.569,0,0,0,41.781-152.886ZM772.739,504.622c-3.223-28.229,3.454-55.825,12.99-81.877,8.561-23.409,18.858-46.074,28.84-68.795A635.975,635.975,0,0,1,772.755,504.6ZM809.991,355.96c-10.032,22.739-20.263,45.46-28.609,68.981-8.991,25.307-14.858,51.843-12.048,79.03C746.245,452.854,782.06,398.462,809.991,355.96ZM797.5,521.165a28.145,28.145,0,0,1-12.99-1.526c-1.173-.447-7.47-3.145-10.561-5.806.066-.279.132-.54.215-.819a1.4,1.4,0,0,0,.826-.3c7.817-5.731,14.842-12.412,24.708-11.016,7.586,1.061,15.139,2.568,22.692,3.908-3.785,9.807-16.213,14.626-24.874,15.557Z" transform="translate(-354.68 -337.845)" fill="#506b7d"/>
              <path id="Path_903968" data-name="Path 903968" d="M727.6,355.62c-.2-1.526-2.446-1.973-3.025-.521-7.834,19.874-17.965,40.287-21.5,61.854a99.919,99.919,0,0,0,6.313,53.518c.645,1.6,2.281,1,2.892-.2a1.571,1.571,0,0,0,.81-.391,75.042,75.042,0,0,0,23.419-47.1c2.463-22.87-6.033-44.865-8.908-67.157Zm-20.1,55.974c3.339-14.533,9.156-28.452,14.858-42.2l-12.28,93.283a94.976,94.976,0,0,1-2.578-51.061Zm26.1,5.452A71.957,71.957,0,0,1,713.1,464.963l12.941-98.308c3.19,16.692,8.165,33.253,7.57,50.391Z" transform="translate(-385.416 -323.753)" fill="#506b7d"/>
            </g>
            <g id="Group_1143280" data-name="Group 1143280" transform="translate(-41.632 -65.855)">
              <g id="Group_1143276" data-name="Group 1143276" transform="translate(501.606)">
                <path id="Path_903969" data-name="Path 903969" d="M347.34,74.582c23.733,36.379,67.845,54.15,106.684,42.967S524,66.934,529.307,22.2" transform="translate(-316.599 -13.007)" fill="none" stroke="#f6ecd8" stroke-linecap="round" stroke-linejoin="round" stroke-width="1.4" stroke-dasharray="0 0 7 5"/>
                <path id="Path_903970" data-name="Path 903970" d="M358.95,72.449c16.379,22.5,47.566,26.163,70.886,13.621s39.352-38.054,48.838-65.111" transform="translate(-309.021 -14.075)" fill="none" stroke="#f6ecd8" stroke-miterlimit="10" stroke-width="1.4"/>
                <path id="Path_903971" data-name="Path 903971" d="M328.74,56.691c8.859,31.5,24.328,61.2,46.921,82.323s52.689,32.937,81.761,28.359c31.237-4.931,58.408-27.95,77.662-56.085s31.667-61.3,43.9-94.028" transform="translate(-328.74 -17.26)" fill="none" stroke="#f6ecd8" stroke-miterlimit="10" stroke-width="1.4"/>
              </g>
              <g id="Group_1143277" data-name="Group 1143277" transform="translate(0 40.064)">
                <path id="Path_903972" data-name="Path 903972" d="M33.25,563.658c22.824-29.922,46.178-60.365,76.059-80.965,29.882-20.618,67.911-30.183,100.387-15.371,36.823,16.785,59.218,60.5,95.066,79.793,40.062,21.548,88.653,7.871,127.013-17.324s70.489-60.905,107.99-87.664c37.5-26.777,84.339-44.4,126.269-27.968,57.251,22.442,91.843,102.29,152.383,105.472,29.3,1.544,56.276-16.115,84.224-26.145,69.068-24.768,147.176-1.1,204.576,48.754s96.041,122.908,121.1,199.5" transform="translate(-20.012 278.871)" fill="none" stroke="#545a66" stroke-miterlimit="10" stroke-width="2"/>
                <path id="Path_903973" data-name="Path 903973" d="M582.884,41.29c-18.858,37.924-37.831,85.059-18.213,122.48,21.221,40.473,71.415,41.087,112.551,49.033,39.848,7.685,83.414,34.946,87.248,80.258,2.727,32.137-15.519,61-30.113,88.78s-26.047,63.789-10.677,91.032c10.611,18.794,30.791,27.15,49.516,34.3q29.551,11.249,59.085,22.5c22.857,8.709,48.888,21.009,55.284,47.209,3.173,13.007.595,26.87-2.512,39.9A476.755,476.755,0,0,1,857.9,697.7c-5.7,12.97-12.148,26.331-12.065,40.808.116,24.321,18.345,43.525,36.906,55.992,40.856,27.429,90.6,37.57,137.409,28.043" transform="translate(321.462 -36.638)" fill="none" stroke="#545a66" stroke-miterlimit="10" stroke-width="2"/>
                <path id="Path_903974" data-name="Path 903974" d="M25.24,489.3c37.947-8.876,77.034,6.345,115.758,4.652,62.771-2.735,118.9-51.005,150.961-111.836,18.445-35,36.195-79.458,72.01-85.021,24.394-3.8,47.582,13.175,72.142,15.2,27.518,2.27,54.045-14.812,72.506-37.905s30.295-51.768,42.112-79.848c11.007-26.163,25.2-55.043,50.161-61.984,24.361-6.773,48.425,10.29,73.1,15.408,58.457,12.114,112.138-46.037,131.823-109.175" transform="translate(-25.24 -38.79)" fill="none" stroke="#545a66" stroke-miterlimit="10" stroke-width="2"/>
              </g>
              <g id="Group_1143278" data-name="Group 1143278" transform="translate(1134.69 38.37)">
                <path id="Path_903975" data-name="Path 903975" d="M779.6,47.42c-42.955,19.762-70.06,73.484-67.663,125.662S743.687,273.548,783.8,299.8s89.545,31.578,134.781,19.948" transform="translate(-711.791 -29.668)" fill="none" stroke="#f6ecd8" stroke-miterlimit="10" stroke-width="1.4"/>
                <path id="Path_903976" data-name="Path 903976" d="M792.834,42.66c-18.676,19.278-37.534,38.8-51.516,62.58s-22.824,52.606-19.172,80.816c6.38,49.07,49.4,83.7,92.917,91.385s87.562-5.564,130.037-18.683" transform="translate(-705.571 -33.765)" fill="none" stroke="#f6ecd8" stroke-linecap="round" stroke-linejoin="round" stroke-width="1.4" stroke-dasharray="0 0 7 5"/>
                <path id="Path_903977" data-name="Path 903977" d="M792.341,37.88c-15.734,19.874-31.7,40.473-40,65.408-8.313,24.935-7.487,55.49,8.148,75.475,12.958,16.561,33.418,22.981,52.97,24.656,54.342,4.671,106.767-20.674,156.614-45.479" transform="translate(-688.732 -37.88)" fill="none" stroke="#f6ecd8" stroke-miterlimit="10" stroke-width="1.4"/>
              </g>
              <g id="Group_1143279" data-name="Group 1143279" transform="translate(404.26 873.226)">
                <path id="Path_903978" data-name="Path 903978" d="M269.84,632.385c15.337-40.231,36.245-78.695,66.126-106.7s69.713-44.53,108.089-37.57c40.112,7.257,74.191,39.1,96.289,77.485s33.8,83.068,43.814,127.393" transform="translate(-269.84 -486.526)" fill="none" stroke="#f6ecd8" stroke-miterlimit="10" stroke-width="1.4"/>
                <path id="Path_903979" data-name="Path 903979" d="M281.08,604.295c19.42-27.8,39.6-55.769,65.812-75.271s59.78-29.55,89.545-18.255c23.535,8.932,42.227,30.276,53.9,54.95S507.307,618.251,510.348,646" transform="translate(-262.503 -469.731)" fill="none" stroke="#f6ecd8" stroke-linecap="round" stroke-linejoin="round" stroke-width="1.4" stroke-dasharray="0 0 7 5"/>
                <path id="Path_903980" data-name="Path 903980" d="M295.17,584.078c12.1-17.324,25.551-33.923,42.31-45.311s37.3-17.12,56.243-11.537c17.139,5.043,31.584,19.018,40.757,36.081s13.453,37.031,14.759,56.923" transform="translate(-253.306 -453.348)" fill="none" stroke="#f6ecd8" stroke-miterlimit="10" stroke-width="1.4"/>
              </g>
            </g>
            <g id="Group_1143281" data-name="Group 1143281" transform="translate(-83.314 -88.944)">
              <path id="Path_903981" data-name="Path 903981" d="M441.742,126.137c-19.337-9.3-39.4-17.938-60.854-16.375a118.338,118.338,0,0,0-26.973,4.931,85.249,85.249,0,0,0-25.9,12.821c-2.711,2.028-5.52,4.057-6.958,7.574-.578,1.414-1.306,1.489-2.446.875-7.437-4.057-14.908-8.057-22.362-12.1-3.223-1.749-6.446-3.536-9.735-5.359,1.008-1.4,2.165-.856,3.091-.875,8.842-.223,16.957-3.424,24.609-7.983A123.394,123.394,0,0,0,342,86.669c4.942-5.4,9.949-10.718,14.941-16.059a89.567,89.567,0,0,0,8.479-10.16,26.362,26.362,0,0,0,4.066-8.039A7.642,7.642,0,0,0,367.9,44.93a15.073,15.073,0,0,0-5.636-4,30.768,30.768,0,0,0-15.734-2.382,50.708,50.708,0,0,0-26.675,11.537c-13.354,10.849-23.436,24.991-31.8,40.789-1.058,1.991-1.868,4.15-2.76,6.234a70.778,70.778,0,0,0-4.1,14.98c-.5,2.717-1.074,3-3.14,1.917q-17.081-8.988-34.162-18.031c-3.768-1.991-3.917-3.331-.711-6.345a24.308,24.308,0,0,1,3.438-2.568c15.965-10.346,31.6-21.251,46.789-32.993A198.725,198.725,0,0,0,314.233,35.98a44.245,44.245,0,0,0,8.28-11.072,19.233,19.233,0,0,0,2.182-8.281c.116-5.88-2.744-10.03-7.834-11.314a18.337,18.337,0,0,0-7.189-.2,44.421,44.421,0,0,0-13.833,4.54,145.709,145.709,0,0,0-20.444,12.393c-10,7.313-19.287,15.594-26.94,26.014A60.717,60.717,0,0,0,237.91,71.764a107.69,107.69,0,0,0-1.884,12.616c-.132,1.545-.248,3.089-.446,4.615-.132,1.135-.694,1.749-1.768,1.3a23.679,23.679,0,0,1-2.363-1.172c-10.131-5.806-20.263-11.63-30.063-18.106-6.231-4.112-12.544-8.206-16.808-15.129a.933.933,0,0,0-1.322-.409,1.518,1.518,0,0,0-.43,2.01,17.457,17.457,0,0,0,4.529,6.252,66.952,66.952,0,0,0,9.239,7.443c7.917,5.527,16.2,10.309,24.411,15.2,3.95,2.363,7.933,4.633,11.8,6.866.149,1.563-.711,2.345-1.24,3.312-7.338,13.4-14.2,27.038-18.544,42.111a95.491,95.491,0,0,0-3.537,34.407,140.041,140.041,0,0,0,7.322,34.37,55.375,55.375,0,0,0,8.859,16.952c4.314,5.359,11.668,9.583,17.585,12.319a92.626,92.626,0,0,0,5.52-26.963,110.386,110.386,0,0,0-.3-15.687,366.906,366.906,0,0,1-1.157-49.349,145.763,145.763,0,0,0-2.363-34.109c-.744-3.833-2.264-7.313-3.438-10.942a1.205,1.205,0,0,1,.165-.949,1.255,1.255,0,0,1,.942-.112,3.4,3.4,0,0,1,.959.428q15.2,8.039,30.394,16.115c4.5,2.4,4.148,1.4,2.925,7.369-.463,2.27-1.025,4.5-1.587,6.755a88.043,88.043,0,0,0-2.363,14.273,215.382,215.382,0,0,0-.562,29.029c.479,9.36,1.917,18.5,5.272,27.131A116.734,116.734,0,0,0,300.7,236.559c6.908,7.536,15.123,11.593,24.345,14.421a2.142,2.142,0,0,0,1.818,0c.727-.484.81-1.6.793-2.549-.083-3.666-.43-7.35-.727-11-.3-3.759-1.669-7.108-2.892-10.514-2.925-8.076-5.933-16.133-8.842-24.209a92.116,92.116,0,0,1-3.372-11.593c-2.2-10.16-4.281-20.376-6.809-30.425-3.124-12.5-6.694-24.842-14.495-35.877a8.734,8.734,0,0,1,1.719.242q12.569,6.783,25.138,13.621a10.881,10.881,0,0,1,5.206,6.866,53.239,53.239,0,0,1,1.454,9.137c2.033,17.25,6.132,33.718,13.47,49.163a115.689,115.689,0,0,0,20.015,30.108c7.388,7.853,15.42,12.933,24.725,17.213-1.157-11.332-2.463-22.46-5.851-33.272a296.922,296.922,0,0,0-13.271-34.984c18.825,22.59,47.863,32.267,74.786,23.819a1.962,1.962,0,0,0,.793-3.108c-17.271-20.116-35.831-40.752-59.631-48.977a107.088,107.088,0,0,0,13.222-2.307c10.131-2.382,19.9-6.234,29.683-9.918,7.5-2.81,15.04-5.955,21.188-11.816a3.033,3.033,0,0,0,.925-1.3c.4-1.433-1.074-2.568-2.314-3.163ZM321.555,13.836c.926,3.8-.132,7.127-1.851,10.29a45.176,45.176,0,0,1-7.784,10.011c-6.776,6.885-14.214,12.784-21.717,18.608-12.462,9.639-25.32,18.571-38.294,27.317-1.008.688-2.1,1.228-3.157,1.842,5.157-7.722,11.619-13.491,18.131-19.129,7.09-6.122,14.147-12.263,21.006-18.72A147.123,147.123,0,0,1,302.2,32.7c7.074-5.192,13.883-10.718,18.726-18.739.05-.093.3-.056.645-.093ZM318,12.087c-1.19,3.7-3.157,5.62-4.991,7.611A80.678,80.678,0,0,1,300.234,30.49,193.926,193.926,0,0,0,280.716,46.68c-5.966,5.545-12.214,10.7-18.3,16.115-3.239,2.884-6.347,5.936-9.52,8.913-.744.707-1.339,1.786-2.793,1.4,9.669-18.832,21.254-35.226,39.186-44.865,7.9-4.243,15.883-8.392,23.353-13.659,1.421-1,3.14-1.489,5.355-2.475ZM251.082,49.4a122.349,122.349,0,0,1,22.824-22.5,148.123,148.123,0,0,1,22-13.919,44.108,44.108,0,0,1,12.743-4.522,20.776,20.776,0,0,1,6.165-.261c.545.056,1.041.279,1.074.968,0,.223-.364.558-.628.707-3.636,2.2-7.256,4.41-10.908,6.55-6.115,3.554-12.214,7.108-18.378,10.532-11.354,6.327-20.378,15.687-27.849,27.019-3.074,4.652-5.785,9.621-8.644,14.44-2.677,4.5-5.322,9.025-8.016,13.528-.545.912-1.19,1.731-1.868,2.7-.3-.689-.578-1-.562-1.3,1.074-12.635,4.628-24.116,12.082-33.923ZM228.588,223.477a41.83,41.83,0,0,1-6.991-11.426,128.354,128.354,0,0,1-9.652-43.674,80.49,80.49,0,0,1,3.074-26.349c3.041-10.514,6.677-20.767,11.8-30.257,2.215-4.094,4.33-8.243,7.041-13.435A17.707,17.707,0,0,1,233,106.1c-1.8,6.066-3.686,12.1-5.6,18.106-1.62,5.1-3.339,10.179-5.024,15.259-4.281,12.877-4.842,26.089-2.677,39.468a171.34,171.34,0,0,0,9.966,37.142c.777,1.935,1.752,3.759,2.578,5.676.727,1.693,1.934,3.163,2.066,5.452-2.529-.223-4.148-1.935-5.685-3.722Zm10.776-1.712c-.116,1.321.066,3.294-1.124,3.591-1.421.335-2.082-1.6-2.694-2.866a126.288,126.288,0,0,1-7.14-18.031,191.25,191.25,0,0,1-5.719-23.521c-2.512-14.18-2.115-28.1,2.5-41.757,3.372-9.974,6.479-20.041,9.735-30.052a12.394,12.394,0,0,1,.711-1.507c1.025.986.529,2.252.5,3.294a120.689,120.689,0,0,1-1.521,16.747c-.694,4.187-1.339,8.392-2.132,12.561a83.147,83.147,0,0,0,.578,32.825c2.132,10.365,4.231,20.767,5.537,31.318a82.411,82.411,0,0,1,.793,17.362Zm4.429-101.248a177.724,177.724,0,0,1,.777,27.819,293.26,293.26,0,0,0,.926,41.738,122.151,122.151,0,0,1,.43,21.437c-.512,6.085-1.041,8.076-3.669,12.5.711-11.965-1.355-23.54-3.388-35.114-1.207-6.829-2.562-13.621-3.851-20.451a67.2,67.2,0,0,1-.512-23.074q.992-6.28,2.066-12.561c1.62-9.527,2.826-19.092,2.182-28.843-.05-.633.066-1.284.6-1.414.578-.149.694.6.876,1.061a66.419,66.419,0,0,1,3.57,16.878ZM362.46,59.761c-2.363,3.07-4.892,5.973-7.487,8.82-4.545,5.006-9.239,9.862-13.784,14.868a131.141,131.141,0,0,1-22.676,20.078c-7.817,5.378-16.015,9.881-25.37,10.83-1.008.112-2.033.447-3.107-.67,12.627-7.2,22.94-17.715,33.1-28.4,7.95-8.374,16.2-16.189,25.915-21.883a79.1,79.1,0,0,0,18.1-14.087,21.332,21.332,0,0,1-4.727,10.421Zm.975-12.858a.857.857,0,0,1,.364,1.358,24.21,24.21,0,0,1-2.149,2.475,57.927,57.927,0,0,1-11.586,8.634A121.472,121.472,0,0,0,322.6,81.719c-7.107,7.574-14.313,15.054-22.378,21.381-2.248,1.768-4.611,3.368-6.941,4.987a1.824,1.824,0,0,1-2.1.261c6.644-6.494,11.5-14.477,16.379-22.386,6.479-10.5,14.908-18.646,23.882-26.219A113.423,113.423,0,0,1,341.7,52c5.983-4.019,12.511-5.117,19.238-5.6a5.93,5.93,0,0,1,2.5.54ZM285,107.771A40.63,40.63,0,0,1,286.1,103.3a76.367,76.367,0,0,1,6.28-14.626c8.247-14.2,17.668-27.187,30.179-37.012a46.985,46.985,0,0,1,23.9-10.067c3.735-.428,7.52-.484,11.272,1.247-1.289,1.3-2.76.986-4.049,1.228a41.8,41.8,0,0,0-19.2,9.472c-4.975,4.15-9.834,8.467-14.66,12.84-5.537,5.024-10.049,11.109-14.214,17.566-3.14,4.857-6.3,9.695-9.553,14.459a41.927,41.927,0,0,1-9.8,10.2,1.041,1.041,0,0,1-.959.093,1.1,1.1,0,0,1-.3-.93Zm28.692,135.692a30.8,30.8,0,0,1-8.148-6.048,111.419,111.419,0,0,1-25.006-37.924,76.8,76.8,0,0,1-5.074-22.386,197.7,197.7,0,0,1,.5-35.933,89.1,89.1,0,0,1,2.512-13.044c.165-.651.248-1.433.992-1.656.678.6.446,1.414.446,2.159a112.736,112.736,0,0,0,4.066,28.545c3.454,12.393,5.652,25.1,7.685,37.868a141.679,141.679,0,0,0,4.148,18.553,59.41,59.41,0,0,0,9.933,18.869,68.618,68.618,0,0,0,8.115,8.895c.744.689,1.818,1.117,2.066,2.456-.843.707-1.554-.037-2.231-.354Zm1.818-4.41c-10.4-9.267-16.709-21.418-19.585-35.858-1.636-8.3-2.958-16.673-4.4-25.028-1.206-7.034-3.041-13.882-4.826-20.748a132.391,132.391,0,0,1-3.768-21.009c-.149-1.526-.165-3.089-.2-4.633,0-.54-.149-1.3.479-1.489.562-.186.826.409.992.93,1.521,4.931,3.339,9.788,4.5,14.831,2.33,10.1,4.347,20.283,6.413,30.462a180.9,180.9,0,0,0,13.652,41.18c3.206,6.829,5.933,13.956,8.842,20.953a6.325,6.325,0,0,1,.231,1.47c-1.173.465-1.7-.5-2.33-1.061Zm-23.518-106.9a76.034,76.034,0,0,1,6.28,14.589c3.768,11.053,6.148,22.535,8.479,34.035,2.925,14.366,6.71,28.4,12.643,41.627,2,4.485,3.884,9.062,4.628,14.105a14.836,14.836,0,0,1,.182,4.6c-.165.949-.364,2.066-1.256,2.363-1.24.409-1.256-1.023-1.5-1.768-3.768-11.258-8.71-21.883-13.519-32.583a141.08,141.08,0,0,1-6.975-19.967c-3.553-12.765-5.421-25.977-8.5-38.854a190.33,190.33,0,0,0-5.7-20.469c-.612-1.712-1.14-3.48-2.1-6.438a32.607,32.607,0,0,1,7.338,8.783Zm35.484-.391a75.6,75.6,0,0,1,24.51-13.249,125.371,125.371,0,0,1,27.353-5.471c16.346-1.544,31.815,2.047,46.508,10.086,1.6.875,3.4,1.6,4.5,3.349-.628.837-1.107.447-1.5.279-8.016-3.536-16.4-4.224-24.857-3.722-10.462.633-20.924,1.377-31.4,1.377a76.265,76.265,0,0,0-13.3,1.563c-4.925.875-9.817,1.935-14.726,2.828-6.462,1.154-12.842,2.624-19.337,6.308a5.972,5.972,0,0,1,2.264-3.331Zm98.834-2.419c-5.471,1.191-9.867,1.972-14.131,3.461-6.066,2.14-12.181,4.112-18.3,6.066a85.251,85.251,0,0,1-8.528,2.27,29.163,29.163,0,0,1-13.817-.3c-2.843-.8-5.669-1.638-8.462-2.568-5.57-1.879-11.139-3.833-17.007-5.862.645-.447.992-.856,1.4-.93,11.668-2.475,23.337-4.522,35.3-4.261,6.677.149,13.387-.633,20.081-1.079a72.273,72.273,0,0,1,13.9.372,25.624,25.624,0,0,1,9.569,2.828Zm-53.268,113.9c-1.851-1.377-3.752-2.68-5.57-4.112a94.319,94.319,0,0,1-23.9-29.383,152.155,152.155,0,0,1-17.188-57.984,10.1,10.1,0,0,1,.05-1.731c0-.149.2-.3.446-.633,2.744,5.173,5.19,10.272,6.446,16.171a111.692,111.692,0,0,0,5.256,16.989c6.446,16.692,16.147,31.039,25.287,45.814,3.024,4.894,6.446,9.49,9.669,14.217-.165.223-.347.465-.512.688Zm-40.046-88.613a48.691,48.691,0,0,1,8.528,12.914c2.2,5.024,4.38,10.086,6.347,15.24a79.447,79.447,0,0,0,9.222,17.4,113.559,113.559,0,0,1,15.718,33.774c.1.335.165.875.017,1.042-.479.54-.959.167-1.289-.3-5.537-7.909-10.776-16.059-15.585-24.544-.744-1.3-1.5-2.587-2.314-3.833-5.553-8.467-9.652-17.827-13.486-27.373a65.841,65.841,0,0,1-3.768-12.635c-.744-3.982-2.215-7.722-3.372-11.686ZM375.781,226.6c.876,3.666,2.033,7.35,1.835,12.6-1.934-5.4-3.5-9.472-4.876-13.64a101.5,101.5,0,0,0-12.71-25.81,89.173,89.173,0,0,1-11.09-21.511,98.6,98.6,0,0,0-14.214-26.815c-.876-1.191-1.653-2.475-2.413-3.759a3.241,3.241,0,0,1-.182-1.116c.942-.391,1.57.335,2.264.819a37.113,37.113,0,0,1,4.016,3.219,1.788,1.788,0,0,0,.545.6c.149.112.314.2.463.316,4.446,4.243,8.065,9.416,11.6,14.682A125.826,125.826,0,0,1,360.03,183.1c6.479,13.919,12.1,28.266,15.751,43.488Zm-15.337-52.941a1.669,1.669,0,0,0-2.215-.614,120.809,120.809,0,0,0-9.883-15.761c27.039,16.729,56.606,28.006,82.323,47.47C404.324,210.079,376.541,198.189,360.444,173.663Zm71.646,27.689c-28.559-21.511-61.812-33.011-91.066-53.108a1.462,1.462,0,0,1,.165-.372c3.388,1.21,6.826,2.419,10.247,3.666a57.886,57.886,0,0,0,12.329,3.033,1.474,1.474,0,0,0,.992.54c27.849,3.256,48.574,24.637,67.316,46.242ZM426.124,136.8a153.936,153.936,0,0,1-18.874,7.815,168.483,168.483,0,0,1-22.543,6.085,69.274,69.274,0,0,1-17.469,1.023q-1.19-.2-2.38-.335a1.463,1.463,0,0,0-.3.037A57.965,57.965,0,0,1,350.1,147.8c-6.5-2.568-13.007-5.08-19.5-7.629-.463-.186-.942-.54-.744-1.191.083-.279.512-.428.81-.6a3.955,3.955,0,0,1,.5-.112c12.065-3.647,13.024-3.61,25.138.726,3.272,1.172,6.594,2.214,9.867,3.424a37.638,37.638,0,0,0,25.386.242c6.594-2.14,13.205-4.261,19.783-6.494a72.138,72.138,0,0,1,17.172-3.7,16.969,16.969,0,0,1,2.661.149,10.255,10.255,0,0,1-5.057,4.224Z" transform="translate(119.181 -4.852)" fill="#fff"/>
              <path id="Path_903982" data-name="Path 903982" d="M320.466,216.2c-22.13-10.979-45.715-26.629-70.539-26.722-21.337-.074-41.814,10.179-56.358,27.652A546.975,546.975,0,0,1,148.614,176.6c24.378,5.341,51.879-1.9,74.82-10.235,21.75-7.89,42.277-22.87,49.615-48.437a1.853,1.853,0,0,0-1.554-2.382c-28.064,1.023-57.416,3.368-84.587,11.779-19.833,6.122-38.691,18.72-46.161,41.2-12.676-13.286-24.758-27.3-36.228-41.906,7.57,2.252,16.23,1.991,23.337,1.842a127.225,127.225,0,0,0,43.1-8.616,138.1,138.1,0,0,0,37.765-22.069,140.706,140.706,0,0,0,15.916-15.24c4.248-4.764,8.958-9.267,9.735-16.171a1.82,1.82,0,0,0-1.157-1.805c.083-1.042-.479-2.214-1.554-2.1-4.975.521-9.933,1.191-14.875,1.954-23.072.037-46.062.949-68.473,8.095C136.434,76.3,123.608,80.019,112.6,86.5c-9.173,5.4-15.668,13.733-20.494,23.744A599.4,599.4,0,0,1,44.178,32.624c-1.074-2.066-3.967-.279-2.892,1.805a601.818,601.818,0,0,0,49.2,79.4,1.825,1.825,0,0,0-.612.968l-.248.112a1.258,1.258,0,0,0-1.851.316c-.215.279-.446.558-.661.837-19.5,9.658-35.1,29.215-46.178,49.219-5.884,10.607-10.164,22.423-10.478,35.058-.413,16.04,4.3,32.434,7.305,47.954.248,1.265,1.95,2.028,2.76.893,14.594-20.358,29.353-40.864,40.525-63.882,9.206-18.943,18.808-42.241,13.387-64.087a22.783,22.783,0,0,0,3.537,2.605A572.295,572.295,0,0,0,138.3,171a.217.217,0,0,0-.083.056c-18.808,17.585-36.245,40.994-43.831,67.567-4.2,14.682-3.586,30.22-.413,45.088a189.6,189.6,0,0,0,6.231,21.846c1.818,5.322,3.438,14.161,6.627,18.422,15.949-23.353,28.311-51.675,38.591-78.676,4.281-11.221,10.528-24.209,10.346-36.714-.132-9.769-4.743-19.632-8.859-28.713A553.682,553.682,0,0,0,189.718,218.6c-19.965,6.662-22.329,40.994-20.18,60.086,3.041,26.945,17.288,50.242,37.749,64.236a1.606,1.606,0,0,0,2.43-1.079c4.413-23.149,8.693-49.033,6.2-73a83.382,83.382,0,0,0,17.42,23.837,72.688,72.688,0,0,0,16.792,11.891c8.131,4.15,17.007,6.178,23.684,13.286a1.692,1.692,0,0,0,2.793-1.731c-7.156-27.466-16.527-58.8-38.162-74.712,31.005,8.783,64.374,8.3,82.554-22.609a2.005,2.005,0,0,0-.578-2.549ZM87.579,121.106Q63.358,174.475,42.79,229.8c0-5.657-.347-11.332.05-17.027a114.994,114.994,0,0,1,9.4-36.844C60.986,155.439,74.291,138.04,87.579,121.106ZM40.459,204.4c-1.686,11.165.182,22.646-1.372,33.7-2.281-10.7-4.694-21.567-5.239-32.416-.694-13.975,3.471-26.815,9.949-38.538,9.255-16.71,21.981-33.532,37.534-43.692C69.217,139.064,57.466,155.271,49.4,174.01A123.936,123.936,0,0,0,40.459,204.4Zm34.972-15.389c-9.586,18.459-21.32,35.337-33.2,51.973q22.213-60.905,48.9-119.54c5.966,23.019-5.586,48.084-15.7,67.548ZM117.956,87.723c11.668-5.787,24.609-9.825,36.939-13.379,13.321-3.833,26.973-5.359,40.707-5.955a314.928,314.928,0,0,0-99.611,41.832c5.206-9.955,12.181-17.641,21.965-22.5ZM95.628,114.742a310.192,310.192,0,0,1,121.443-46.67c3.471,0,6.941.037,10.4.056-5.983,8.485-15.5,12.654-24.279,16.934-11.9,5.806-23.948,11.2-36.245,15.892a281.483,281.483,0,0,1-34.873,10.9c-11.6,2.754-24.725,6.476-36.443,2.884Zm3.289,4.578c10.2,1.768,21.056-.93,30.989-3.163a283.1,283.1,0,0,0,40.69-12.691c12.528-4.894,24.841-10.5,36.972-16.506,7.966-3.945,16.015-8.057,21.634-15.315-2.826,5.1-8.131,9.732-11.5,13.175a136.878,136.878,0,0,1-15.817,13.807,134.256,134.256,0,0,1-32.906,18.05,124.55,124.55,0,0,1-35.931,7.834c-9.619.614-23.651,1.731-33.071-3.74-.364-.484-.727-.968-1.074-1.433ZM107.593,316.1c-9.536-25.475-17.883-52.159-9.057-79.551,7.751-24.061,23.436-45.125,40.641-61.538-12.148,21.12-24.411,42.743-31.005,66.99-6.71,24.675-4.347,48.81-.331,73.689-.083.13-.165.279-.231.409ZM112.221,240c5.487-18.608,14.263-35.635,23.568-52.159.182,8.355,2.777,16.543.744,24.972-2.727,11.314-8.5,22.423-12.082,33.476a426.232,426.232,0,0,0-14.676,60.142C106.6,284,105.643,262.306,112.2,240ZM151.705,216.1c-2.595,12.989-8.462,26.052-13.371,38.054a478.985,478.985,0,0,1-25.2,52.234,428.8,428.8,0,0,1,14.478-59.081c3.5-10.793,8.3-21.065,11.635-31.895,3.537-11.444-2.016-21.976.231-33.383a1.787,1.787,0,0,0,0-.726c.826-1.433,1.653-2.884,2.479-4.317,5.206,12.17,12.478,25.419,9.735,39.115Zm-6.512-47.079c-.281.056-.562.112-.826.149a1.175,1.175,0,0,0-.347.149c8.3-24.507,30.708-35.523,52.16-40.7,21.023-5.061,42.624-7.629,64.126-8.839q-34.261,11.444-68.506,22.888c-17.7,5.917-34.443,10.718-46.607,26.349Zm113.874-44.939c-30.84,27.578-70.274,36.584-108.5,43.916,13.619-14.738,33.253-18.776,51.268-24.786Q230.441,133.639,259.067,124.084Zm7.173-1.917a1.343,1.343,0,0,0,1.388-.074c.182-.112.347-.2.529-.316-8.875,23.391-29.931,36.119-51.037,42.836-22.031,7-47.136,13.565-69.96,7.8,42.194-8,86.025-17.51,119.08-50.261ZM174.314,287.186c-3.867-18.106-4.231-56.662,15.222-64.627-16.974,36.714-3.52,77.169,12.313,111.538a85.386,85.386,0,0,1-27.535-46.912Zm19.073-64.869c.132.149.248.3.38.428a1.949,1.949,0,0,0-.992,2.028q6.743,52.113,10.627,104.616c-15.023-33.2-27.419-72.051-10.016-107.072ZM207.27,337.112q-3.917-55.909-11.057-111.427C220.294,256.091,214.228,299.951,207.27,337.112Zm33.964-42.464c-13.205-10.067-22.94-24.842-28.03-41.813a1.663,1.663,0,0,0-.182-.354,82.288,82.288,0,0,0-7.933-19.762c11.288,9.937,22.874,19.836,32.245,31.988,10.611,13.77,20.114,28.75,29.733,43.45-8.379-4.838-17.949-7.5-25.816-13.51Zm29.815,13.379c-10.164-15.5-20.13-31.374-31.352-45.925-9.718-12.616-21.882-22.832-33.584-33.16,4.578,2.177,9.421,4.3,14.428,6.29a1.651,1.651,0,0,0,1.14,1.693c29.237,8.876,41.137,41.2,49.351,71.1Zm-71.117-86.194c.777-.261,1.537-.484,2.314-.726,34.823,8.82,74.836,22.944,108.7,5.4-27.964,30.108-78.984,11.872-111.031-4.671Zm9.7-2.605c32.79-7.034,66.473,2.828,99.726,4.019C278.4,239.139,242.044,227.825,209.634,219.228Zm106.668.447c-.083,0-.149-.056-.248-.056-37.963.112-76.571-13.231-113.923-2.363-.876-.223-1.752-.447-2.628-.651a1.434,1.434,0,0,0-.892.074c14.313-15.538,33.683-24.284,53.714-23.446,22.709.93,44.36,14.98,64.771,25.289-.248.409-.529.763-.793,1.135Z" transform="translate(19.833 18.266)" fill="#fff"/>
              <path id="Path_903983" data-name="Path 903983" d="M237.7,311.776c-16.874-14.105-34.625-27.764-55.813-31.839a117.8,117.8,0,0,0-27.254-2.27,80.984,80.984,0,0,0-27.832,5.694c-3.058,1.265-6.214,2.512-8.33,5.545-.859,1.228-1.587,1.117-2.562.2-6.4-5.9-12.842-11.742-19.254-17.622-2.777-2.549-5.537-5.136-8.363-7.741,1.273-1.1,2.281-.279,3.19-.056,8.644,2.1,17.188,1.1,25.584-1.321a114.417,114.417,0,0,0,31.766-15.091c5.917-3.945,11.9-7.815,17.85-11.7,7.536-4.931,13.883-11.258,20.725-17.138.711-.614,1.487-1.489,1.273-2.475a2.608,2.608,0,0,0-1.041-1.358c-7.189-5.843-15.519-11.593-24.444-12.97a48.62,48.62,0,0,0-28.328,4.243c-15.238,7.053-27.948,18.162-39.352,31.336-1.438,1.656-2.677,3.536-3.983,5.341a66.548,66.548,0,0,0-7.074,13.491c-1.058,2.512-1.669,2.642-3.438,1.042q-14.775-13.2-29.5-26.461c-1.934-1.731-2.644-2.9-2.132-4.019a46.49,46.49,0,0,1-4.71-4.485,1.06,1.06,0,0,1-1.785.354,23.76,23.76,0,0,1-2.049-1.768c-8.66-8.3-17.3-16.617-25.5-25.475C10.135,189.594,4.846,183.974,2.1,176.121A.986.986,0,0,0,.9,175.377c-.859.242-.942,1.117-.843,1.842A19.148,19.148,0,0,0,3.16,184.5a74.761,74.761,0,0,0,7.437,9.658c6.561,7.443,13.619,14.254,20.61,21.176,3.355,3.331,6.76,6.569,10.049,9.769-.182,1.545-1.19,2.1-1.9,2.9-9.9,11.109-19.387,22.572-26.725,36.119A92.234,92.234,0,0,0,2.086,296.666,142.984,142.984,0,0,0,2.1,332.022a58.658,58.658,0,0,0,5.123,18.813c3.091,6.327,9.371,12.375,14.561,16.58a87.865,87.865,0,0,0,10.941-24.786A106.782,106.782,0,0,0,35.67,327.3a360.4,360.4,0,0,1,9.057-48.307A144.736,144.736,0,0,0,49.47,245.2c.066-3.926-.694-7.7-1.091-11.556a1.025,1.025,0,0,1,.364-.875,1.225,1.225,0,0,1,.942.13,4.152,4.152,0,0,1,.843.67Q63.642,245.372,76.757,257.2c3.867,3.5,3.735,2.438,1.322,7.946-.926,2.084-1.934,4.112-2.942,6.159a85.976,85.976,0,0,0-5.256,13.268,209.782,209.782,0,0,0-6.528,28.1,87.423,87.423,0,0,0-.463,27.764A124.509,124.509,0,0,0,77.7,382.3c5.157,9.137,12.313,15.24,20.692,20.395a2.183,2.183,0,0,0,1.768.465c.81-.279,1.124-1.359,1.289-2.27.678-3.591,1.091-7.257,1.57-10.886.479-3.722-.149-7.35-.645-10.979-1.173-8.634-2.446-17.231-3.6-25.866a93.238,93.238,0,0,1-.892-12.17c-.05-10.458.033-20.934-.331-31.374-.463-12.97-1.388-25.921-6.694-38.687a7.756,7.756,0,0,1,1.62.688q10.834,9.909,21.651,19.836a11.7,11.7,0,0,1,3.653,8.039,54.146,54.146,0,0,1-.479,9.267c-1.587,17.306-.992,34.407,2.942,51.34A123.519,123.519,0,0,0,133.5,394.62c5.57,9.565,12.329,16.617,20.494,23.223,1.223-11.314,2.248-22.5,1.19-33.9a321.775,321.775,0,0,0-4.611-32.378c17.238,28.229,47.566,43.209,75.1,55.4,1.487.67,2.38-1.377,1.9-2.68-6.892-19.092-16.23-37.086-26.576-54.057-6.71-11-14.461-21.046-25.27-26.48,2.81.3,5.636.484,8.462.577,10.346.335,20.626-.856,30.923-1.879,7.884-.782,15.866-1.861,23.039-5.936a2.762,2.762,0,0,0,1.173-1.023c.678-1.3-.512-2.791-1.587-3.685Zm-63.416-85.3c-2.942,2.363-6,4.54-9.09,6.625-5.454,3.684-11.024,7.183-16.478,10.867a120.972,120.972,0,0,1-26.2,13.6c-8.71,3.182-17.618,5.415-26.907,3.908-1.008-.167-2.066-.093-2.876-1.47,13.767-3.7,25.981-11.221,38.063-18.962,9.454-6.048,19.089-11.5,29.716-14.5a73.318,73.318,0,0,0,20.51-8.969,19.99,19.99,0,0,1-6.743,8.913Zm3.6-12.263a.865.865,0,0,1,.066,1.414,21.942,21.942,0,0,1-2.595,1.842,53.942,53.942,0,0,1-13.04,5.359A113.085,113.085,0,0,0,131,237.38c-8.479,5.508-17.023,10.9-26.179,14.924-2.562,1.117-5.173,2.066-7.784,3.052a1.778,1.778,0,0,1-2.082-.3c7.8-4.578,14.164-11.072,20.544-17.492,8.462-8.523,18.362-14.235,28.642-19.26a110.391,110.391,0,0,1,11.569-4.857c6.644-2.345,13.238-1.712,19.866-.409a6.589,6.589,0,0,1,2.314,1.172ZM89.02,252.9a42.717,42.717,0,0,1,2-4.057,70.741,70.741,0,0,1,9.123-12.579c10.958-11.667,22.791-21.828,36.988-28.1a45.061,45.061,0,0,1,25.32-3.536c3.735.558,7.421,1.489,10.71,4.168-1.521.93-2.892.242-4.181.13a39.631,39.631,0,0,0-20.626,4.187c-5.685,2.735-11.3,5.676-16.908,8.653-6.429,3.424-12.065,8.188-17.436,13.361-4.049,3.908-8.115,7.8-12.28,11.556a38.861,38.861,0,0,1-11.635,7.369,1.038,1.038,0,0,1-.959-.167,1.185,1.185,0,0,1-.1-.986ZM15.043,355.785c-2.413-.893-3.636-2.977-4.76-5.1a44.771,44.771,0,0,1-4.446-12.933,130.715,130.715,0,0,1-.38-45.014A77.978,77.978,0,0,1,13.886,267.9c5.14-9.434,10.776-18.441,17.717-26.349,2.991-3.405,5.917-6.885,9.619-11.221a16.867,16.867,0,0,1-2.446,7.332c-2.991,5.434-6.082,10.793-9.189,16.133-2.644,4.54-5.338,9.025-8.032,13.528-6.826,11.388-10.082,24.116-10.743,37.7a175.708,175.708,0,0,0,2.033,38.743c.364,2.084.926,4.112,1.339,6.2.364,1.842,1.223,3.591.876,5.843Zm6.082-3.945c-.38,1.247-.612,3.238-1.835,3.2-1.454-.037-1.686-2.1-2.033-3.48a131.952,131.952,0,0,1-3.223-19.408,196.6,196.6,0,0,1-.711-24.377c.479-14.44,3.752-27.875,11.057-39.952,5.322-8.82,10.445-17.79,15.668-26.684a11.436,11.436,0,0,1,.992-1.284c.793,1.228.033,2.326-.2,3.331A115.75,115.75,0,0,1,35.9,259.077c-1.537,3.908-3.025,7.816-4.677,11.667-4.33,10.141-6.132,20.86-6.214,32.081-.066,10.644-.165,21.307-1.074,31.913a80.6,80.6,0,0,1-2.826,17.1Zm25.2-97.322a175.788,175.788,0,0,1-4.975,27.261,289.817,289.817,0,0,0-7.718,40.845,121.427,121.427,0,0,1-4,20.972c-1.752,5.787-2.677,7.592-6.148,11.2,3.157-11.463,3.537-23.26,3.95-35.039.231-6.96.314-13.919.479-20.9a66.531,66.531,0,0,1,4.264-22.572q2.256-5.862,4.595-11.686c3.537-8.839,6.694-17.827,8.065-27.484.083-.633.331-1.228.876-1.228.578,0,.562.763.628,1.265a67.826,67.826,0,0,1,0,17.362ZM88.937,392.387a32.942,32.942,0,0,1-6.677-8.02,119.313,119.313,0,0,1-16.494-43.413,78.487,78.487,0,0,1-.314-23.111,195.414,195.414,0,0,1,7.9-34.816,85.914,85.914,0,0,1,5.123-12.021c.3-.6.529-1.321,1.306-1.358.529.763.132,1.489,0,2.214a113.057,113.057,0,0,0-1.934,28.824c.81,12.951.314,25.9-.347,38.836a144.828,144.828,0,0,0,.2,19.129,62.891,62.891,0,0,0,5.768,20.934,76.438,76.438,0,0,0,6.049,10.774c.595.875,1.537,1.563,1.5,2.921-.959.465-1.5-.447-2.1-.93Zm4.727-2.177c-1.24.149-1.554-.93-2.049-1.638-8.2-11.742-11.834-25.2-11.635-39.989.116-8.5.562-16.989.892-25.493.281-7.164-.083-14.31-.413-21.455a132.385,132.385,0,0,1,.678-21.418c.182-1.526.463-3.052.76-4.559.1-.521.116-1.3.76-1.34.578-.037.727.614.777,1.172.463,5.192,1.223,10.383,1.322,15.594.182,10.439.05,20.879-.05,31.318a187.476,187.476,0,0,0,4.776,43.618c1.719,7.48,2.892,15.129,4.281,22.7a6.436,6.436,0,0,1-.083,1.489Zm.231-95.926c1.388,11.742,1.322,23.521,1.223,35.337-.132,14.738.678,29.383,3.7,43.8,1.025,4.894,1.917,9.825,1.587,14.924a14.764,14.764,0,0,1-.777,4.522c-.347.875-.777,1.917-1.7,1.973-1.289.074-1.008-1.321-1.091-2.121-1.355-11.928-3.95-23.558-6.429-35.244a146.9,146.9,0,0,1-2.661-21.251c-.826-13.342.1-26.684-.248-40.026a200.851,200.851,0,0,0-1.306-21.4c-.248-1.824-.4-3.684-.711-6.811A35.139,35.139,0,0,1,90.8,278.448,78.533,78.533,0,0,1,93.9,294.284ZM146.684,407.7c-1.521-1.824-3.107-3.573-4.562-5.452a101.037,101.037,0,0,1-17.172-34.835,156.891,156.891,0,0,1-4.76-60.905,9.449,9.449,0,0,1,.413-1.675c.05-.149.248-.242.562-.5,1.6,5.731,2.925,11.351,2.925,17.417a116.32,116.32,0,0,0,1.6,17.883c2.826,17.92,9.3,34.425,15.139,51.173,1.934,5.545,4.314,10.9,6.479,16.357-.215.186-.43.354-.645.54Zm1.487-8.095c-.578.391-.975-.093-1.19-.633-3.752-9.137-7.173-18.422-10.1-27.95-.446-1.47-.926-2.922-1.471-4.336-3.653-9.676-5.7-19.874-7.47-30.146a68.457,68.457,0,0,1-1.058-13.286c.1-4.075-.545-8.095-.859-12.244a51.974,51.974,0,0,1,5.636,14.775c1.107,5.471,2.182,10.96,3.025,16.487a85.1,85.1,0,0,0,5.371,19.334,118.961,118.961,0,0,1,8.313,36.956c.017.354,0,.893-.2,1.023Zm3.818,5.359c-.76-5.75-1.454-10.142-1.917-14.552A106.323,106.323,0,0,0,143.031,362a94.2,94.2,0,0,1-6.347-23.837,104.163,104.163,0,0,0-8.28-29.792c-.612-1.377-1.091-2.829-1.57-4.28a3.354,3.354,0,0,1,.05-1.135c.992-.13,1.454.744,2.033,1.377,5.752,6.42,9.123,14.459,12.3,22.646a133.327,133.327,0,0,1,5.272,18.813c3.438,15.24,5.933,30.667,6.347,46.428.1,3.8.463,7.685-.81,12.747Zm-2.859-63.082a1.556,1.556,0,0,0-.909-.837,128.112,128.112,0,0,0-9.52-27c25.469,29.68,57.069,52.494,79.381,85.524C191.325,387.251,163.261,371.229,149.13,341.884Zm21.882-16.245c14.528,5.452,23.353,19.706,31.286,33.607a322.41,322.41,0,0,1,19.75,40.12c-23.122-35.077-56.491-58.653-82.885-90.232,1.818,1.228,3.636,2.456,5.471,3.7a60.745,60.745,0,0,0,21.568,9.379c1.289.279,2.595.521,3.9.744a1.96,1.96,0,0,0,.926,2.68Zm49.285-7.574a147.654,147.654,0,0,1-19.965,2.661,160.724,160.724,0,0,1-23.188,0c-11.867-1-22.99-4.559-33.055-11.891-5.785-4.205-11.6-8.337-17.387-12.523-.413-.3-.81-.763-.479-1.358.132-.242.595-.279.909-.372a2.362,2.362,0,0,1,.512.019c12.495-.391,13.4-.112,24.3,7.276,2.942,1.991,5.966,3.87,8.892,5.9a38.469,38.469,0,0,0,24.642,6.866c6.859-.354,13.734-.688,20.593-1.135a71.373,71.373,0,0,1,17.469.893,20.471,20.471,0,0,1,2.562.837c-1.752,1.917-3.785,2.382-5.8,2.791Zm-76.968-25.233a5.469,5.469,0,0,1,1.554-.54c11.85.651,23.634,1.712,35.2,5.1,6.479,1.9,13.156,2.884,19.75,4.206a73.551,73.551,0,0,1,13.453,4,27.433,27.433,0,0,1,8.726,5.248c-5.57-.279-10-.67-14.461-.316-6.347.484-12.693.819-19.04,1.117a86,86,0,0,1-8.76-.019,29.8,29.8,0,0,1-13.387-3.908c-2.595-1.526-5.173-3.07-7.7-4.708-5.041-3.275-10.032-6.643-15.337-10.141ZM225.007,309c-7.074-5.545-15.073-8.392-23.4-10.123-10.313-2.121-20.626-4.131-30.824-6.885a76.564,76.564,0,0,0-13.271-1.972c-4.958-.447-9.949-.688-14.908-1.117-6.528-.558-13.04-.8-20.1,1.079a5.4,5.4,0,0,1,2.892-2.642,72.047,72.047,0,0,1,26.576-6.476,122.8,122.8,0,0,1,27.733,1.842c16.23,2.773,30.526,10.309,43.153,21.976,1.372,1.265,2.975,2.438,3.686,4.429-.777.651-1.173.149-1.521-.112Z" transform="translate(-0.02 141.909)" fill="#fff"/>
            </g>
            <g id="Group_1143282" data-name="Group 1143282" transform="translate(4.032 793.103)">
              <path id="Path_903984" data-name="Path 903984" d="M95.523,478.954c-1.107.354-1.785,1.265-2.165,2.866a17.887,17.887,0,0,0-.248,3.87c0,2.642.033,2.977.3,3.629a4.3,4.3,0,0,0,1.95,2.27,3.51,3.51,0,0,1,1.058.726,1.32,1.32,0,0,0,.81.447c.578,0,1.273-.614,1.653-1.489.364-.763.364-.8.364-4.633,0-4.224-.149-5.359-.859-6.4a2.83,2.83,0,0,0-2.876-1.3h0Zm0,0" transform="translate(-26.603 -478.859)" fill="#fff"/>
              <path id="Path_903985" data-name="Path 903985" d="M116.531,484.479a3.475,3.475,0,0,0-1.521,1.451l-.38.651v3.461c.033,3.629.2,5.415.645,6.773.777,2.326,2.644,3.629,4,2.828,1.653-.968,2.3-3.759,1.983-8.5-.2-3.126-.545-4.41-1.487-5.583a3.9,3.9,0,0,0-1.091-.949,2.888,2.888,0,0,0-2.149-.13h0Zm0,0" transform="translate(-12.556 -474.149)" fill="#fff"/>
              <path id="Path_903986" data-name="Path 903986" d="M134.048,485.21a4.186,4.186,0,0,0-1.587,1.973c-.694,1.786-.76,10.421-.1,12.933a5.781,5.781,0,0,0,1.752,2.81c.578.465.744.5,1.719.5s1.124-.056,1.653-.465a4.173,4.173,0,0,0,1.058-1.433,6.011,6.011,0,0,0,.612-2.828,42.269,42.269,0,0,0-.149-7.127c-.5-3.61-1.306-5.49-2.661-6.29a2.718,2.718,0,0,0-2.281-.074h0Zm0,0" transform="translate(-1.283 -473.577)" fill="#fff"/>
              <path id="Path_903987" data-name="Path 903987" d="M145.8,492.2a3.35,3.35,0,0,0-1.5,1.507l-.38.726v3.536a43.825,43.825,0,0,0,.512,7.7c.512,2.475,2.132,4.392,3.7,4.392s2.81-1.675,3.091-4.336a53.594,53.594,0,0,0-.331-8.616c-.645-3.424-1.917-5.08-3.9-5.1a3.1,3.1,0,0,0-1.19.2h0Zm0,0" transform="translate(6.563 -467.538)" fill="#fff"/>
              <path id="Path_903988" data-name="Path 903988" d="M182.459,492.808a3.043,3.043,0,0,0-1.421,1.433c-.479,1.042-1.025,7.8-.76,9.341.38,2.121,1.5,3.5,2.876,3.5,1.025,0,1.8-.651,2.413-1.972a4.749,4.749,0,0,0,.413-2.233,46.252,46.252,0,0,0-.463-7.034c-.43-2.289-1.62-3.48-3.058-3.052h0Zm0,0" transform="translate(30.249 -466.941)" fill="#fff"/>
              <path id="Path_903989" data-name="Path 903989" d="M83.883,496.453a5.617,5.617,0,0,0-2.4,3.07,23.679,23.679,0,0,0-1.471,7.8c.215,2.773,1.95,4.875,4.066,4.875a3.054,3.054,0,0,0,2.562-1.228c1.322-1.377,1.851-3.7,1.9-8.243a12.97,12.97,0,0,0-.231-3.331,4.657,4.657,0,0,0-1.735-2.605,3.564,3.564,0,0,0-2.677-.316h0Zm0,0" transform="translate(-35.16 -463.812)" fill="#fff"/>
              <path id="Path_903990" data-name="Path 903990" d="M168.639,498.92c-1.6.986-2.082,2.922-2.1,8.616,0,3.331,0,3.573.314,4.429a6.023,6.023,0,0,0,2.033,2.7,2.677,2.677,0,0,0,2.264,0,4.112,4.112,0,0,0,1.372-1.861c.38-1.135.347-5.3-.05-9.825-.215-2.326-.661-3.387-1.7-4a3.116,3.116,0,0,0-2.132-.037h0Zm0,0" transform="translate(21.327 -461.72)" fill="#fff"/>
              <path id="Path_903991" data-name="Path 903991" d="M99.708,499.76c-1.256.707-1.851,1.9-2.248,4.485-.727,4.671-.826,7.294-.314,8.913,1.355,4.447,5.537,4.875,7.272.726.628-1.489.777-2.773.76-6.29,0-3.312-.165-4.578-.744-5.88-.975-2.14-2.958-2.959-4.727-1.973h0Zm0,0" transform="translate(-24.178 -461.239)" fill="#fff"/>
              <path id="Path_903992" data-name="Path 903992" d="M126.417,504.317c-.678.521-.942,1.228-1.207,3.182-.578,4.485-.4,5.694,1.074,7.034a2.34,2.34,0,0,0,3.586-.67c.826-1.265.876-2.605.231-5.62-.645-2.977-1.306-4.094-2.545-4.224a1.276,1.276,0,0,0-1.14.3h0Zm0,0" transform="translate(-5.849 -457.217)" fill="#fff"/>
              <path id="Path_903993" data-name="Path 903993" d="M156.908,504.4a4.291,4.291,0,0,0-1.6,2.159,107.852,107.852,0,0,0,.05,11.76c.512,3.331,2.958,5.192,4.71,3.591a6.01,6.01,0,0,0,1.554-2.922,31.873,31.873,0,0,0,.3-6.773c-.314-4.094-1.124-6.587-2.463-7.611a2.661,2.661,0,0,0-2.545-.242h0Zm0,0" transform="translate(13.903 -457.094)" fill="#fff"/>
              <path id="Path_903994" data-name="Path 903994" d="M115.706,505.438c-.661.484-1.025,1.414-1.537,3.871a12.432,12.432,0,0,0-.281,5.248,3.779,3.779,0,0,0,1.851,2.159,2.5,2.5,0,0,0,2.859-1.545,9.5,9.5,0,0,0,.38-3.573c0-4.168-.331-5.713-1.306-6.29a1.8,1.8,0,0,0-1.967.13h0Zm0,0" transform="translate(-13.153 -456.291)" fill="#fff"/>
              <path id="Path_903995" data-name="Path 903995" d="M140.879,507.737a3.848,3.848,0,0,0-1.355,2.14,27.036,27.036,0,0,0-.793,4.838c0,2.214,1.14,4.075,2.644,4.3a2.139,2.139,0,0,0,2.248-.875c1.157-1.3,1.339-2.661.843-6.439-.314-2.4-.628-3.294-1.372-3.87a1.943,1.943,0,0,0-2.2-.093h0Zm0,0" transform="translate(3.175 -454.255)" fill="#fff"/>
              <path id="Path_903996" data-name="Path 903996" d="M177.618,509.349c-.942.651-1.388,2.587-1.7,7.462a35.14,35.14,0,0,0,.083,7.481,4.408,4.408,0,0,0,1.57,2.419c1.025.6,2.264-.428,2.727-2.27a63.756,63.756,0,0,0,.512-11.835c-.165-1.917-.5-2.773-1.173-3.256a1.844,1.844,0,0,0-2.016,0h0Zm0,0" transform="translate(27.355 -452.87)" fill="#fff"/>
              <path id="Path_903997" data-name="Path 903997" d="M151.177,514.884c-2.149.521-3.355,3.871-3.223,8.895a5.924,5.924,0,0,0,.5,2.94,3.969,3.969,0,0,0,2.1,2.27c1.206.521,2.595-.261,3.289-1.8.38-.819.545-2.847.562-6.55,0-3.294,0-3.48-.3-4.112a2.735,2.735,0,0,0-2.925-1.619h0Zm0,0" transform="translate(9.189 -447.873)" fill="#fff"/>
              <path id="Path_903998" data-name="Path 903998" d="M165.437,515.179a4.18,4.18,0,0,0-2.016,2.642,24.923,24.923,0,0,0-.76,6.625c0,2.307,0,2.568.314,3.238,1.421,3.2,4.562,3.033,5.52-.3.678-2.363.843-8.057.3-9.9a3.956,3.956,0,0,0-1.851-2.382,1.681,1.681,0,0,0-1.487.074h0Zm0,0" transform="translate(18.795 -447.777)" fill="#fff"/>
              <path id="Path_903999" data-name="Path 903999" d="M92.221,517.552a2.63,2.63,0,0,0-1.4,1.638,6.964,6.964,0,0,0-.165,2.642,5.453,5.453,0,0,0,.479,2.866c1.041,2.326,3.19,2.549,4.132.409a5.632,5.632,0,0,0,.314-2.7c0-2.047-.149-2.847-.661-3.666a2.275,2.275,0,0,0-2.694-1.172h0Zm0,0" transform="translate(-28.226 -445.648)" fill="#fff"/>
              <path id="Path_904000" data-name="Path 904000" d="M115.15,518.046c-1.124.3-2,1.452-2.777,3.61a10.493,10.493,0,0,0-.744,3.982c0,5.359,5.388,6.866,7.355,2.066a5.894,5.894,0,0,0,.43-2.512c.132-3.778-.992-6.606-2.826-7.127a1.922,1.922,0,0,0-1.438,0h0Zm0,0" transform="translate(-14.514 -445.229)" fill="#fff"/>
              <path id="Path_904001" data-name="Path 904001" d="M84.4,518.636c-1.14.279-2.132,1.451-2.644,3.163-.264.875-1.14,6.2-1.322,7.964-.264,2.642.512,4.764,2.116,5.787a3.326,3.326,0,0,0,4.462-.633c1.438-1.47,1.752-2.81,1.768-7.294,0-3.536-.215-5.415-.744-6.7-.711-1.768-2.132-2.642-3.653-2.289h0Zm0,0" transform="translate(-34.913 -444.684)" fill="#fff"/>
              <path id="Path_904002" data-name="Path 904002" d="M138.209,519.21c-1.537.354-2.281,2.1-2.463,5.806a6.55,6.55,0,0,0,.149,2.531c.859,3.126,3.8,3.48,5.041.651.4-.856.4-1.023.446-3.442a18.736,18.736,0,0,0-.1-3.163c-.413-1.712-1.686-2.717-3.074-2.382h0Zm0,0" transform="translate(1.2 -444.179)" fill="#fff"/>
              <path id="Path_904003" data-name="Path 904003" d="M125.1,524.022a3.417,3.417,0,0,0-1.372,1.954,34.717,34.717,0,0,0-.744,7.2c-.066,2.642-.05,3.108.182,3.926.578,2.047,2.248,3.033,3.7,2.159a4.7,4.7,0,0,0,1.587-2.252,30.6,30.6,0,0,0,.083-10.142,7.429,7.429,0,0,0-.678-1.861,2.077,2.077,0,0,0-2.76-.968h0Zm0,0" transform="translate(-7.126 -440.152)" fill="#fff"/>
              <path id="Path_904004" data-name="Path 904004" d="M158.685,525.529a2.845,2.845,0,0,0-1.471.986c-.892,1.154-1.124,2.977-1.124,8.969,0,5.154.05,5.657,1.008,7.071,1.289,1.917,3.355,1.954,4.595.112.6-.893.843-1.9,1.025-4.187.347-4.075-.132-9.285-1.041-11.221a2.7,2.7,0,0,0-2.975-1.712h0Zm0,0" transform="translate(14.506 -438.719)" fill="#fff"/>
              <path id="Path_904005" data-name="Path 904005" d="M101.407,527.24a3.676,3.676,0,0,0-2.529,2.307,30.757,30.757,0,0,0-1.207,7,6.466,6.466,0,0,0,1.554,5.229c1.14,1.135,2.413,1.061,3.653-.186a7.968,7.968,0,0,0,1.917-4.224c.793-3.722.975-6.122.545-7.518a3.464,3.464,0,0,0-3.934-2.605h0Zm0,0" transform="translate(-23.645 -437.266)" fill="#fff"/>
              <path id="Path_904006" data-name="Path 904006" d="M177.872,528.294a4.252,4.252,0,0,0-1.537,1.712,29.383,29.383,0,0,0-.975,5.806c0,2.605,1.57,4.708,3.487,4.708,1.4,0,2.562-.93,3.305-2.661a5.628,5.628,0,0,0,.446-2.568c.1-3.554-.711-5.917-2.38-6.885a3.2,3.2,0,0,0-2.347-.13h0Zm0,0" transform="translate(27.085 -436.46)" fill="#fff"/>
              <path id="Path_904007" data-name="Path 904007" d="M145.213,530.451a4.351,4.351,0,0,0-1.934,3,26.635,26.635,0,0,0-.463,5.583c.281,4.6,4.049,6.122,5.768,2.326.463-1.023.645-2.512.661-5.173,0-2.531-.231-3.759-.942-4.782a2.465,2.465,0,0,0-3.074-.949h0Zm0,0" transform="translate(5.831 -434.634)" fill="#fff"/>
              <path id="Path_904008" data-name="Path 904008" d="M84.737,537.268a2.942,2.942,0,0,0-1.835,1.116c-.76.875-1.091,1.8-1.57,4.559-.76,4.429-.562,6.122.859,7.908a3.979,3.979,0,0,0,3.272,1.712,2.959,2.959,0,0,0,1.95-.54,5.594,5.594,0,0,0,2.446-3.089,7.4,7.4,0,0,0,.314-3.182,12.68,12.68,0,0,0-.975-5.582c-.959-2.2-2.628-3.275-4.479-2.884h0Zm0,0" transform="translate(-34.576 -428.63)" fill="#fff"/>
              <path id="Path_904009" data-name="Path 904009" d="M134.419,537.435a3.28,3.28,0,0,0-1.669,2.084,66,66,0,0,0-1.19,8.467,4.664,4.664,0,0,0,1.124,3.517,2.382,2.382,0,0,0,3.355.6,4.049,4.049,0,0,0,1.554-2.121c.314-.744.314-.93.314-4.54-.033-5.21-.3-6.587-1.471-7.648a1.792,1.792,0,0,0-2.016-.354Zm0,0" transform="translate(-1.505 -428.574)" fill="#fff"/>
              <path id="Path_904010" data-name="Path 904010" d="M113.5,541.857a4.028,4.028,0,0,0-1.5,2.084,73.263,73.263,0,0,0-1.471,9.211,14.961,14.961,0,0,0-.231,4.261c.5,3.889,3.4,6.122,6.049,4.652,1.421-.781,2.347-2.4,2.628-4.615a42.6,42.6,0,0,0-.578-8.6c-.595-4.559-1.074-5.9-2.413-6.9a2.3,2.3,0,0,0-2.479-.093Zm0,0" transform="translate(-15.431 -424.902)" fill="#fff"/>
              <path id="Path_904011" data-name="Path 904011" d="M167.634,542.9c-1.124.763-1.587,2.066-2.611,7.5-.727,3.926-.76,5.3-.215,6.68.744,1.786,1.983,2.773,3.52,2.773a3.842,3.842,0,0,0,3.52-2.512c.38-.856.4-1,.4-3.089a38.078,38.078,0,0,0-1.388-9.918c-.645-1.563-2.049-2.214-3.223-1.451h0Zm0,0" transform="translate(19.952 -424.024)" fill="#fff"/>
              <path id="Path_904012" data-name="Path 904012" d="M150.93,544.028a3.78,3.78,0,0,0-1.438,1.935,67.068,67.068,0,0,0-1.289,11.519,6.112,6.112,0,0,0,2.215,4.782,2.134,2.134,0,0,0,1.653.54c1.5,0,2.611-.893,3.355-2.661.727-1.731.76-3.61.182-8.634-.43-3.759-.859-5.638-1.537-6.625a2.387,2.387,0,0,0-3.157-.837h0Zm0,0" transform="translate(9.353 -422.997)" fill="#fff"/>
              <path id="Path_904013" data-name="Path 904013" d="M122.806,545.383c-.992.6-1.173,1.154-1.587,4.559-.446,3.666-.264,5.061.843,6.345,1.4,1.638,3.388,1.191,4.462-1,.413-.856.413-.893.4-3.145,0-3.349-.578-5.4-1.752-6.494a1.949,1.949,0,0,0-2.363-.261Zm0,0" transform="translate(-8.403 -421.839)" fill="#fff"/>
              <path id="Path_904014" data-name="Path 904014" d="M94.228,547.169c-1.339.558-2.3,2.084-2.611,4.168-.083.558-.314,1.9-.512,2.977-.645,3.5-.314,5.564,1.157,7.09a3.829,3.829,0,0,0,4.776.856c2.033-1.023,3.008-3.219,2.991-6.755,0-3.5-.76-6.122-2.1-7.481a3.541,3.541,0,0,0-3.7-.856h0Zm0,0" transform="translate(-28.117 -420.24)" fill="#fff"/>
              <path id="Path_904015" data-name="Path 904015" d="M180.446,546.975c-1.157.354-1.735,1.191-2.644,3.815a7.028,7.028,0,0,0-.612,3.219,4.89,4.89,0,0,0,.347,2.363,3.482,3.482,0,0,0,3.272,2.512,3.092,3.092,0,0,0,2.545-1.247,6.662,6.662,0,0,0,1.421-4.578c0-2.382-.578-4.28-1.653-5.322a2.4,2.4,0,0,0-2.677-.763Zm0,0" transform="translate(28.279 -420.343)" fill="#fff"/>
              <path id="Path_904016" data-name="Path 904016" d="M205.879,540.27a3.993,3.993,0,0,0-1.95,1.991,32.839,32.839,0,0,0-.926,7.35,6.386,6.386,0,0,0,1.322,3.778c2.066,2.586,5.173,1.786,6.313-1.638.314-.875.331-1.21.314-3.331-.033-4.578-.777-6.9-2.562-7.927a3.24,3.24,0,0,0-2.529-.242h0Zm0,0" transform="translate(45.123 -426.143)" fill="#fff"/>
              <path id="Path_904017" data-name="Path 904017" d="M63.317,524.2c-1.025.633-1.388,1.377-1.967,4.243-.5,2.494-.545,4.578-.1,5.49.711,1.489,1.9,2.177,3.107,1.8a4.071,4.071,0,0,0,2.082-2.27,31.968,31.968,0,0,0,.182-6.4,3.731,3.731,0,0,0-1.107-2.587,2.011,2.011,0,0,0-2.2-.279h0Zm0,0" transform="translate(-47.599 -440.012)" fill="#fff"/>
              <path id="Path_904018" data-name="Path 904018" d="M66.159,541.777c-1.289.521-1.835,1.377-2.545,3.926-1.223,4.317-1.223,7-.033,8.765,1.124,1.656,2.595,2.121,4.066,1.321a5.96,5.96,0,0,0,2.562-4.15,23.341,23.341,0,0,0-.05-5.768c-.38-2.438-1.19-3.778-2.529-4.15a1.569,1.569,0,0,0-1.471.056h0Zm0,0" transform="translate(-46.458 -424.877)" fill="#fff"/>
              <path id="Path_904019" data-name="Path 904019" d="M204.334,523.014a4.386,4.386,0,0,0-1.206,2.363,81.368,81.368,0,0,0-1.058,8.113,5.712,5.712,0,0,0,1.074,3.666,2.489,2.489,0,0,0,2.2,1.023,3.59,3.59,0,0,0,1.917-1.954c.512-1.154.446-3.61-.215-7.89-.612-3.982-.81-4.726-1.372-5.266-.512-.465-.76-.484-1.339-.074h0Zm0,0" transform="translate(44.519 -441.116)" fill="#fff"/>
              <path id="Path_904020" data-name="Path 904020" d="M73.441,531.1a3.6,3.6,0,0,0-1.967,2.047,33.766,33.766,0,0,0-1.57,8.988,7.277,7.277,0,0,0,.132,2.475c.645,2.512,2.71,3.647,4.661,2.549,1.306-.744,2-2.065,2.33-4.559a34.842,34.842,0,0,0,0-7.425c-.413-3.089-1.719-4.578-3.6-4.057h0Zm0,0" transform="translate(-41.774 -433.961)" fill="#fff"/>
              <path id="Path_904021" data-name="Path 904021" d="M73.386,510.57a4.479,4.479,0,0,0-1.835,1.154c-.628.763-.909,1.638-1.372,4.187-.628,3.5-.694,4.54-.446,5.917a6.159,6.159,0,0,0,1.454,3.219c2.1,2.531,5.305,1.972,6.925-1.154a10.4,10.4,0,0,0,.661-2.01A9.706,9.706,0,0,0,79,518.609c-.149-3.964-1.206-6.587-3.041-7.629a3.867,3.867,0,0,0-2.562-.391h0Zm0,0" transform="translate(-41.95 -451.617)" fill="#fff"/>
              <path id="Path_904022" data-name="Path 904022" d="M55.961,535.743c-1.157.67-1.587,1.656-2.363,5.322-.331,1.619-.661,3.405-.694,3.982-.364,4.075,2.281,7.071,4.925,5.582a3.915,3.915,0,0,0,1.768-2.1c.545-1.191.678-2.568.578-5.564-.165-4.782-.5-6.048-1.818-7.071a2.291,2.291,0,0,0-2.38-.149h0Zm0,0" transform="translate(-52.87 -430.12)" fill="#fff"/>
              <path id="Path_904023" data-name="Path 904023" d="M190.175,520.178a3.608,3.608,0,0,0-1.372,1.8,23,23,0,0,0-.5,2.363c-.2,1.042-.529,2.9-.76,4.168-.5,2.661-.512,3.536-.132,4.894.578,2.1,2.016,3.405,3.553,3.219,2.016-.242,3.454-2.065,3.917-4.968a26.564,26.564,0,0,0-.364-8.671,4.722,4.722,0,0,0-1.438-2.568,1.834,1.834,0,0,0-1.471-.521,2.022,2.022,0,0,0-1.454.261h0Zm0,0" transform="translate(34.78 -443.547)" fill="#fff"/>
              <path id="Path_904024" data-name="Path 904024" d="M220.909,530.912c-1.223.726-1.686,2.121-2.529,7.8-.5,3.275-.5,5.452-.066,6.7.694,2.028,1.917,3.126,3.438,3.126a3.658,3.658,0,0,0,3.355-2.568c.645-1.489.76-3.163.479-6.96-.463-6.122-1.273-8.188-3.305-8.318a1.9,1.9,0,0,0-1.355.261h0Zm0,0" transform="translate(54.917 -434.258)" fill="#fff"/>
              <path id="Path_904025" data-name="Path 904025" d="M218.524,548.669c-1.074.446-1.57,1.247-2.1,3.368-.512,2.065-.5,3.182.1,4.447a2.758,2.758,0,0,0,2.545,1.991c1.471.112,2.33-.521,3.14-2.27.562-1.228.3-4.6-.5-6.1a2.539,2.539,0,0,0-3.173-1.414h0Zm0,0" transform="translate(53.65 -418.892)" fill="#fff"/>
              <path id="Path_904026" data-name="Path 904026" d="M233.205,541.077a3.559,3.559,0,0,0-.843.484c-1.57,1.265-2.082,3.238-2.082,8.15,0,4,.331,5.545,1.57,6.922,2,2.252,5.14,1.489,6.4-1.545a12.4,12.4,0,0,0,.76-5.155,14.394,14.394,0,0,0-.3-3.7c-.6-2.661-1.5-4.224-2.909-4.95a3.628,3.628,0,0,0-2.611-.223h0Zm0,0" transform="translate(62.933 -425.442)" fill="#fff"/>
              <path id="Path_904027" data-name="Path 904027" d="M191.751,507.294a4.547,4.547,0,0,0-1.818,1.991,25.944,25.944,0,0,0-.529,5.806,5.026,5.026,0,0,0,.3,2.587,4.71,4.71,0,0,0,1.835,2.233,3.8,3.8,0,0,0,3.388.093,5.851,5.851,0,0,0,2.744-3.982,10.747,10.747,0,0,0-1.521-7.555,3.643,3.643,0,0,0-4.4-1.172h0Zm0,0" transform="translate(36.245 -454.667)" fill="#fff"/>
              <path id="Path_904028" data-name="Path 904028" d="M192.694,540.116a3.834,3.834,0,0,0-1.14,1.228,46.043,46.043,0,0,0-2.264,7.443,5.812,5.812,0,0,0,1.388,4.894,3.238,3.238,0,0,0,2.463,1.172c2.4.149,4.3-1.693,4.958-4.838a22.959,22.959,0,0,0,0-5.638c-.38-2.233-1.273-3.833-2.463-4.429a3.117,3.117,0,0,0-2.942.149h0Zm0,0" transform="translate(36.128 -426.528)" fill="#fff"/>
            </g>
            <g id="Group_1143283" data-name="Group 1143283" transform="translate(896.346 -8.608)">
              <path id="Path_904029" data-name="Path 904029" d="M624.163,52.194c-1.107.354-1.785,1.265-2.165,2.866a17.9,17.9,0,0,0-.248,3.871c0,2.642.033,2.977.3,3.629a4.3,4.3,0,0,0,1.95,2.27,3.508,3.508,0,0,1,1.058.726,1.321,1.321,0,0,0,.81.447c.578,0,1.273-.614,1.653-1.489.364-.763.364-.8.364-4.633,0-4.224-.149-5.359-.859-6.4a2.83,2.83,0,0,0-2.876-1.3h0Zm0,0" transform="translate(-573.853 -44.516)" fill="#fff"/>
              <path id="Path_904030" data-name="Path 904030" d="M710.943,69.354c-1.107.354-1.785,1.265-2.165,2.866a17.887,17.887,0,0,0-.248,3.871c0,2.642.033,2.977.3,3.629a4.3,4.3,0,0,0,1.95,2.27,3.51,3.51,0,0,1,1.058.726,1.321,1.321,0,0,0,.81.447c.578,0,1.273-.614,1.653-1.489.364-.763.364-.8.364-4.633,0-4.224-.149-5.359-.859-6.4a2.83,2.83,0,0,0-2.876-1.3h0Zm0,0" transform="translate(-517.208 -29.745)" fill="#fff"/>
              <path id="Path_904031" data-name="Path 904031" d="M600.711,56.349A3.473,3.473,0,0,0,599.19,57.8l-.38.651v3.461c.033,3.629.2,5.415.645,6.773.777,2.326,2.644,3.629,4,2.828,1.653-.968,2.3-3.759,1.983-8.5-.2-3.126-.545-4.41-1.487-5.582a3.9,3.9,0,0,0-1.091-.949,2.888,2.888,0,0,0-2.149-.13h0Zm0,0" transform="translate(-588.827 -40.986)" fill="#fff"/>
              <path id="Path_904032" data-name="Path 904032" d="M614.148,103.97a4.186,4.186,0,0,0-1.587,1.972c-.694,1.786-.76,10.421-.1,12.933a5.781,5.781,0,0,0,1.752,2.81c.578.465.744.5,1.719.5s1.124-.056,1.653-.465a4.175,4.175,0,0,0,1.058-1.433,6.012,6.012,0,0,0,.612-2.828,42.269,42.269,0,0,0-.149-7.127c-.5-3.61-1.306-5.489-2.661-6.29a2.718,2.718,0,0,0-2.281-.074h0Zm0,0" transform="translate(-580.216 -0.05)" fill="#fff"/>
              <path id="Path_904033" data-name="Path 904033" d="M715.048,48.24a4.186,4.186,0,0,0-1.587,1.972c-.694,1.786-.76,10.421-.1,12.933a5.781,5.781,0,0,0,1.752,2.81c.578.465.744.5,1.719.5s1.124-.056,1.653-.465a4.174,4.174,0,0,0,1.058-1.433,6.012,6.012,0,0,0,.612-2.828,42.289,42.289,0,0,0-.149-7.127c-.5-3.61-1.306-5.489-2.661-6.29a2.718,2.718,0,0,0-2.281-.074h0Zm0,0" transform="translate(-514.355 -48.024)" fill="#fff"/>
              <path id="Path_904034" data-name="Path 904034" d="M687.934,99.1a3.35,3.35,0,0,0-1.5,1.507l-.38.726v3.536a43.819,43.819,0,0,0,.512,7.7c.512,2.475,2.132,4.392,3.7,4.392s2.81-1.675,3.091-4.336a53.6,53.6,0,0,0-.331-8.616c-.645-3.424-1.917-5.08-3.9-5.1a3.1,3.1,0,0,0-1.19.2h0Zm0,0" transform="translate(-531.882 -4.22)" fill="#fff"/>
              <path id="Path_904035" data-name="Path 904035" d="M675.313,110.273a5.617,5.617,0,0,0-2.4,3.07,23.677,23.677,0,0,0-1.471,7.8c.215,2.773,1.95,4.875,4.066,4.875a3.054,3.054,0,0,0,2.562-1.228c1.322-1.377,1.851-3.7,1.9-8.243a12.97,12.97,0,0,0-.231-3.331,4.656,4.656,0,0,0-1.735-2.605,3.563,3.563,0,0,0-2.677-.316h0Zm0,0" transform="translate(-541.424 5.463)" fill="#fff"/>
              <path id="Path_904036" data-name="Path 904036" d="M639.608,51.44c-1.256.707-1.851,1.9-2.248,4.485-.727,4.671-.826,7.294-.314,8.913,1.355,4.447,5.537,4.875,7.272.726.628-1.489.777-2.773.76-6.29,0-3.312-.165-4.578-.744-5.88-.975-2.14-2.958-2.959-4.727-1.972h0Zm0,0" transform="translate(-564.078 -45.456)" fill="#fff"/>
              <path id="Path_904037" data-name="Path 904037" d="M666.317,56c-.678.521-.942,1.228-1.206,3.182-.578,4.485-.4,5.694,1.074,7.034a2.34,2.34,0,0,0,3.586-.67c.826-1.265.876-2.605.231-5.62-.645-2.977-1.306-4.094-2.545-4.224a1.276,1.276,0,0,0-1.14.3h0Zm0,0" transform="translate(-545.749 -41.434)" fill="#fff"/>
              <path id="Path_904038" data-name="Path 904038" d="M655.606,57.118c-.661.484-1.025,1.414-1.537,3.871a12.434,12.434,0,0,0-.281,5.248,3.778,3.778,0,0,0,1.851,2.159A2.5,2.5,0,0,0,658.5,66.85a9.5,9.5,0,0,0,.38-3.573c0-4.168-.331-5.713-1.306-6.29a1.8,1.8,0,0,0-1.967.13h0Zm0,0" transform="translate(-553.053 -40.508)" fill="#fff"/>
              <path id="Path_904039" data-name="Path 904039" d="M680.779,59.417a3.848,3.848,0,0,0-1.355,2.14,27.034,27.034,0,0,0-.793,4.838c0,2.214,1.14,4.075,2.644,4.3a2.139,2.139,0,0,0,2.248-.875c1.157-1.3,1.339-2.661.843-6.438-.314-2.4-.628-3.294-1.372-3.871a1.943,1.943,0,0,0-2.2-.093h0Zm0,0" transform="translate(-536.725 -38.472)" fill="#fff"/>
              <path id="Path_904040" data-name="Path 904040" d="M691.067,66.564c-2.149.521-3.355,3.871-3.223,8.895a5.925,5.925,0,0,0,.5,2.94,3.969,3.969,0,0,0,2.1,2.27c1.206.521,2.595-.261,3.289-1.805.38-.819.545-2.847.562-6.55,0-3.294,0-3.48-.3-4.112a2.735,2.735,0,0,0-2.925-1.619h0Zm0,0" transform="translate(-530.718 -32.09)" fill="#fff"/>
              <path id="Path_904041" data-name="Path 904041" d="M632.121,69.232a2.63,2.63,0,0,0-1.4,1.638,6.964,6.964,0,0,0-.165,2.642,5.454,5.454,0,0,0,.479,2.866c1.041,2.326,3.19,2.549,4.132.409a5.633,5.633,0,0,0,.314-2.7c0-2.047-.149-2.847-.661-3.666a2.275,2.275,0,0,0-2.694-1.172h0Zm0,0" transform="translate(-568.126 -29.865)" fill="#fff"/>
              <path id="Path_904042" data-name="Path 904042" d="M655.05,69.726c-1.124.3-2,1.451-2.777,3.61a10.492,10.492,0,0,0-.744,3.982c0,5.359,5.388,6.866,7.355,2.066a5.9,5.9,0,0,0,.43-2.512c.132-3.777-.992-6.606-2.826-7.127a1.921,1.921,0,0,0-1.438,0h0Zm0,0" transform="translate(-554.414 -29.446)" fill="#fff"/>
              <path id="Path_904043" data-name="Path 904043" d="M624.3,70.316c-1.14.279-2.132,1.451-2.644,3.163-.264.875-1.141,6.2-1.322,7.964-.264,2.642.512,4.764,2.116,5.787a3.326,3.326,0,0,0,4.462-.633c1.438-1.47,1.752-2.81,1.768-7.294,0-3.536-.215-5.415-.744-6.7-.711-1.768-2.132-2.642-3.653-2.289h0Zm0,0" transform="translate(-574.813 -28.901)" fill="#fff"/>
              <path id="Path_904044" data-name="Path 904044" d="M678.109,70.89c-1.537.354-2.281,2.1-2.463,5.806a6.549,6.549,0,0,0,.149,2.531c.859,3.126,3.8,3.48,5.041.651.4-.856.4-1.023.446-3.443a18.723,18.723,0,0,0-.1-3.163c-.413-1.712-1.686-2.717-3.074-2.382h0Zm0,0" transform="translate(-538.7 -28.396)" fill="#fff"/>
              <path id="Path_904045" data-name="Path 904045" d="M664.989,75.7a3.416,3.416,0,0,0-1.372,1.954,34.724,34.724,0,0,0-.744,7.2c-.066,2.642-.05,3.108.182,3.926.578,2.047,2.248,3.033,3.7,2.159a4.7,4.7,0,0,0,1.587-2.252,30.605,30.605,0,0,0,.083-10.142,7.436,7.436,0,0,0-.678-1.861,2.077,2.077,0,0,0-2.76-.968h0Zm0,0" transform="translate(-547.032 -24.369)" fill="#fff"/>
              <path id="Path_904046" data-name="Path 904046" d="M628.569,115.5a3.416,3.416,0,0,0-1.372,1.954,34.724,34.724,0,0,0-.744,7.2c-.066,2.642-.05,3.108.182,3.926.578,2.047,2.248,3.033,3.7,2.159a4.7,4.7,0,0,0,1.587-2.252,30.605,30.605,0,0,0,.083-10.142,7.431,7.431,0,0,0-.678-1.861,2.076,2.076,0,0,0-2.76-.968h0Zm0,0" transform="translate(-570.805 9.892)" fill="#fff"/>
              <path id="Path_904047" data-name="Path 904047" d="M641.307,78.92a3.676,3.676,0,0,0-2.529,2.307,30.747,30.747,0,0,0-1.207,7,6.466,6.466,0,0,0,1.554,5.229c1.14,1.135,2.413,1.061,3.653-.186a7.967,7.967,0,0,0,1.917-4.224c.793-3.722.975-6.122.546-7.518a3.464,3.464,0,0,0-3.934-2.605Zm0,0" transform="translate(-563.545 -21.484)" fill="#fff"/>
              <path id="Path_904048" data-name="Path 904048" d="M699.407,82.73a3.676,3.676,0,0,0-2.529,2.307,30.756,30.756,0,0,0-1.206,7,6.466,6.466,0,0,0,1.554,5.229c1.14,1.135,2.413,1.061,3.653-.186a7.968,7.968,0,0,0,1.917-4.224c.793-3.722.975-6.122.545-7.518a3.464,3.464,0,0,0-3.933-2.605Zm0,0" transform="translate(-525.621 -18.204)" fill="#fff"/>
              <path id="Path_904049" data-name="Path 904049" d="M662.127,100.25a3.676,3.676,0,0,0-2.529,2.307,30.754,30.754,0,0,0-1.207,7,6.466,6.466,0,0,0,1.554,5.229c1.14,1.135,2.413,1.061,3.653-.186a7.967,7.967,0,0,0,1.917-4.224c.793-3.722.975-6.122.546-7.518a3.464,3.464,0,0,0-3.934-2.605Zm0,0" transform="translate(-549.955 -3.122)" fill="#fff"/>
              <path id="Path_904050" data-name="Path 904050" d="M685.113,82.13a4.351,4.351,0,0,0-1.934,3,26.631,26.631,0,0,0-.463,5.582c.281,4.6,4.049,6.122,5.768,2.326.463-1.023.645-2.512.661-5.173,0-2.531-.231-3.759-.942-4.782a2.465,2.465,0,0,0-3.074-.949h0Zm0,0" transform="translate(-534.069 -18.851)" fill="#fff"/>
              <path id="Path_904051" data-name="Path 904051" d="M624.637,88.948a2.942,2.942,0,0,0-1.835,1.116c-.76.875-1.091,1.805-1.57,4.559-.76,4.429-.562,6.122.859,7.909a3.979,3.979,0,0,0,3.272,1.712,2.958,2.958,0,0,0,1.95-.54,5.594,5.594,0,0,0,2.446-3.089,7.4,7.4,0,0,0,.314-3.182,12.678,12.678,0,0,0-.975-5.582c-.959-2.2-2.628-3.275-4.479-2.884h0Zm0,0" transform="translate(-574.476 -12.847)" fill="#fff"/>
              <path id="Path_904052" data-name="Path 904052" d="M674.309,89.115A3.281,3.281,0,0,0,672.64,91.2a65.994,65.994,0,0,0-1.19,8.467,4.664,4.664,0,0,0,1.124,3.517,2.382,2.382,0,0,0,3.355.6,4.051,4.051,0,0,0,1.554-2.121c.314-.744.314-.93.314-4.54-.033-5.21-.3-6.587-1.471-7.648a1.792,1.792,0,0,0-2.016-.354h0Zm0,0" transform="translate(-541.412 -12.791)" fill="#fff"/>
              <path id="Path_904053" data-name="Path 904053" d="M700.77,55.538a3.781,3.781,0,0,0-1.438,1.935,67.08,67.08,0,0,0-1.289,11.519,6.112,6.112,0,0,0,2.215,4.782,2.134,2.134,0,0,0,1.653.54c1.5,0,2.611-.893,3.355-2.661.727-1.731.76-3.61.182-8.634-.43-3.759-.859-5.638-1.537-6.625a2.387,2.387,0,0,0-3.157-.837h0Zm0,0" transform="translate(-524.059 -41.794)" fill="#fff"/>
              <path id="Path_904054" data-name="Path 904054" d="M647.63,109.568a3.78,3.78,0,0,0-1.438,1.935,67.068,67.068,0,0,0-1.289,11.519,6.111,6.111,0,0,0,2.215,4.782,2.134,2.134,0,0,0,1.653.54c1.5,0,2.611-.893,3.355-2.661.727-1.731.76-3.61.182-8.634-.43-3.759-.859-5.638-1.537-6.625a2.387,2.387,0,0,0-3.157-.837h0Zm0,0" transform="translate(-558.745 4.717)" fill="#fff"/>
              <path id="Path_904055" data-name="Path 904055" d="M653.906,87.663c-.992.6-1.173,1.154-1.587,4.559-.446,3.666-.264,5.061.843,6.345,1.4,1.638,3.388,1.191,4.462-1,.413-.856.413-.893.4-3.145,0-3.349-.578-5.4-1.752-6.494a1.949,1.949,0,0,0-2.363-.261Zm0,0" transform="translate(-554.047 -14.149)" fill="#fff"/>
              <path id="Path_904056" data-name="Path 904056" d="M634.128,98.849c-1.339.558-2.3,2.084-2.611,4.168-.083.558-.314,1.9-.512,2.977-.645,3.5-.314,5.564,1.157,7.09a3.829,3.829,0,0,0,4.776.856c2.033-1.023,3.008-3.219,2.991-6.755,0-3.5-.76-6.122-2.1-7.481a3.54,3.54,0,0,0-3.7-.856Zm0,0" transform="translate(-568.017 -4.457)" fill="#fff"/>
              <path id="Path_904057" data-name="Path 904057" d="M604.4,73.6c-1.025.633-1.388,1.377-1.967,4.243-.5,2.494-.545,4.578-.1,5.489.711,1.489,1.9,2.177,3.107,1.805a4.07,4.07,0,0,0,2.082-2.27,31.97,31.97,0,0,0,.182-6.4,3.731,3.731,0,0,0-1.107-2.587,2.011,2.011,0,0,0-2.2-.279h0Zm0,0" transform="translate(-586.728 -26.192)" fill="#fff"/>
              <path id="Path_904058" data-name="Path 904058" d="M606.059,93.457c-1.289.521-1.834,1.377-2.545,3.926-1.223,4.317-1.223,7-.033,8.765,1.124,1.656,2.595,2.121,4.066,1.321a5.96,5.96,0,0,0,2.562-4.15,23.341,23.341,0,0,0-.05-5.769c-.38-2.438-1.19-3.777-2.529-4.15a1.569,1.569,0,0,0-1.471.056h0Zm0,0" transform="translate(-586.358 -9.095)" fill="#fff"/>
              <path id="Path_904059" data-name="Path 904059" d="M613.341,82.769a3.6,3.6,0,0,0-1.967,2.047A33.763,33.763,0,0,0,609.8,93.8a7.274,7.274,0,0,0,.132,2.475c.645,2.512,2.711,3.647,4.661,2.549,1.306-.744,2-2.066,2.33-4.559a34.848,34.848,0,0,0,0-7.425c-.413-3.089-1.719-4.578-3.6-4.057h0Zm0,0" transform="translate(-581.674 -18.187)" fill="#fff"/>
              <path id="Path_904060" data-name="Path 904060" d="M613.286,62.25a4.477,4.477,0,0,0-1.835,1.154c-.628.763-.909,1.638-1.372,4.187-.628,3.5-.694,4.54-.446,5.917a6.16,6.16,0,0,0,1.454,3.219c2.1,2.531,5.305,1.972,6.925-1.154a10.409,10.409,0,0,0,.661-2.01,9.707,9.707,0,0,0,.231-3.275c-.149-3.964-1.206-6.587-3.041-7.629a3.867,3.867,0,0,0-2.562-.391h0Zm0,0" transform="translate(-581.85 -35.834)" fill="#fff"/>
              <path id="Path_904061" data-name="Path 904061" d="M595.861,87.423c-1.157.67-1.587,1.656-2.363,5.322-.331,1.619-.661,3.405-.694,3.982-.364,4.075,2.281,7.071,4.925,5.582a3.915,3.915,0,0,0,1.768-2.1c.545-1.191.677-2.568.578-5.564-.165-4.782-.5-6.048-1.818-7.071a2.291,2.291,0,0,0-2.38-.149h0Zm0,0" transform="translate(-592.77 -14.337)" fill="#fff"/>
            </g>
          </g>
        </g>
      </g>
    </g>
  </g>
</svg>
