<svg xmlns="http://www.w3.org/2000/svg" xmlns:xlink="http://www.w3.org/1999/xlink" width="595" height="255" viewBox="0 0 595 255">
  <defs>
    <clipPath id="clip-path">
      <rect id="Rectangle_404916" data-name="Rectangle 404916" width="595" height="255" transform="translate(774.349 5978)" fill="#fff" stroke="#707070" stroke-width="1"/>
    </clipPath>
    <clipPath id="clip-path-2">
      <rect id="Rectangle_404915" data-name="Rectangle 404915" width="661.536" height="312" fill="none"/>
    </clipPath>
    <clipPath id="clip-path-3">
      <rect id="Rectangle_404899" data-name="Rectangle 404899" width="596.977" height="287.007" fill="none"/>
    </clipPath>
    <clipPath id="clip-path-4">
      <rect id="Rectangle_404812" data-name="Rectangle 404812" width="9.508" height="13.638" fill="none"/>
    </clipPath>
    <clipPath id="clip-path-5">
      <rect id="Rectangle_404813" data-name="Rectangle 404813" width="1.103" height="21.21" fill="none"/>
    </clipPath>
    <clipPath id="clip-path-6">
      <rect id="Rectangle_404814" data-name="Rectangle 404814" width="6.098" height="18.82" fill="none"/>
    </clipPath>
    <clipPath id="clip-path-7">
      <rect id="Rectangle_404815" data-name="Rectangle 404815" width="8.045" height="12.89" fill="none"/>
    </clipPath>
    <clipPath id="clip-path-8">
      <rect id="Rectangle_404816" data-name="Rectangle 404816" width="1.307" height="10.194" fill="none"/>
    </clipPath>
    <clipPath id="clip-path-9">
      <rect id="Rectangle_404817" data-name="Rectangle 404817" width="8.861" height="11.977" fill="none"/>
    </clipPath>
    <clipPath id="clip-path-10">
      <rect id="Rectangle_404818" data-name="Rectangle 404818" width="1.162" height="19.083" fill="none"/>
    </clipPath>
    <clipPath id="clip-path-11">
      <rect id="Rectangle_404819" data-name="Rectangle 404819" width="4.899" height="17.063" fill="none"/>
    </clipPath>
    <clipPath id="clip-path-12">
      <rect id="Rectangle_404820" data-name="Rectangle 404820" width="6.822" height="11.765" fill="none"/>
    </clipPath>
    <clipPath id="clip-path-13">
      <rect id="Rectangle_404821" data-name="Rectangle 404821" width="0.812" height="9.191" fill="none"/>
    </clipPath>
    <clipPath id="clip-path-14">
      <rect id="Rectangle_404895" data-name="Rectangle 404895" width="553.209" height="63.626" fill="none"/>
    </clipPath>
    <clipPath id="clip-path-15">
      <rect id="Rectangle_404896" data-name="Rectangle 404896" width="77.627" height="13.453" fill="none"/>
    </clipPath>
    <clipPath id="clip-path-16">
      <rect id="Rectangle_404897" data-name="Rectangle 404897" width="38.814" height="6.726" fill="none"/>
    </clipPath>
    <clipPath id="clip-path-17">
      <path id="Path_903671" data-name="Path 903671" d="M501.7,142.023a8,8,0,0,0-6.338,9.457c.765,4.745,4.987,8.392,9.108,7.727s6.844-5.05,6.078-9.795c-.7-4.337-4.069-7.474-7.79-7.474a6.614,6.614,0,0,0-1.058.085" transform="translate(-495.238 -141.938)" fill="none"/>
    </clipPath>
    <clipPath id="clip-path-19">
      <rect id="Rectangle_404902" data-name="Rectangle 404902" width="9.518" height="6.644" fill="none"/>
    </clipPath>
    <clipPath id="clip-path-20">
      <rect id="Rectangle_404903" data-name="Rectangle 404903" width="8.171" height="6.56" fill="none"/>
    </clipPath>
    <clipPath id="clip-path-21">
      <rect id="Rectangle_404905" data-name="Rectangle 404905" width="60.063" height="7.102" fill="none"/>
    </clipPath>
    <clipPath id="clip-path-23">
      <rect id="Rectangle_404907" data-name="Rectangle 404907" width="1.888" height="4.328" fill="none"/>
    </clipPath>
    <clipPath id="clip-path-24">
      <rect id="Rectangle_404908" data-name="Rectangle 404908" width="1.893" height="4.326" fill="none"/>
    </clipPath>
    <clipPath id="clip-path-25">
      <rect id="Rectangle_404909" data-name="Rectangle 404909" width="1.881" height="4.325" fill="none"/>
    </clipPath>
    <clipPath id="clip-path-26">
      <rect id="Rectangle_404910" data-name="Rectangle 404910" width="1.882" height="4.329" fill="none"/>
    </clipPath>
    <clipPath id="clip-path-27">
      <rect id="Rectangle_404911" data-name="Rectangle 404911" width="77.628" height="13.453" fill="none"/>
    </clipPath>
    <clipPath id="clip-path-29">
      <rect id="Rectangle_404913" data-name="Rectangle 404913" width="49.276" height="8.54" fill="none"/>
    </clipPath>
  </defs>
  <g id="Mask_Group_1098666" data-name="Mask Group 1098666" transform="translate(-774.349 -5978)" clip-path="url(#clip-path)">
    <g id="Group_1143089" data-name="Group 1143089" transform="translate(754.5 5944.5)">
      <g id="Group_1143167" data-name="Group 1143167" clip-path="url(#clip-path-2)">
        <g id="Group_1143129" data-name="Group 1143129" transform="translate(17.346 0.001)">
          <g id="Group_1143128" data-name="Group 1143128" clip-path="url(#clip-path-3)">
            <path id="Path_903625" data-name="Path 903625" d="M694.294,69.449h98.173a15.349,15.349,0,0,0-13.733-5.4c-.459-5.028-.941-10.151-2.924-14.795s-5.748-8.812-10.664-9.962c-5.908-1.381-12.022,1.864-16.245,6.219-2.466-4.4-6.419-8.62-11.46-8.864-5.2-.251-9.677,3.873-12.162,8.452s-3.637,9.782-6.077,14.386A7.12,7.12,0,0,0,706.5,64.665c-3.763-1.761-10.021,1.248-12.2,4.784" transform="translate(-313.104 -15.609)" fill="#fff"/>
            <path id="Path_903626" data-name="Path 903626" d="M334.94,54.151H260.658a7.457,7.457,0,0,1,3.606-5.209,6.733,6.733,0,0,1,6.005.1c2.8-3.469,4.843-7.469,7.312-11.178s5.5-7.238,9.552-9.1,9.286-1.68,12.5,1.4C302.787,33.2,303.25,38,303.52,42.359c3.478-3,8.5-4.367,12.837-2.856s7.538,6.2,6.725,10.718a7.8,7.8,0,0,1,6.731-1.332c2.286.629,4.258,3.056,5.127,5.262" transform="translate(-128.382 -11.744)" fill="#fff"/>
            <path id="Path_903627" data-name="Path 903627" d="M476.685,270.668c8.354-4.13,18.062,3.776,18.062,3.776a23.821,23.821,0,0,1,7.916-14.995c19.224-15.193,35.544,1.2,35.544,1.2A36.74,36.74,0,0,1,559.978,235.8c9.7-4.893,23.124.523,26.713,10.779.83-8.057,10.089-14.064,17.785-11.535,2.961-12.006,7.761-23.874,16.162-32.948s20.871-14.983,33.117-13.266,23.339,12.3,23.468,24.67a17.57,17.57,0,0,1,22.082.536c5.844-19.763,28.049-33.13,48.25-29.043s35.464,25.034,33.165,45.515a21.014,21.014,0,0,1,19.913-4.456c4.245-12.5,20.9-20.424,33.44-16.316l-.349,81.778H466.16s2.17-16.713,10.525-20.842" transform="translate(-215.923 -78.489)" fill="#fff"/>
            <path id="Path_903628" data-name="Path 903628" d="M208.085,149.883c-34.059-1.376-28.641-40.792.868-46.867s42.962-.868,46.868,16.056-4.774,32.547-47.736,30.811" transform="translate(-95.993 -42.842)" fill="#bbdafc"/>
            <path id="Path_903629" data-name="Path 903629" d="M221.234,173.141c-1.829,19.751,11.339,19.385,11.339,19.385l-2.194,72.059,13.167-.732-2.926-69.132s16.094,1.829,9.51-23.043l-2.56.366s2.926,17.191-6.584,15.728l-1.463-20.117-5.486.366L233.3,184.48s-9.51,1.1-10.241-12.8Z" transform="translate(-111.514 -71.419)" fill="#bbdafc"/>
            <path id="Path_903630" data-name="Path 903630" d="M87.684,161.123c27.037-5.774,16.9-39.666-7.594-41.047s-34.487,5-35.119,20.384,8.609,27.946,42.713,20.662" transform="translate(-36.491 -51.073)" fill="#bbdafc"/>
            <path id="Path_903631" data-name="Path 903631" d="M101.355,187.375c1.321,13.947-8.189,13.688-8.189,13.688l1.585,69.858-9.51-.517,2.114-67.791S75.73,203.9,80.485,186.342l1.849.258s-2.114,12.139,4.755,11.1l1.057-14.2,3.962.259.529,11.622s6.868.774,7.4-9.04" transform="translate(-51.145 -78.169)" fill="#bbdafc"/>
            <path id="Path_903632" data-name="Path 903632" d="M151.847,117.758c38.345-5.229,28.026-48.189-5.97-51.688S97.232,69.79,94.619,88.914s8.86,35.44,57.228,28.844" transform="translate(-57.505 -27.783)" fill="#bbdafc"/>
            <path id="Path_903633" data-name="Path 903633" d="M168.625,148.049c1.87,19.744-11.595,19.379-11.595,19.379l2.244,83.029-13.464-.731,2.992-86.469s-11.968-2.654-9.724-16.671l2.618.366s-2.119,11.457,7.6,9.994a118.738,118.738,0,0,0,2.244-14.748l3.616.366,1.745,19.867s11.47-2.438,9.849-15.845" transform="translate(-76.472 -60.575)" fill="#bbdafc"/>
            <path id="Path_903634" data-name="Path 903634" d="M749.449,280.911c-50.824,1.8-108.5,40.28-174.433,47.086v9.657H868.71V326.866s-68.436-47.751-119.26-45.955" transform="translate(-262.294 -119.643)" fill="#5bb583"/>
            <path id="Path_903635" data-name="Path 903635" d="M119.26,280.911c50.824,1.8,108.5,40.28,174.433,47.086v9.657H0V326.866s68.436-47.751,119.26-45.955" transform="translate(-17.346 -119.643)" fill="#5bb583"/>
            <path id="Path_903636" data-name="Path 903636" d="M508.431,334.277a13.018,13.018,0,0,0-.53-9.891,11.416,11.416,0,0,0-6.335,7,16.21,16.21,0,0,0-3.384-8.661c-4.99,5-5.433,10.283-4.82,14.039-1.544-3.42-4.2-7.043-8.252-5.6-.593,13.809,7.417,15.612,7.417,15.612l14.95-.483s9.087-9.1,8.2-16.887a14.2,14.2,0,0,0-7.25,4.875" transform="translate(-223.982 -137.475)" fill="#5bb583"/>
            <g id="Group_1143091" data-name="Group 1143091" transform="translate(260.935 193.601)" opacity="0.4">
              <g id="Group_1143090" data-name="Group 1143090">
                <g id="Group_1143089-2" data-name="Group 1143089" clip-path="url(#clip-path-4)">
                  <path id="Path_903637" data-name="Path 903637" d="M494.076,350.913c-4.671-3.058-9.092-13.046-9.278-13.469l.384-.169c.045.1,4.557,10.3,9.123,13.287Z" transform="translate(-484.797 -337.275)" fill="#254f21"/>
                </g>
              </g>
            </g>
            <g id="Group_1143094" data-name="Group 1143094" transform="translate(273.305 185.227)" opacity="0.4">
              <g id="Group_1143093" data-name="Group 1143093">
                <g id="Group_1143092" data-name="Group 1143092" clip-path="url(#clip-path-5)">
                  <path id="Path_903638" data-name="Path 903638" d="M507.043,343.9c-1.53-5.258-.074-20.561-.011-21.21l.418.041c-.015.158-1.511,15.871,0,21.053Z" transform="translate(-506.346 -322.687)" fill="#254f21"/>
                </g>
              </g>
            </g>
            <g id="Group_1143097" data-name="Group 1143097" transform="translate(278.026 186.871)" opacity="0.4">
              <g id="Group_1143096" data-name="Group 1143096">
                <g id="Group_1143095" data-name="Group 1143095" clip-path="url(#clip-path-6)">
                  <path id="Path_903639" data-name="Path 903639" d="M514.9,344.371l-.331-.259c2.72-3.464,5.657-18.41,5.686-18.561l.412.08c-.12.619-2.986,15.2-5.768,18.741" transform="translate(-514.571 -325.551)" fill="#254f21"/>
                </g>
              </g>
            </g>
            <g id="Group_1143100" data-name="Group 1143100" transform="translate(283.488 192.094)" opacity="0.4">
              <g id="Group_1143099" data-name="Group 1143099">
                <g id="Group_1143098" data-name="Group 1143098" clip-path="url(#clip-path-7)">
                  <path id="Path_903640" data-name="Path 903640" d="M524.438,347.54l-.352-.228c1.833-2.819,7.626-12.563,7.685-12.661l.361.215c-.059.1-5.857,9.85-7.693,12.674" transform="translate(-524.087 -334.65)" fill="#254f21"/>
                </g>
              </g>
            </g>
            <g id="Group_1143103" data-name="Group 1143103" transform="translate(276.437 193.572)" opacity="0.4">
              <g id="Group_1143102" data-name="Group 1143102">
                <g id="Group_1143101" data-name="Group 1143101" clip-path="url(#clip-path-8)">
                  <path id="Path_903641" data-name="Path 903641" d="M512.213,347.419l-.41-.087a68.451,68.451,0,0,0,.887-10.107l.42.006a68.831,68.831,0,0,1-.9,10.188" transform="translate(-511.803 -337.225)" fill="#254f21"/>
                </g>
              </g>
            </g>
            <path id="Path_903642" data-name="Path 903642" d="M113.242,337.52a11.728,11.728,0,0,0-.752-8.893,10.285,10.285,0,0,0-5.511,6.474,14.607,14.607,0,0,0-3.287-7.7,14.077,14.077,0,0,0-3.957,12.765c-1.486-3.034-3.977-6.214-7.581-4.8-.152,12.452,7.111,13.854,7.111,13.854l13.449-.849s7.931-8.443,6.921-15.434a12.793,12.793,0,0,0-6.394,4.59" transform="translate(-56.601 -139.467)" fill="#79d1a3"/>
            <g id="Group_1143106" data-name="Group 1143106" transform="translate(35.423 195.83)" opacity="0.4">
              <g id="Group_1143105" data-name="Group 1143105">
                <g id="Group_1143104" data-name="Group 1143104" clip-path="url(#clip-path-9)">
                  <path id="Path_903643" data-name="Path 903643" d="M100.64,353.136c-4.28-2.617-8.532-11.477-8.711-11.853l.26-.124c.044.091,4.395,9.159,8.6,11.732Z" transform="translate(-91.929 -341.159)" fill="#254f21"/>
                </g>
              </g>
            </g>
            <g id="Group_1143109" data-name="Group 1143109" transform="translate(46.655 187.922)" opacity="0.4">
              <g id="Group_1143108" data-name="Group 1143108">
                <g id="Group_1143107" data-name="Group 1143107" clip-path="url(#clip-path-10)">
                  <path id="Path_903644" data-name="Path 903644" d="M112.384,346.465c-1.521-4.685-.634-18.5-.6-19.083l.288.019c-.009.143-.922,14.343.583,18.975Z" transform="translate(-111.497 -327.382)" fill="#254f21"/>
                </g>
              </g>
            </g>
            <g id="Group_1143112" data-name="Group 1143112" transform="translate(51.132 189.138)" opacity="0.4">
              <g id="Group_1143111" data-name="Group 1143111">
                <g id="Group_1143110" data-name="Group 1143110" clip-path="url(#clip-path-11)">
                  <path id="Path_903645" data-name="Path 903645" d="M119.529,346.563l-.232-.171c2.36-3.2,4.592-16.755,4.615-16.892l.284.047c-.091.56-2.266,13.757-4.667,17.016" transform="translate(-119.296 -329.5)" fill="#254f21"/>
                </g>
              </g>
            </g>
            <g id="Group_1143115" data-name="Group 1143115" transform="translate(56.034 193.649)" opacity="0.4">
              <g id="Group_1143114" data-name="Group 1143114">
                <g id="Group_1143113" data-name="Group 1143113" clip-path="url(#clip-path-12)">
                  <path id="Path_903646" data-name="Path 903646" d="M128.081,349.125l-.246-.149c1.572-2.589,6.521-11.526,6.571-11.616l.252.139c-.049.09-5,9.032-6.576,11.626" transform="translate(-127.836 -337.36)" fill="#254f21"/>
                </g>
              </g>
            </g>
            <g id="Group_1143118" data-name="Group 1143118" transform="translate(49.66 195.336)" opacity="0.4">
              <g id="Group_1143117" data-name="Group 1143117">
                <g id="Group_1143116" data-name="Group 1143116" clip-path="url(#clip-path-13)">
                  <path id="Path_903647" data-name="Path 903647" d="M117.016,349.49l-.283-.051a61.6,61.6,0,0,0,.519-9.135l.288,0a61.908,61.908,0,0,1-.525,9.191" transform="translate(-116.733 -340.299)" fill="#254f21"/>
                </g>
              </g>
            </g>
            <rect id="Rectangle_404822" data-name="Rectangle 404822" width="615.915" height="105.133" transform="translate(-9.469 206.866)" fill="#79d1a3"/>
            <g id="Group_1143121" data-name="Group 1143121" transform="translate(19.051 216.316)" opacity="0.4">
              <g id="Group_1143120" data-name="Group 1143120">
                <g id="Group_1143119" data-name="Group 1143119" clip-path="url(#clip-path-14)">
                  <rect id="Rectangle_404823" data-name="Rectangle 404823" width="0.593" height="5.802" transform="matrix(0.688, -0.726, 0.726, 0.688, 85.686, 52.651)" fill="#254f21"/>
                  <rect id="Rectangle_404824" data-name="Rectangle 404824" width="4.457" height="0.593" transform="translate(93.157 55.82) rotate(-78.266)" fill="#254f21"/>
                  <rect id="Rectangle_404825" data-name="Rectangle 404825" width="5.657" height="0.594" transform="matrix(0.543, -0.839, 0.839, 0.543, 96.527, 56.89)" fill="#254f21"/>
                  <rect id="Rectangle_404826" data-name="Rectangle 404826" width="0.593" height="3.52" transform="matrix(0.849, -0.528, 0.528, 0.849, 109.875, 60.152)" fill="#254f21"/>
                  <rect id="Rectangle_404827" data-name="Rectangle 404827" width="4.07" height="0.593" transform="translate(117.05 62.269) rotate(-87.893)" fill="#254f21"/>
                  <rect id="Rectangle_404828" data-name="Rectangle 404828" width="3.806" height="0.593" transform="matrix(0.474, -0.88, 0.88, 0.474, 122.813, 63.345)" fill="#254f21"/>
                  <rect id="Rectangle_404829" data-name="Rectangle 404829" width="0.593" height="5.151" transform="matrix(0.831, -0.556, 0.556, 0.831, 163.265, 45.565)" fill="#254f21"/>
                  <rect id="Rectangle_404830" data-name="Rectangle 404830" width="3.415" height="0.593" transform="translate(168.563 48.843) rotate(-79.964)" fill="#254f21"/>
                  <rect id="Rectangle_404831" data-name="Rectangle 404831" width="4.235" height="0.593" transform="translate(171.405 49.589) rotate(-54.495)" fill="#254f21"/>
                  <rect id="Rectangle_404832" data-name="Rectangle 404832" width="0.593" height="4.009" transform="translate(207.404 47.205) rotate(-41.104)" fill="#254f21"/>
                  <rect id="Rectangle_404833" data-name="Rectangle 404833" width="3.302" height="0.593" transform="translate(215.298 49.499) rotate(-80.474)" fill="#254f21"/>
                  <rect id="Rectangle_404834" data-name="Rectangle 404834" width="4.558" height="0.593" transform="matrix(0.142, -0.99, 0.99, 0.142, 220.762, 50.966)" fill="#254f21"/>
                  <rect id="Rectangle_404835" data-name="Rectangle 404835" width="0.593" height="4.009" transform="translate(310.028 6.03) rotate(-41.104)" fill="#254f21"/>
                  <rect id="Rectangle_404836" data-name="Rectangle 404836" width="3.302" height="0.593" transform="matrix(0.165, -0.986, 0.986, 0.165, 317.921, 8.324)" fill="#254f21"/>
                  <rect id="Rectangle_404837" data-name="Rectangle 404837" width="4.558" height="0.593" transform="translate(323.386 9.791) rotate(-81.824)" fill="#254f21"/>
                  <rect id="Rectangle_404838" data-name="Rectangle 404838" width="0.593" height="6.191" transform="translate(418.387 16.691) rotate(-39.851)" fill="#254f21"/>
                  <rect id="Rectangle_404839" data-name="Rectangle 404839" width="0.594" height="4.523" transform="translate(424.886 16.039) rotate(-5.476)" fill="#254f21"/>
                  <rect id="Rectangle_404840" data-name="Rectangle 404840" width="5.359" height="0.593" transform="translate(428.892 21.432) rotate(-55.896)" fill="#254f21"/>
                  <rect id="Rectangle_404841" data-name="Rectangle 404841" width="0.593" height="4.019" transform="matrix(0.745, -0.667, 0.667, 0.745, 466.256, 53.593)" fill="#254f21"/>
                  <rect id="Rectangle_404842" data-name="Rectangle 404842" width="0.593" height="3.641" transform="matrix(0.999, -0.034, 0.034, 0.999, 473.995, 52.294)" fill="#254f21"/>
                  <rect id="Rectangle_404843" data-name="Rectangle 404843" width="4.268" height="0.593" transform="translate(479.599 57.403) rotate(-89.446)" fill="#254f21"/>
                  <rect id="Rectangle_404844" data-name="Rectangle 404844" width="0.593" height="5.747" transform="matrix(0.899, -0.438, 0.438, 0.899, 365.904, 57.078)" fill="#254f21"/>
                  <rect id="Rectangle_404845" data-name="Rectangle 404845" width="4.341" height="0.593" transform="matrix(0.013, -1, 1, 0.013, 371.5, 60.915)" fill="#254f21"/>
                  <rect id="Rectangle_404846" data-name="Rectangle 404846" width="5.17" height="0.593" transform="matrix(0.779, -0.627, 0.627, 0.779, 375.275, 61.247)" fill="#254f21"/>
                  <rect id="Rectangle_404847" data-name="Rectangle 404847" width="0.593" height="3.779" transform="matrix(0.726, -0.687, 0.687, 0.726, 509.55, 16.128)" fill="#254f21"/>
                  <rect id="Rectangle_404848" data-name="Rectangle 404848" width="0.593" height="3.576" transform="translate(516.864 14.731) rotate(-9.089)" fill="#254f21"/>
                  <rect id="Rectangle_404849" data-name="Rectangle 404849" width="4.48" height="0.593" transform="translate(523.008 19.588) rotate(-78.614)" fill="#254f21"/>
                  <rect id="Rectangle_404850" data-name="Rectangle 404850" width="0.593" height="5.187" transform="translate(287.194 46.811) rotate(-35.206)" fill="#254f21"/>
                  <rect id="Rectangle_404851" data-name="Rectangle 404851" width="4.765" height="0.593" transform="translate(293.497 49.894) rotate(-81.259)" fill="#254f21"/>
                  <rect id="Rectangle_404852" data-name="Rectangle 404852" width="5.183" height="0.593" transform="translate(297.125 50.873) rotate(-55.251)" fill="#254f21"/>
                  <rect id="Rectangle_404853" data-name="Rectangle 404853" width="0.593" height="3.774" transform="translate(388.599 46.989) rotate(-43.225)" fill="#254f21"/>
                  <rect id="Rectangle_404854" data-name="Rectangle 404854" width="3.245" height="0.593" transform="translate(396.451 49.107) rotate(-86.503)" fill="#254f21"/>
                  <rect id="Rectangle_404855" data-name="Rectangle 404855" width="3.94" height="0.593" transform="translate(402.146 50.321) rotate(-69.249)" fill="#254f21"/>
                  <rect id="Rectangle_404856" data-name="Rectangle 404856" width="0.593" height="5.747" transform="matrix(0.899, -0.438, 0.438, 0.899, 201.335, 10.599)" fill="#254f21"/>
                  <rect id="Rectangle_404857" data-name="Rectangle 404857" width="4.341" height="0.593" transform="translate(206.931 14.436) rotate(-89.28)" fill="#254f21"/>
                  <rect id="Rectangle_404858" data-name="Rectangle 404858" width="5.17" height="0.593" transform="translate(210.707 14.768) rotate(-38.834)" fill="#254f21"/>
                  <rect id="Rectangle_404859" data-name="Rectangle 404859" width="0.593" height="5.151" transform="matrix(0.831, -0.556, 0.556, 0.831, 0, 38.904)" fill="#254f21"/>
                  <rect id="Rectangle_404860" data-name="Rectangle 404860" width="3.415" height="0.593" transform="matrix(0.174, -0.985, 0.985, 0.174, 5.297, 42.181)" fill="#254f21"/>
                  <rect id="Rectangle_404861" data-name="Rectangle 404861" width="4.236" height="0.593" transform="translate(8.139 42.928) rotate(-54.495)" fill="#254f21"/>
                  <rect id="Rectangle_404862" data-name="Rectangle 404862" width="0.593" height="4.008" transform="translate(30.545 44.834) rotate(-41.11)" fill="#254f21"/>
                  <rect id="Rectangle_404863" data-name="Rectangle 404863" width="3.302" height="0.593" transform="translate(38.437 47.127) rotate(-80.419)" fill="#254f21"/>
                  <rect id="Rectangle_404864" data-name="Rectangle 404864" width="4.558" height="0.593" transform="matrix(0.142, -0.99, 0.99, 0.142, 43.903, 48.594)" fill="#254f21"/>
                  <rect id="Rectangle_404865" data-name="Rectangle 404865" width="0.593" height="5.747" transform="matrix(0.899, -0.438, 0.438, 0.899, 34.201, 20.107)" fill="#254f21"/>
                  <rect id="Rectangle_404866" data-name="Rectangle 404866" width="4.341" height="0.593" transform="translate(39.797 23.944) rotate(-89.279)" fill="#254f21"/>
                  <rect id="Rectangle_404867" data-name="Rectangle 404867" width="5.17" height="0.593" transform="translate(43.573 24.276) rotate(-38.834)" fill="#254f21"/>
                  <rect id="Rectangle_404868" data-name="Rectangle 404868" width="0.593" height="3.779" transform="translate(250.495 30.563) rotate(-43.412)" fill="#254f21"/>
                  <rect id="Rectangle_404869" data-name="Rectangle 404869" width="0.593" height="3.576" transform="translate(257.808 29.167) rotate(-9.089)" fill="#254f21"/>
                  <rect id="Rectangle_404870" data-name="Rectangle 404870" width="4.48" height="0.593" transform="translate(263.953 34.023) rotate(-78.614)" fill="#254f21"/>
                  <rect id="Rectangle_404871" data-name="Rectangle 404871" width="0.593" height="3.774" transform="translate(250.06 2.049) rotate(-43.225)" fill="#254f21"/>
                  <rect id="Rectangle_404872" data-name="Rectangle 404872" width="3.244" height="0.593" transform="translate(257.91 4.167) rotate(-86.448)" fill="#254f21"/>
                  <rect id="Rectangle_404873" data-name="Rectangle 404873" width="3.94" height="0.593" transform="translate(263.607 5.381) rotate(-69.249)" fill="#254f21"/>
                  <rect id="Rectangle_404874" data-name="Rectangle 404874" width="0.593" height="6.191" transform="translate(101.867 6.701) rotate(-39.851)" fill="#254f21"/>
                  <rect id="Rectangle_404875" data-name="Rectangle 404875" width="0.593" height="4.523" transform="matrix(0.995, -0.095, 0.095, 0.995, 108.367, 6.049)" fill="#254f21"/>
                  <rect id="Rectangle_404876" data-name="Rectangle 404876" width="5.359" height="0.593" transform="translate(112.372 11.442) rotate(-55.895)" fill="#254f21"/>
                  <rect id="Rectangle_404877" data-name="Rectangle 404877" width="0.593" height="4.019" transform="matrix(0.745, -0.667, 0.667, 0.745, 142.735, 14.55)" fill="#254f21"/>
                  <rect id="Rectangle_404878" data-name="Rectangle 404878" width="0.593" height="3.641" transform="translate(150.474 13.251) rotate(-1.96)" fill="#254f21"/>
                  <rect id="Rectangle_404879" data-name="Rectangle 404879" width="4.268" height="0.593" transform="translate(156.078 18.36) rotate(-89.446)" fill="#254f21"/>
                  <rect id="Rectangle_404880" data-name="Rectangle 404880" width="0.593" height="3.774" transform="translate(65.078 7.947) rotate(-43.225)" fill="#254f21"/>
                  <rect id="Rectangle_404881" data-name="Rectangle 404881" width="3.244" height="0.593" transform="translate(72.929 10.064) rotate(-86.448)" fill="#254f21"/>
                  <rect id="Rectangle_404882" data-name="Rectangle 404882" width="3.94" height="0.593" transform="translate(78.625 11.279) rotate(-69.249)" fill="#254f21"/>
                  <rect id="Rectangle_404883" data-name="Rectangle 404883" width="0.593" height="4.019" transform="matrix(0.745, -0.667, 0.667, 0.745, 470.101, 28.692)" fill="#254f21"/>
                  <rect id="Rectangle_404884" data-name="Rectangle 404884" width="0.593" height="3.641" transform="matrix(0.999, -0.034, 0.034, 0.999, 477.84, 27.393)" fill="#254f21"/>
                  <rect id="Rectangle_404885" data-name="Rectangle 404885" width="4.268" height="0.593" transform="translate(483.444 32.502) rotate(-89.446)" fill="#254f21"/>
                  <rect id="Rectangle_404886" data-name="Rectangle 404886" width="0.593" height="3.779" transform="matrix(0.726, -0.687, 0.687, 0.726, 461.964, 1.49)" fill="#254f21"/>
                  <rect id="Rectangle_404887" data-name="Rectangle 404887" width="0.593" height="3.576" transform="translate(469.278 0.094) rotate(-9.089)" fill="#254f21"/>
                  <rect id="Rectangle_404888" data-name="Rectangle 404888" width="4.48" height="0.593" transform="translate(475.422 4.95) rotate(-78.614)" fill="#254f21"/>
                  <rect id="Rectangle_404889" data-name="Rectangle 404889" width="0.593" height="3.779" transform="translate(538.286 54.228) rotate(-43.412)" fill="#254f21"/>
                  <rect id="Rectangle_404890" data-name="Rectangle 404890" width="0.593" height="3.576" transform="translate(545.6 52.831) rotate(-9.089)" fill="#254f21"/>
                  <rect id="Rectangle_404891" data-name="Rectangle 404891" width="4.48" height="0.593" transform="translate(551.744 57.688) rotate(-78.615)" fill="#254f21"/>
                  <rect id="Rectangle_404892" data-name="Rectangle 404892" width="0.593" height="3.774" transform="translate(358.202 22.314) rotate(-43.225)" fill="#254f21"/>
                  <rect id="Rectangle_404893" data-name="Rectangle 404893" width="3.244" height="0.593" transform="translate(366.053 24.431) rotate(-86.448)" fill="#254f21"/>
                  <rect id="Rectangle_404894" data-name="Rectangle 404894" width="3.94" height="0.593" transform="translate(371.749 25.645) rotate(-69.249)" fill="#254f21"/>
                </g>
              </g>
            </g>
            <g id="Group_1143124" data-name="Group 1143124" transform="translate(257.881 228.183)" opacity="0.5" style="mix-blend-mode: multiply;isolation: isolate">
              <g id="Group_1143123" data-name="Group 1143123">
                <g id="Group_1143122" data-name="Group 1143122" clip-path="url(#clip-path-15)">
                  <path id="Path_903648" data-name="Path 903648" d="M479.477,404.247c0,3.715,17.377,6.726,38.813,6.726s38.814-3.011,38.814-6.726-17.377-6.726-38.814-6.726-38.813,3.011-38.813,6.726" transform="translate(-479.477 -397.521)" fill="#79d1a3"/>
                </g>
              </g>
            </g>
            <g id="Group_1143127" data-name="Group 1143127" transform="translate(350.963 230.268)" opacity="0.5" style="mix-blend-mode: multiply;isolation: isolate">
              <g id="Group_1143126" data-name="Group 1143126">
                <g id="Group_1143125" data-name="Group 1143125" clip-path="url(#clip-path-16)">
                  <path id="Path_903649" data-name="Path 903649" d="M641.635,404.517c0,1.857,8.689,3.363,19.407,3.363s19.407-1.506,19.407-3.363-8.689-3.363-19.407-3.363-19.407,1.506-19.407,3.363" transform="translate(-641.635 -401.154)" fill="#79d1a3"/>
                </g>
              </g>
            </g>
            <path id="Path_903650" data-name="Path 903650" d="M648.549,345.655c-5.349-.925-23.149-2.772-28.678-5.822-1.377-.759-6.025-3.685-11.422-7.126,3.32-6.554,5-9.11,8.7-15.459a61.843,61.843,0,0,1,11.257,11.241l25.713,8.775c2.84,4.763-4.6,2.7-5.573,8.392" transform="translate(-276.536 -135.143)" fill="#f7ac85"/>
            <path id="Path_903651" data-name="Path 903651" d="M674.989,373.875c-14.538-2.878-6.163-10.4-6.448-14.461-3.485-.368-4.828-7.043,3.011-4.909,1.9.518,3.167-1.453,3.331-5.41l7.945,1.975s-.507,18.628-7.839,22.805" transform="translate(-300.956 -148.709)" fill="#4f49c1"/>
            <path id="Path_903652" data-name="Path 903652" d="M688.25,352.13s-.507,18.628-7.839,22.805c-.691-.137-1.315-.287-1.906-.444,6.816-9.229,7.115-18.073,7.543-22.908Z" transform="translate(-306.379 -149.769)" fill="#fff"/>
            <path id="Path_903653" data-name="Path 903653" d="M668.93,373.761c.034-.026,3.458-2.605,10.247-.118l.223-.609c-7.15-2.622-10.723.1-10.871.217Z" transform="translate(-302.129 -158.423)" fill="#272532"/>
            <path id="Path_903654" data-name="Path 903654" d="M675.085,366.2a10.666,10.666,0,0,0-.241-4.681c-.329-1.4-.48-2.039.817-2.786l-.323-.563c-1.717.987-1.456,2.1-1.126,3.5a9.955,9.955,0,0,1,.233,4.418Z" transform="translate(-304.447 -152.576)" fill="#272532"/>
            <path id="Path_903655" data-name="Path 903655" d="M687.7,355.409l.148-.632c-2.565-.6-3.1-5.218-3.1-5.264l-.646.07c.023.209.591,5.118,3.6,5.826" transform="translate(-308.762 -148.888)" fill="#272532"/>
            <path id="Path_903656" data-name="Path 903656" d="M568.093,300.5s8.062-37.337,22.7-18.046c5.6,7.386,10.928,13.984,15.367,19.319-5.8,6.412-10.82,10.575-16.235,17.316a254.345,254.345,0,0,0-21.83-18.589" transform="translate(-259.345 -117.965)" fill="#ffd860"/>
            <rect id="Rectangle_404898" data-name="Rectangle 404898" width="23.303" height="0.65" transform="translate(326.367 196.261) rotate(-44.799)" fill="#1f4252"/>
            <path id="Path_903657" data-name="Path 903657" d="M422.157,305.281c.024,1.915,1.58,1.521,3.161,1.642l9.923.763,20.317,1.563,41.024,3.155,71.6,5.506c2.027.156,10.64,2.165,10.977-.7.254-2.162-3.1-2.475-4.621-2.591l-69.015-5.308-40.861-3.142-20.513-1.577-10.088-.776c-2.829-.218-7.172-1.416-9.912-.763a2.388,2.388,0,0,0-1.99,2.232" transform="translate(-197.178 -129.013)" fill="#96050d"/>
            <path id="Path_903658" data-name="Path 903658" d="M458.882,230.461c12.092-2.383,13.143,3.417,13.143,3.417l-.967,8.165c-6.277,4.821-11.894,2.433-10.563.26-2-.081-2.659-2.073-1.021-3.817-2.446-.161-2.6-3.146-.126-4.04-4.6.716-4.107-4.324-.466-3.985" transform="translate(-211.606 -97.928)" fill="#f7ac85"/>
            <path id="Path_903659" data-name="Path 903659" d="M471.726,243.852a3.139,3.139,0,0,0,.453-.034.368.368,0,0,0-.107-.728,1.385,1.385,0,0,1-1.31-.361c-.889-.971-.518-3.568-.3-4.486a.368.368,0,0,0-.7-.23c-.294.686-1.269,2.506-2.239,2.684a.968.968,0,0,1-.879-.367,2.062,2.062,0,0,1-.7-1.712c.119-1.4,1.594-3.111,4.263-4.958a.368.368,0,0,0-.419-.606c-2.9,2-4.437,3.854-4.577,5.5a2.786,2.786,0,0,0,.913,2.293,1.653,1.653,0,0,0,1.535.573,3.241,3.241,0,0,0,1.816-1.41,4.574,4.574,0,0,0,.742,3.214,1.953,1.953,0,0,0,1.508.627" transform="translate(-215.515 -99.25)" fill="#8c4b28"/>
            <path id="Path_903660" data-name="Path 903660" d="M468.389,251.911a.366.366,0,0,0,.278-.127,2.238,2.238,0,0,0,.319-2.816c-.516-.614-1.93-1.317-5.636.885a.368.368,0,0,0,.377.633c2.74-1.63,4.221-1.609,4.694-1.045a1.541,1.541,0,0,1-.311,1.862.368.368,0,0,0,.278.608" transform="translate(-214.65 -105.795)" fill="#8c4b28"/>
            <path id="Path_903661" data-name="Path 903661" d="M469.673,247.956a.368.368,0,0,0,.346-.241l.425-1.159a.368.368,0,0,0-.691-.254l-.425,1.159a.368.368,0,0,0,.219.472.377.377,0,0,0,.127.022" transform="translate(-217.262 -104.819)" fill="#8c4b28"/>
            <path id="Path_903662" data-name="Path 903662" d="M461.337,244.631a.369.369,0,0,0,.108-.016l2.339-.717a.368.368,0,1,0-.216-.7l-2.339.718a.368.368,0,0,0,.108.72" transform="translate(-213.711 -103.59)" fill="#8c4b28"/>
            <path id="Path_903663" data-name="Path 903663" d="M461.243,237.737a.373.373,0,0,0,.05,0l4.094-.552a.368.368,0,1,0-.1-.73l-4.093.552a.368.368,0,0,0,.049.733" transform="translate(-213.672 -100.724)" fill="#8c4b28"/>
            <path id="Path_903664" data-name="Path 903664" d="M426.6,179.674l1.853.106s1.193,2.727,3.484,3.344c1.586-.215,3.122-1.487,5.429-4.754.829.025,1.08.074,1.853.106,2.81,5.656,5.22,7.759,7.1,8.256a3.492,3.492,0,0,0,2.564-2.188c1.933.046,3.16.181,3.16.181-.452,33.311-6.337,53.84-16.148,59.036-.366-.006-2.611-.1-3.159-.181-13.175-16.821-6.137-63.906-6.137-63.906" transform="translate(-198.271 -75.983)" fill="#e3804e"/>
            <path id="Path_903665" data-name="Path 903665" d="M448.883,184.545s-4.528,7.9-11.518-6.174c-7,9.913-10.766,1.3-10.766,1.3s-7.038,47.085,6.136,63.906c9.811-5.2,15.7-25.725,16.148-59.036" transform="translate(-198.271 -75.984)" fill="#ffd860"/>
            <path id="Path_903666" data-name="Path 903666" d="M434.867,241.845l.257-.115c.453-.2,11.088-5.439,10.69-45.269l0-.512-.461.223a4.25,4.25,0,0,1-3.8.226c-2.546-1.217-3.5-5.207-3.507-5.248l-.161-.7-.418.579c-.023.032-2.326,3.189-4.455,3.189h-.022a2.309,2.309,0,0,1-1.895-1.179l-.493-.715-.1.863c-2.648,23.523-1.23,39.812,4.217,48.415Zm10.3-44.883c.273,35.5-8.488,42.973-10.071,44.03-5.171-8.451-6.529-24.246-4.039-46.967a2.689,2.689,0,0,0,1.917.847H433c1.9,0,3.776-1.979,4.579-2.945.393,1.252,1.48,4,3.68,5.056a4.673,4.673,0,0,0,3.9-.021" transform="translate(-200.18 -81.131)" fill="#ca5c21"/>
            <path id="Path_903667" data-name="Path 903667" d="M487.628,108.342c-9.159,7.543-11.045,20.023,3.322,24.154s7.992-32.594-3.322-24.154" transform="translate(-222.014 -45.614)" fill="#222221"/>
            <path id="Path_903668" data-name="Path 903668" d="M489.416,138.515c1.079,12.9,2.6,26.848,31.248,22.9,17-2.344,30.888-9.954,30.888-22.9s-13.91-23.435-31.068-23.435c-22.089,0-32.157,10.419-31.068,23.435" transform="translate(-225.796 -49.023)" fill="#f7ac85"/>
          </g>
        </g>
        <g id="Group_1143131" data-name="Group 1143131" transform="translate(284.274 81.475)">
          <g id="Group_1143130" data-name="Group 1143130" clip-path="url(#clip-path-17)">
            <path id="Path_903669" data-name="Path 903669" d="M495.358,151.48c.765,4.745,4.987,8.392,9.108,7.727s6.843-5.05,6.078-9.8-4.726-8.053-8.848-7.389a8,8,0,0,0-6.338,9.457" transform="translate(-495.238 -141.938)" fill="#fff"/>
            <path id="Path_903670" data-name="Path 903670" d="M485.628,153.26c.765,4.745,4.726,8.053,8.848,7.389s6.843-5.05,6.078-9.8-4.726-8.053-8.848-7.389-6.843,5.05-6.078,9.8" transform="translate(-491.089 -142.552)" fill="#272532"/>
          </g>
        </g>
        <g id="Group_1143166" data-name="Group 1143166" transform="translate(17.346 0.001)">
          <g id="Group_1143165" data-name="Group 1143165" clip-path="url(#clip-path-3)">
            <path id="Path_903672" data-name="Path 903672" d="M489.679,166.808c-5.627-2.874-3.951-6.046-.419-4.25" transform="translate(-224.382 -69.025)" fill="#f7ac85"/>
            <path id="Path_903673" data-name="Path 903673" d="M506.426,183.249a2.7,2.7,0,0,0,.932-.16c1.127-.412,2.124-1.826,1.23-4.458a.369.369,0,0,0-.622-.128c-.071.077-1.748,1.848-5.6.373a.368.368,0,0,0-.475.478c1.019,2.608,2.927,3.9,4.532,3.9m1.619-3.861c.382,1.52.041,2.651-.94,3.01-1.226.447-3.061-.42-4.181-2.556a5.823,5.823,0,0,0,5.121-.454m.194-.638h0Z" transform="translate(-231.134 -75.988)" fill="#8c4b28"/>
            <path id="Path_903674" data-name="Path 903674" d="M522.692,129.329c-1.437,17.6-7.722,7.543-6.825-2.874-6.285,5.747-10.236-4.13-9.877-8.979-3.9-1.2-11.561,3.74-17.118.688a6.788,6.788,0,0,1-3-2.844c-2.32-4.571,2.19-11.7,6.211-15.42,7.921-7.32,20.312-7.26,28.913-4.31a32.761,32.761,0,0,1,11.388,6.8,20.535,20.535,0,0,1,13.125,4.334c6.79,5.606,7.033,14.451,7.168,19.371.1,3.5.256,9.321-3.307,15.109-3.164,5.14-9.787,11.106-15,9.518a7.068,7.068,0,0,1-3.142-2.155c-5.653-6.052-7.618-15.007-8.366-20.137" transform="translate(-224.053 -39.926)" fill="#222221"/>
            <path id="Path_903675" data-name="Path 903675" d="M550.4,155.124c0,5.356-.45,9.7,3.914,9.7s7.9-4.342,7.9-9.7-3.538-9.7-7.9-9.7-3.914,4.342-3.914,9.7" transform="translate(-251.801 -61.95)" fill="#f7ac85"/>
            <path id="Path_903676" data-name="Path 903676" d="M556.3,174.914a4.379,4.379,0,0,0,1.4-.238c2.628-.886,4.773-4.134,5.655-6.776a.368.368,0,0,0-.7-.233c-.825,2.475-2.8,5.5-5.191,6.311a3.577,3.577,0,0,1-3.291-.513.368.368,0,1,0-.414.608,4.462,4.462,0,0,0,2.54.84" transform="translate(-253.169 -71.317)" fill="#8c4b28"/>
            <path id="Path_903677" data-name="Path 903677" d="M537.979,146.368l.647-.058a27.344,27.344,0,0,1,1.773-10.864l-.6-.243a27.483,27.483,0,0,0-1.818,11.165" transform="translate(-246.488 -57.595)" fill="#585857"/>
            <path id="Path_903678" data-name="Path 903678" d="M529.268,138.333h.649a22.848,22.848,0,0,1,1.766-8.722l-.589-.275a23.088,23.088,0,0,0-1.826,9" transform="translate(-242.806 -55.096)" fill="#585857"/>
            <path id="Path_903679" data-name="Path 903679" d="M505.026,124.042c6.957,0,14.238-4.215,14.564-4.406l-.329-.561c-.082.049-8.383,4.854-15.493,4.267l-.053.647c.433.036.872.052,1.31.052" transform="translate(-231.921 -50.725)" fill="#585857"/>
            <path id="Path_903680" data-name="Path 903680" d="M495.9,118.158c3.322-4.47,14.565-3.59,14.678-3.582l.054-.646c-.478-.041-11.713-.918-15.253,3.841Z" transform="translate(-228.371 -48.495)" fill="#585857"/>
            <path id="Path_903681" data-name="Path 903681" d="M530.807,106.635l.26-.6c-.389-.169-9.563-4.1-14.8-.448l.371.533c4.939-3.445,14.08.47,14.171.51" transform="translate(-237.267 -44.321)" fill="#824234"/>
            <path id="Path_903682" data-name="Path 903682" d="M549.085,133.141c4.784-5.642,1.125-10.535,1.088-10.584l-.515.395c.139.183,3.368,4.537-1.069,9.769Z" transform="translate(-251.036 -52.208)" fill="#824234"/>
            <path id="Path_903683" data-name="Path 903683" d="M567.406,136.126c1.4-2.159-1.3-8.195-1.413-8.451l-.592.267c.746,1.654,2.461,6.284,1.46,7.831Z" transform="translate(-258.198 -54.388)" fill="#824234"/>
            <path id="Path_903684" data-name="Path 903684" d="M578.91,149.162c4.108-8.82-3.672-18.8-3.751-18.9l-.509.4c.076.1,7.609,9.764,3.671,18.219Z" transform="translate(-262.138 -55.492)" fill="#824234"/>
            <path id="Path_903685" data-name="Path 903685" d="M587.662,162.48c5.362-4.752,1.806-16.711,1.652-17.218l-.622.189c.037.121,3.589,12.066-1.461,16.544Z" transform="translate(-267.497 -61.88)" fill="#824234"/>
            <path id="Path_903686" data-name="Path 903686" d="M581.6,128.111l.612-.217c-2.672-7.528-10.369-8.467-10.447-8.475l-.072.646c.073.008,7.374.91,9.906,8.047" transform="translate(-260.878 -50.871)" fill="#824234"/>
            <path id="Path_903687" data-name="Path 903687" d="M576.319,117.514l.281-.585a33.17,33.17,0,0,0-7.751-2.3l-.1.641a33.149,33.149,0,0,1,7.574,2.247" transform="translate(-259.623 -48.829)" fill="#824234"/>
            <path id="Path_903688" data-name="Path 903688" d="M541.536,118.821c2.484-.746,5.56-5.678,5.69-5.887l-.552-.342c-.03.049-3.076,4.932-5.325,5.606Z" transform="translate(-247.953 -47.963)" fill="#824234"/>
            <path id="Path_903689" data-name="Path 903689" d="M554.468,189.436l3.472,7.423-14.932,3.79-3.864-8.937Z" transform="translate(-247.013 -80.697)" fill="#f7ac85"/>
            <path id="Path_903690" data-name="Path 903690" d="M537.688,195.627l.041,0,7-.778a.368.368,0,1,0-.081-.731l-7,.778a.368.368,0,0,0,.04.734" transform="translate(-246.236 -82.689)" fill="#8c4b28"/>
            <path id="Path_903691" data-name="Path 903691" d="M519.706,236.213s-11.549,18.408-21.058,19.228-21.5-13.571-21.5-13.571l2.559-11.045,14.387,11.7,16.322-17.355Z" transform="translate(-220.602 -95.919)" fill="#f7ac85"/>
            <path id="Path_903692" data-name="Path 903692" d="M535.555,210.386l-11.718,13.738L535.116,237.1l9.737-11.429Z" transform="translate(-240.493 -89.622)" fill="#4f49c1"/>
            <path id="Path_903693" data-name="Path 903693" d="M491.418,133.059c.131,0,.263,0,.4-.007l-.024-.649a6.625,6.625,0,0,1-4.964-1.626,8.306,8.306,0,0,1-2.242-5.241l-.649.017a8.82,8.82,0,0,0,2.444,5.694,7.08,7.08,0,0,0,5.038,1.813" transform="translate(-223.495 -53.476)" fill="#585857"/>
            <path id="Path_903694" data-name="Path 903694" d="M549.162,140.46,485.59,156.084l-3.951-10.236,35.917-9.7L509.474,96.1l-37.712,6.106-.718-16.881,71.294-6.285Z" transform="translate(-218.003 -33.672)" fill="#7f7f7f"/>
            <rect id="Rectangle_404900" data-name="Rectangle 404900" width="0.649" height="11.165" transform="translate(272.831 109.424) rotate(-11.171)" fill="#999"/>
            <rect id="Rectangle_404901" data-name="Rectangle 404901" width="0.65" height="15.727" transform="translate(263.135 50.853) rotate(-6.547)" fill="#999"/>
            <path id="Path_903695" data-name="Path 903695" d="M576.331,122.432c20.113,2.155,30.529-12.571,21.55-32.864s-4.849,19.933-21.191,14.366c-8.62,2.155-.359,18.5-.359,18.5" transform="translate(-261.334 -35.699)" fill="#ffd860"/>
            <path id="Path_903696" data-name="Path 903696" d="M592.773,122.928c6.435-2.378,10.768-5.992,12.879-10.741,3.712-8.353.123-18.8-3.531-27.935l-.6.241c3.6,9.013,7.148,19.308,3.539,27.43-2.036,4.583-6.245,8.08-12.51,10.4Z" transform="translate(-269.763 -35.891)" fill="#ca5c21"/>
            <g id="Group_1143134" data-name="Group 1143134" transform="translate(306.107 68.147)" opacity="0.4">
              <g id="Group_1143133" data-name="Group 1143133">
                <g id="Group_1143132" data-name="Group 1143132" clip-path="url(#clip-path-19)">
                  <path id="Path_903697" data-name="Path 903697" d="M572.2,125.364l-8.71-3.322,2.244-3.322,7.273,3.413Z" transform="translate(-563.492 -118.72)" fill="#fff"/>
                </g>
              </g>
            </g>
            <g id="Group_1143137" data-name="Group 1143137" transform="translate(309.25 82.687)" opacity="0.4">
              <g id="Group_1143136" data-name="Group 1143136">
                <g id="Group_1143135" data-name="Group 1143135" clip-path="url(#clip-path-20)">
                  <path id="Path_903698" data-name="Path 903698" d="M575.7,144.057c-.269-.18-6.734,4.131-6.734,4.131l3.323,2.424,4.849-4.13Z" transform="translate(-568.967 -144.051)" fill="#fff"/>
                </g>
              </g>
            </g>
            <path id="Path_903699" data-name="Path 903699" d="M512.5,359.529c1.371-5.252,6.554-26.281,10.057-31.535.872-1.308,4.178-5.695,8.059-10.785,6.252,3.857,8.658,5.749,14.675,9.969a61.849,61.849,0,0,1-12.146,10.275l-12.75,28.332c-4.984,2.431-2.306-4.813-7.9-6.257" transform="translate(-235.662 -135.127)" fill="#f7ac85"/>
            <path id="Path_903700" data-name="Path 903700" d="M486.763,386.322c4.087-14.245,10.877-5.269,14.951-5.213.658-3.442,7.423-4.22,4.639,3.412-.676,1.854,1.182,3.278,5.112,3.773l-2.634,7.752s-18.52-2.066-22.067-9.723" transform="translate(-224.699 -161.137)" fill="#4f49c1"/>
            <path id="Path_903701" data-name="Path 903701" d="M508.831,400.641s-18.52-2.066-22.067-9.723c.194-.677.4-1.286.6-1.862,8.626,7.565,17.413,8.605,22.2,9.436Z" transform="translate(-224.7 -165.732)" fill="#fff"/>
            <path id="Path_903702" data-name="Path 903702" d="M504.177,391.411c3.213-6.909.8-10.693.7-10.851l-.543.357c.024.036,2.306,3.666-.741,10.22Z" transform="translate(-231.867 -162.113)" fill="#272532"/>
            <path id="Path_903703" data-name="Path 903703" d="M514.685,388.828l.588-.275c-.839-1.793-1.964-1.627-3.391-1.415a9.972,9.972,0,0,1-4.422-.138l-.168.627a10.664,10.664,0,0,0,4.685.153c1.425-.212,2.074-.307,2.708,1.048" transform="translate(-233.445 -164.856)" fill="#272532"/>
            <path id="Path_903704" data-name="Path 903704" d="M519.03,401.44c.816-2.5,5.459-2.648,5.506-2.649l-.016-.65c-.21.005-5.15.159-6.108,3.1Z" transform="translate(-238.181 -169.602)" fill="#272532"/>
            <path id="Path_903705" data-name="Path 903705" d="M555.946,270.929l18.381-10.017s19.666,13.4,2.333,30.309c-6.636,6.474-12.524,12.573-17.27,17.64-7.081-4.968-14.607-9.306-21.966-13.846,8.175-10.718,18.521-24.085,18.521-24.085" transform="translate(-246.281 -111.145)" fill="#ffd860"/>
            <path id="Path_903706" data-name="Path 903706" d="M565.9,206.662c5.5,9.141,12.918,27.187,19.036,37.383-15.2,16.521-39.149,13.528-39.149,13.528s-7.632-27.117-7.632-42.561,22.857-16.475,27.746-8.351" transform="translate(-246.59 -85.897)" fill="#4f49c1"/>
            <path id="Path_903707" data-name="Path 903707" d="M586.136,323.533a95.9,95.9,0,0,1,7.728-8.276c1.724-1.711,3.507-3.481,5.062-5.179l-.479-.438c-1.544,1.686-3.321,3.45-5.04,5.156a96.549,96.549,0,0,0-7.781,8.336Z" transform="translate(-266.813 -131.903)" fill="#1f4252"/>
            <rect id="Rectangle_404904" data-name="Rectangle 404904" width="0.649" height="26.703" transform="matrix(0.538, -0.843, 0.843, 0.538, 294.467, 179.614)" fill="#1f4252"/>
            <path id="Path_903708" data-name="Path 903708" d="M549.642,235.3s-3.412,15.624-10.6,21.909-23.885,22.305-23.885,22.305l-6.645-6.465,19.216-23.563,4.849-17.778Z" transform="translate(-233.966 -98.704)" fill="#f7ac85"/>
            <path id="Path_903709" data-name="Path 903709" d="M565.863,229.373l-20.2-4.4s2.155-15.175,9.518-16.072,16.7,3.86,10.686,20.472" transform="translate(-249.788 -88.945)" fill="#4f49c1"/>
            <path id="Path_903710" data-name="Path 903710" d="M565.928,229.24c3.424-9.454,1.681-14.531-.385-17.126-2.307-2.9-6.29-4.31-10.644-3.779-7.524.917-9.711,15.719-9.8,16.349l.643.091c.021-.15,2.2-14.939,9.236-15.8,4.13-.5,7.892.819,10.058,3.539,2.814,3.535,2.911,9.241.282,16.5Z" transform="translate(-249.55 -88.701)" fill="#323296"/>
            <path id="Path_903711" data-name="Path 903711" d="M499.43,312.384c1.8-10.236,6.525-9.4,6.525-9.4l5.926,3.113c1.8,6.345-1.7,10.094-2.956,8.418-.658,1.556-2.372,1.5-3.21-.292-.853,1.886-3.173,1.152-3.113-1.062-.165,1.8-3.464,3.217-3.173-.778" transform="translate(-230.088 -129.061)" fill="#f7ac85"/>
            <path id="Path_903712" data-name="Path 903712" d="M503.63,321.22a.367.367,0,0,0,.243-.092,4.031,4.031,0,0,0,.955-2.483.368.368,0,0,0-.351-.383.355.355,0,0,0-.385.351,3.262,3.262,0,0,1-.706,1.963.368.368,0,0,0-.032.519.363.363,0,0,0,.276.125" transform="translate(-231.728 -135.575)" fill="#8c4b28"/>
            <path id="Path_903713" data-name="Path 903713" d="M509.611,322.066a.369.369,0,0,0,.307-.164,7.985,7.985,0,0,0,.769-1.93.368.368,0,0,0-.713-.185,7.4,7.4,0,0,1-.668,1.707.368.368,0,0,0,.305.572" transform="translate(-234.276 -136.107)" fill="#8c4b28"/>
            <path id="Path_903714" data-name="Path 903714" d="M514.97,322.9a.366.366,0,0,0,.235-.086,7.382,7.382,0,0,0,1.144-2.222.369.369,0,0,0-.693-.252,7.425,7.425,0,0,1-.922,1.909.368.368,0,0,0,.235.651" transform="translate(-236.558 -136.357)" fill="#8c4b28"/>
            <path id="Path_903715" data-name="Path 903715" d="M539.388,234.065l.634-.142c-3.631-16.157,1.225-23.319,1.274-23.389l-.531-.375c-.209.3-5.078,7.434-1.378,23.907" transform="translate(-246.527 -89.525)" fill="#323296"/>
            <path id="Path_903716" data-name="Path 903716" d="M362.877,251.922c10.146-5.567,19.934-1.616,27.3,3.143,4.107,2.654,13.918,3.592,22.178-.629s16.522,2.694,16.522,2.694-10.506-1.616-13.2,1.616-16.072,14.726-33.851,8.441-18.946-15.265-18.946-15.265" transform="translate(-171.926 -106.156)" fill="#562c84"/>
            <path id="Path_903717" data-name="Path 903717" d="M340.195,259.633c9.877-9.069,27.656-7.9,35.557-.718s17.879,6.709,21.729,3.592c5.657-4.579,13.11-3.233,15.085-1.077-5.208-.539-8.288,4.173-12.571,6.644-9.338,5.388-20.293,7.543-37.892-1.437" transform="translate(-162.264 -107.85)" fill="#fe88b1"/>
            <path id="Path_903718" data-name="Path 903718" d="M373.178,266.462c-.54,5.028,5.567,10.057,16.88,5.567s22.628.359,26.579,4.49c-5.208-12.032-21.565-13.394-26.938-11.4-7.273,2.693-13.11,4.4-16.521,1.347" transform="translate(-176.3 -112.615)" fill="#8cc3ed"/>
            <path id="Path_903719" data-name="Path 903719" d="M320.387,315.6c-7.836.488-15.221-1.332-19.029-8.291-4.364-7.976-1.67-14.236,3.956-18.936a27.954,27.954,0,0,1,5.218,2.43c8.719,5.232,13.586,15.746,9.855,24.8" transform="translate(-144.797 -122.843)" fill="#f73c50"/>
            <path id="Path_903720" data-name="Path 903720" d="M380.159,276.793l-4.22,28.464-22.448-6.644s-14.962,7.8-28.561,8.65c3.732-9.051-1.135-19.566-9.855-24.8a27.947,27.947,0,0,0-5.218-2.43c9.238-7.718,26.389-11.234,33.218-11.234,17.419,0,37.084,7.991,37.084,7.991" transform="translate(-149.34 -114.506)" fill="#fff"/>
            <path id="Path_903721" data-name="Path 903721" d="M375.8,264.938s12.751-2.874,12.391-17.6c-11.134-2.514-17.958,14.367-17.958,14.367" transform="translate(-175.058 -105.254)" fill="#fff"/>
            <path id="Path_903722" data-name="Path 903722" d="M343.155,261.721a16.913,16.913,0,0,0-11.673-15.444c-5.926,5.746,6.285,17.06,6.285,17.06" transform="translate(-157.861 -104.911)" fill="#fff"/>
            <path id="Path_903723" data-name="Path 903723" d="M352.4,296.039c0,1.732,1.045,3.137,2.334,3.137s2.335-1.4,2.335-3.137-1.045-3.137-2.335-3.137-2.334,1.4-2.334,3.137" transform="translate(-167.462 -124.772)" fill="#272532"/>
            <path id="Path_903724" data-name="Path 903724" d="M322.866,309.115a.367.367,0,0,0,.341-.231,3.1,3.1,0,0,0-.432-3.384,2.055,2.055,0,0,0-2.181-.571c-.952.34-1.567,1.394-1.687,2.89a.368.368,0,0,0,.338.4.38.38,0,0,0,.4-.337c.095-1.2.533-2.018,1.2-2.256a1.331,1.331,0,0,1,1.4.389,2.389,2.389,0,0,1,.28,2.6.368.368,0,0,0,.2.478.362.362,0,0,0,.137.026" transform="translate(-153.195 -129.848)" fill="#272532"/>
            <path id="Path_903725" data-name="Path 903725" d="M302.836,307.122a.368.368,0,0,0,.351-.48c-.317-1-.275-1.782.115-2.158a1.063,1.063,0,0,1,1.119-.146,2.4,2.4,0,0,1,1.461,2.1.368.368,0,0,0,.732-.082,3.135,3.135,0,0,0-1.943-2.708,1.773,1.773,0,0,0-1.879.308c-.352.339-.861,1.168-.307,2.911a.368.368,0,0,0,.351.257" transform="translate(-146.096 -129.292)" fill="#272532"/>
            <path id="Path_903726" data-name="Path 903726" d="M350.8,322.691c.134,0,.268-.005.4-.017a4.47,4.47,0,0,0,3.849-3.032.368.368,0,1,0-.7-.233,3.735,3.735,0,0,1-3.216,2.533,4.185,4.185,0,0,1-4.012-2.413.368.368,0,0,0-.647.352,4.963,4.963,0,0,0,4.321,2.81" transform="translate(-164.923 -135.957)" fill="#272532"/>
            <path id="Path_903727" data-name="Path 903727" d="M380.9,265.1h.02a.369.369,0,0,0,.349-.386c-.013-.26-.227-6.4,7.826-8.969a.368.368,0,1,0-.224-.7c-8.611,2.748-8.34,9.64-8.337,9.709a.369.369,0,0,0,.367.348" transform="translate(-179.448 -108.635)" fill="#cfcfcf"/>
            <path id="Path_903728" data-name="Path 903728" d="M330.184,271.471c.9,8.082,10.6,12.391,23.166,7.722s12.391,10.955,26.4,3.951c-3.053-.18-5.028-19.216-21.91-12.571-13.534,5.327-26.219,2.873-27.656.9" transform="translate(-157.999 -114.661)" fill="#562c84"/>
            <path id="Path_903729" data-name="Path 903729" d="M350.434,253.736c-12.3-.987-25.771,9.338-17.689,15.265s14.546-5.029,29.631-.18c-2.514-3.413-.808-14.192-11.942-15.086" transform="translate(-158.046 -108.06)" fill="#fe88b1"/>
            <path id="Path_903730" data-name="Path 903730" d="M330.16,272c-.539,5.028,5.567,10.057,16.881,5.567s22.628.359,26.579,4.489c-5.208-12.032-22.089-13.289-26.938-10.236s-13.109,3.233-16.521.18" transform="translate(-157.975 -115.191)" fill="#8cc3ed"/>
            <path id="Path_903731" data-name="Path 903731" d="M358.6,249.75s-5.6-16.8-10.138-21.183c-1.211,6.506.3,22.848.3,22.848s2.572,2.118,9.835-1.665" transform="translate(-165.587 -97.367)" fill="#ffd860"/>
            <path id="Path_903732" data-name="Path 903732" d="M356.075,260.85a19.694,19.694,0,0,0,2.131-.108.368.368,0,1,0-.087-.731c-.07.009-7.11.8-8.836-2.259a.368.368,0,1,0-.641.362c1.319,2.336,5.037,2.736,7.432,2.736" transform="translate(-165.842 -109.719)" fill="#ca5c21"/>
            <path id="Path_903733" data-name="Path 903733" d="M355.2,252.183c.54,0,.9-.024.957-.028a.368.368,0,0,0,.341-.393.36.36,0,0,0-.393-.341c-.06.006-5.838.383-7.424-2.129a.368.368,0,0,0-.623.393c1.406,2.225,5.314,2.5,7.143,2.5" transform="translate(-165.59 -106.122)" fill="#ca5c21"/>
            <path id="Path_903734" data-name="Path 903734" d="M351.714,242.7c.761,0,1.358-.052,1.521-.068a.368.368,0,1,0-.071-.733c-1.64.158-4.483.067-5.125-.851a.368.368,0,0,0-.6.422c.724,1.034,2.806,1.23,4.279,1.23" transform="translate(-165.32 -102.616)" fill="#ca5c21"/>
            <path id="Path_903735" data-name="Path 903735" d="M349.752,235.3a6.5,6.5,0,0,0,1.425-.165.368.368,0,0,0-.177-.715,4.1,4.1,0,0,1-2.476-.106.368.368,0,0,0-.366.639,3.267,3.267,0,0,0,1.593.347" transform="translate(-165.578 -99.794)" fill="#ca5c21"/>
            <path id="Path_903736" data-name="Path 903736" d="M359.051,265.574c-5.388-4.131-15.624-.359-18.856,2.694,6.106,2.514,16.7-3.412,18.856-2.694" transform="translate(-162.264 -112.355)" fill="#d67494"/>
            <path id="Path_903737" data-name="Path 903737" d="M340.7,261.607c-2.514,2.874,1.437,4.04,5.208,2.065s9.787-1.976,12.75.09c-4.041-.359-8.547-.115-11.493,1.886-4.759,3.233-12.661.988-6.465-4.04" transform="translate(-161.507 -111.441)" fill="#8cc3ed"/>
            <g id="Group_1143140" data-name="Group 1143140" transform="translate(385.68 213.886)" opacity="0.5" style="mix-blend-mode: multiply;isolation: isolate">
              <g id="Group_1143139" data-name="Group 1143139">
                <g id="Group_1143138" data-name="Group 1143138" clip-path="url(#clip-path-21)">
                  <path id="Path_903738" data-name="Path 903738" d="M762.18,376.165c0,1.961-13.446,3.551-30.031,3.551s-30.031-1.59-30.031-3.551,13.445-3.551,30.031-3.551,30.031,1.59,30.031,3.551" transform="translate(-702.117 -372.615)" fill="#79d1a3"/>
                </g>
              </g>
            </g>
            <g id="Group_1143143" data-name="Group 1143143" transform="translate(468.088 213.886)" opacity="0.5" style="mix-blend-mode: multiply;isolation: isolate">
              <g id="Group_1143142" data-name="Group 1143142">
                <g id="Group_1143141" data-name="Group 1143141" clip-path="url(#clip-path-21)">
                  <path id="Path_903739" data-name="Path 903739" d="M905.744,376.165c0,1.961-13.446,3.551-30.031,3.551s-30.031-1.59-30.031-3.551,13.445-3.551,30.031-3.551,30.031,1.59,30.031,3.551" transform="translate(-845.681 -372.615)" fill="#79d1a3"/>
                </g>
              </g>
            </g>
            <path id="Path_903740" data-name="Path 903740" d="M711.04,299.271h4.046l12.364-102.392,14.387-.418,10.116,102.811h3.821s-10.34-105.565-10.94-106.763-19.183.6-20.681,1.2S711.04,299.271,711.04,299.271" transform="translate(-320.238 -81.834)" fill="#db7651"/>
            <path id="Path_903741" data-name="Path 903741" d="M730.447,301.733c5.92-2.023,28.334-2.181,28.334-2.181l-.679-6.893c-11.845,1.132-27.655,3.755-27.655,3.755Z" transform="translate(-328.505 -124.668)" fill="#222221"/>
            <path id="Path_903742" data-name="Path 903742" d="M715.827,299.271h4.046l12.364-102.392,14.387-.418,10.116,102.811h3.821s-10.34-105.565-10.94-106.763-19.182.6-20.681,1.2-13.113,105.565-13.113,105.565" transform="translate(-322.277 -81.834)" fill="#b54b33"/>
            <path id="Path_903743" data-name="Path 903743" d="M774.778,193.59c1.474,2.473-.6,6.02-.6,6.02l-2.348.2,1.193-6.219Z" transform="translate(-346.134 -82.467)" fill="#352534"/>
            <path id="Path_903744" data-name="Path 903744" d="M810.155,193.59c1.474,2.473-.6,6.02-.6,6.02l-2.348.2,1.193-6.219Z" transform="translate(-361.203 -82.467)" fill="#352534"/>
            <path id="Path_903745" data-name="Path 903745" d="M872.684,193.59c1.473,2.473-.6,6.02-.6,6.02l-2.348.2,1.193-6.219Z" transform="translate(-387.84 -82.467)" fill="#352534"/>
            <path id="Path_903746" data-name="Path 903746" d="M837.568,193.59c1.474,2.473-.6,6.02-.6,6.02l-2.348.2,1.193-6.219Z" transform="translate(-372.881 -82.467)" fill="#352534"/>
            <path id="Path_903747" data-name="Path 903747" d="M839.311,194.8l-84.829-.949c-.862.15-1.937,2.848-.313,2.96l85.387-.212Z" transform="translate(-338.251 -82.578)" fill="#4f49c1"/>
            <path id="Path_903748" data-name="Path 903748" d="M808.985,199.61l-2.348.2c-1.8-3.9.125-6.219.125-6.219h2.822c-1.973,1.824-.6,6.02-.6,6.02" transform="translate(-360.633 -82.467)" fill="#8cc3ed"/>
            <path id="Path_903749" data-name="Path 903749" d="M808.132,200.966a.881.881,0,0,0,0,1.761.881.881,0,0,0,0-1.761" transform="translate(-361.235 -85.609)" fill="#352534"/>
            <path id="Path_903750" data-name="Path 903750" d="M773.5,199.61l-2.348.2c-1.8-3.9.124-6.219.124-6.219H774.1c-1.973,1.824-.6,6.02-.6,6.02" transform="translate(-345.519 -82.467)" fill="#8cc3ed"/>
            <path id="Path_903751" data-name="Path 903751" d="M772.559,200.868a.881.881,0,0,0,0,1.761.881.881,0,0,0,0-1.761" transform="translate(-346.082 -85.567)" fill="#352534"/>
            <path id="Path_903752" data-name="Path 903752" d="M750.936,260.419a.287.287,0,0,1-.122-.026.293.293,0,0,1-.145-.389,1.38,1.38,0,0,1,1.266-.724c13.853-22.286,11.441-55.758,11.415-56.095a.294.294,0,0,1,.586-.045,125.954,125.954,0,0,1-.462,19.774c-1.022,10.319-3.781,25.083-11.131,36.82a.3.3,0,0,1-.27.137.82.82,0,0,0-.869.375.294.294,0,0,1-.267.172" transform="translate(-337.108 -86.42)" fill="#f97338"/>
            <path id="Path_903753" data-name="Path 903753" d="M734.013,300.95c-.8-.008-1.9,3.923-.112,4.312.518.113,20.757,1.092,21.152.82s.168-2.843.022-2.891-20.261-2.234-21.062-2.242" transform="translate(-329.566 -128.201)" fill="#2e2e87"/>
            <g id="Group_1143146" data-name="Group 1143146" transform="translate(403.386 172.743)" opacity="0.3" style="mix-blend-mode: soft-light;isolation: isolate">
              <g id="Group_1143145" data-name="Group 1143145">
                <g id="Group_1143144" data-name="Group 1143144" clip-path="url(#clip-path-23)">
                  <path id="Path_903754" data-name="Path 903754" d="M734.024,300.945c1.077-.211,1.167,4.561-.113,4.312-1.616-.315-.885-4.117.113-4.312" transform="translate(-732.963 -300.938)" fill="#fff"/>
                </g>
              </g>
            </g>
            <path id="Path_903755" data-name="Path 903755" d="M775.027,307.251S772.238,316.7,769,317.763c-1.716.567-9.206.983-14.934.288h0c-5.07-.615-9.875-1.591-11.159-2.67-2.316-1.945-3.35-8.658-3.617-10.7a.48.48,0,0,1,.519-.539l.784.069.731.065,15.1,1.337,1.4.125.207.018Z" transform="translate(-332.27 -129.561)" fill="#faa41b"/>
            <path id="Path_903756" data-name="Path 903756" d="M758.795,305.794c-1.01,3.417-3.138,10.366-3.923,11.041-1.045.9-7.27-.224-10.405-2.031-2.381-1.371-2.829-7.606-2.9-10.537l.731.065,15.1,1.337Z" transform="translate(-333.24 -129.613)" fill="#f97338"/>
            <path id="Path_903757" data-name="Path 903757" d="M758.035,305.756s-1.212,12.05-3.964,12.292h0c-5.069-.615-9.874-1.591-11.158-2.669-2.3-1.935-3.34-8.586-3.613-10.663a.515.515,0,0,1,.549-.58l1.526.144s-.045-.025-.046,0c.043.585.684,9.189,2.747,10.248,2.136,1.094,8.347,2.144,9.313,1.764.918-.361,2.829-9.778,3.042-10.675.012-.047.017-.072.017-.072Z" transform="translate(-332.273 -129.557)" fill="#ffd261"/>
            <path id="Path_903758" data-name="Path 903758" d="M768.224,310.913l18.16,2.049.759-2Z" transform="translate(-344.597 -132.445)" fill="#352534"/>
            <path id="Path_903759" data-name="Path 903759" d="M767.162,303.355c-.8-.008-1.9,3.923-.113,4.312.518.113,20.239,1.057,20.634.786s.169-2.843.022-2.891-19.743-2.2-20.543-2.207" transform="translate(-343.687 -129.225)" fill="#4f49c1"/>
            <g id="Group_1143149" data-name="Group 1143149" transform="translate(422.406 174.117)" opacity="0.3" style="mix-blend-mode: soft-light;isolation: isolate">
              <g id="Group_1143148" data-name="Group 1143148">
                <g id="Group_1143147" data-name="Group 1143147" clip-path="url(#clip-path-24)">
                  <path id="Path_903760" data-name="Path 903760" d="M767.162,303.345c1.06-.286,1.188,4.4-.112,4.312-1.532-.11-1.007-4.01.112-4.312" transform="translate(-766.098 -303.332)" fill="#fff"/>
                </g>
              </g>
            </g>
            <path id="Path_903761" data-name="Path 903761" d="M786.927,265.725a.293.293,0,0,1-.01-.587,1.269,1.269,0,0,0,1.143-.914,2.252,2.252,0,0,0-.9-2.438.293.293,0,0,1-.06-.381c13.955-22.288,12.035-57.868,12.014-58.225a.294.294,0,0,1,.586-.034,141.905,141.905,0,0,1-.717,20.762c-1.131,10.706-4,25.89-11.254,37.6a2.765,2.765,0,0,1,.883,2.909,1.843,1.843,0,0,1-1.678,1.309h-.01" transform="translate(-352.44 -86.42)" fill="#f97338"/>
            <path id="Path_903762" data-name="Path 903762" d="M871.515,199.61l-2.348.2c-1.8-3.9.125-6.219.125-6.219h2.822c-1.973,1.824-.6,6.02-.6,6.02" transform="translate(-387.27 -82.467)" fill="#8cc3ed"/>
            <path id="Path_903763" data-name="Path 903763" d="M870.661,200.966a.881.881,0,0,0,0,1.761.881.881,0,0,0,0-1.761" transform="translate(-387.871 -85.609)" fill="#352534"/>
            <path id="Path_903764" data-name="Path 903764" d="M836.4,199.61l-2.348.2c-1.8-3.9.125-6.219.125-6.219H837c-1.973,1.824-.6,6.02-.6,6.02" transform="translate(-372.311 -82.467)" fill="#8cc3ed"/>
            <path id="Path_903765" data-name="Path 903765" d="M835.545,200.966a.881.881,0,0,0,0,1.761.881.881,0,0,0,0-1.761" transform="translate(-372.913 -85.609)" fill="#352534"/>
            <path id="Path_903766" data-name="Path 903766" d="M817.506,310.92c-.8.05-1.609,4.05.2,4.309.525.075,20.782-.412,21.156-.712s-.037-2.848-.187-2.885-20.37-.762-21.169-.712" transform="translate(-365.211 -132.447)" fill="#2e2e87"/>
            <g id="Group_1143152" data-name="Group 1143152" transform="translate(451.412 178.461)" opacity="0.3" style="mix-blend-mode: soft-light;isolation: isolate">
              <g id="Group_1143151" data-name="Group 1143151">
                <g id="Group_1143150" data-name="Group 1143150" clip-path="url(#clip-path-25)">
                  <path id="Path_903767" data-name="Path 903767" d="M817.512,310.913c1.06-.289,1.494,4.464.2,4.309-1.634-.2-1.18-4.042-.2-4.309" transform="translate(-816.629 -310.9)" fill="#fff"/>
                </g>
              </g>
            </g>
            <path id="Path_903768" data-name="Path 903768" d="M858.757,314.27s-2.1,9.623-5.248,10.921c-1.67.689-9.11,1.646-14.874,1.368h0c-5.1-.247-9.964-.872-11.323-1.855-2.45-1.773-3.968-8.394-4.381-10.407a.48.48,0,0,1,.478-.575l.786.011.734.012,15.159.24,1.406.024.208,0Z" transform="translate(-367.896 -133.641)" fill="#faa41b"/>
            <path id="Path_903769" data-name="Path 903769" d="M842.438,314.017c-.76,3.481-2.38,10.565-3.114,11.3-.977.975-7.266.3-10.524-1.274-2.475-1.194-3.372-7.381-3.66-10.3l.734.012,15.159.24Z" transform="translate(-368.843 -133.649)" fill="#f97338"/>
            <path id="Path_903770" data-name="Path 903770" d="M841.706,314.006s-.338,12.107-3.064,12.547h0c-5.1-.247-9.964-.872-11.323-1.855-2.436-1.763-3.952-8.321-4.375-10.373a.514.514,0,0,1,.506-.618l1.533.033s-.046-.021-.046,0c.085.581,1.347,9.115,3.481,10.022,2.21.936,8.481,1.534,9.417,1.085.889-.426,2.114-9.957,2.261-10.867.009-.047.011-.073.011-.073Z" transform="translate(-367.901 -133.635)" fill="#ffd261"/>
            <path id="Path_903771" data-name="Path 903771" d="M852.213,317.462l18.26.73.613-2.049Z" transform="translate(-380.375 -134.673)" fill="#352534"/>
            <path id="Path_903772" data-name="Path 903772" d="M850.742,310.92c-.8.05-1.609,4.05.2,4.309.525.075,20.262-.409,20.637-.709s-.037-2.848-.187-2.885-19.85-.765-20.649-.715" transform="translate(-379.369 -132.447)" fill="#4f49c1"/>
            <g id="Group_1143155" data-name="Group 1143155" transform="translate(470.482 178.454)" opacity="0.3" style="mix-blend-mode: soft-light;isolation: isolate">
              <g id="Group_1143154" data-name="Group 1143154">
                <g id="Group_1143153" data-name="Group 1143153" clip-path="url(#clip-path-26)">
                  <path id="Path_903773" data-name="Path 903773" d="M850.737,310.907c1.037-.362,1.5,4.307.2,4.309-1.536,0-1.294-3.926-.2-4.309" transform="translate(-849.851 -310.887)" fill="#fff"/>
                </g>
              </g>
            </g>
            <path id="Path_903774" data-name="Path 903774" d="M872.961,269.07a.293.293,0,0,1-.222-.485c.368-.428,1.273-1.73,1.036-2.6a1.247,1.247,0,0,0-.918-.806.294.294,0,0,1-.194-.335c.1-1.171-1.038-41.249-1.654-62.329a.293.293,0,0,1,.587-.017c.645,22.07,1.684,58.44,1.643,62.2a1.726,1.726,0,0,1,1.1,1.137c.368,1.344-1.1,3.06-1.158,3.132a.293.293,0,0,1-.222.1m-.01-4.165h0Z" transform="translate(-388.382 -86.142)" fill="#f97338"/>
            <path id="Path_903775" data-name="Path 903775" d="M836.692,264.961a.3.3,0,0,1-.28-.4c.034-.1.2-.441.943-.786.04-2.825-1.077-41.124-1.689-61.487a.293.293,0,0,1,.284-.3.306.306,0,0,1,.3.285c.688,22.908,1.819,61.4,1.658,61.808a.294.294,0,0,1-.161.164c-.66.274-.788.522-.789.524a.28.28,0,0,1-.269.192m.946-.987h0Zm0,0h0Z" transform="translate(-373.326 -86.045)" fill="#f97338"/>
            <path id="Path_903776" data-name="Path 903776" d="M859.032,299.271h4.046l12.364-102.392,14.387-.418,10.117,102.811h3.821s-10.34-105.565-10.94-106.763-19.182.6-20.681,1.2-13.113,105.565-13.113,105.565" transform="translate(-383.28 -81.834)" fill="#b54b33"/>
            <path id="Path_903777" data-name="Path 903777" d="M878.439,301.733c5.92-2.023,28.334-2.181,28.334-2.181l-.678-6.893c-11.845,1.132-27.656,3.755-27.656,3.755Z" transform="translate(-391.547 -124.668)" fill="#222221"/>
            <path id="Path_903778" data-name="Path 903778" d="M863.818,299.271h4.046l12.364-102.392,14.387-.418,10.116,102.811h3.821s-10.34-105.565-10.94-106.763-19.182.6-20.681,1.2-13.113,105.565-13.113,105.565" transform="translate(-385.319 -81.834)" fill="#db7651"/>
            <g id="Group_1143158" data-name="Group 1143158" transform="translate(475.557 261.42)" opacity="0.5" style="mix-blend-mode: multiply;isolation: isolate">
              <g id="Group_1143157" data-name="Group 1143157">
                <g id="Group_1143156" data-name="Group 1143156" clip-path="url(#clip-path-27)">
                  <path id="Path_903779" data-name="Path 903779" d="M936.32,462.15c0,3.715-17.377,6.726-38.814,6.726s-38.813-3.011-38.813-6.726,17.377-6.726,38.813-6.726,38.814,3.011,38.814,6.726" transform="translate(-858.693 -455.424)" fill="#79d1a3"/>
                </g>
              </g>
            </g>
            <g id="Group_1143161" data-name="Group 1143161" transform="translate(293.502 267.954)" opacity="0.5" style="mix-blend-mode: multiply;isolation: isolate">
              <g id="Group_1143160" data-name="Group 1143160">
                <g id="Group_1143159" data-name="Group 1143159" clip-path="url(#clip-path-15)">
                  <path id="Path_903780" data-name="Path 903780" d="M619.159,473.533c0,3.715-17.377,6.726-38.814,6.726s-38.813-3.011-38.813-6.726,17.377-6.726,38.813-6.726,38.814,3.011,38.814,6.726" transform="translate(-541.532 -466.807)" fill="#79d1a3"/>
                </g>
              </g>
            </g>
            <g id="Group_1143164" data-name="Group 1143164" transform="translate(416.333 266.938)" opacity="0.5" style="mix-blend-mode: multiply;isolation: isolate">
              <g id="Group_1143163" data-name="Group 1143163">
                <g id="Group_1143162" data-name="Group 1143162" clip-path="url(#clip-path-29)">
                  <path id="Path_903781" data-name="Path 903781" d="M804.794,469.307c0,2.358-11.031,4.27-24.638,4.27s-24.638-1.911-24.638-4.27,11.031-4.27,24.638-4.27,24.638,1.912,24.638,4.27" transform="translate(-755.518 -465.038)" fill="#79d1a3"/>
                </g>
              </g>
            </g>
            <path id="Path_903782" data-name="Path 903782" d="M396.027,476.672h49.882a19.317,19.317,0,0,0,1.513-11.072c-.241-1.321-.742-2.77-1.955-3.344-1.507-.713-3.231.276-4.6,1.226a40.994,40.994,0,0,0-3.253-21.363,13.667,13.667,0,0,0-2.623-4.174,5.928,5.928,0,0,0-4.423-1.891,7.851,7.851,0,0,0-4.4,2.171,27.133,27.133,0,0,0-8.629,13.683,13.127,13.127,0,0,0-7.717-9.647,8.291,8.291,0,0,0-6.407-.275c-2.515,1.091-3.978,3.755-4.745,6.387a21.6,21.6,0,0,0,.7,13.985c-1.651-1.68-4.717-1.238-6.276.528a7.314,7.314,0,0,0-1.186,6.679c.608,2.276,2.812,5.147,4.12,7.106" transform="translate(-184.16 -185.749)" fill="#5bb583"/>
            <path id="Path_903783" data-name="Path 903783" d="M415.983,490.215h27.475a10.641,10.641,0,0,0,.833-6.1,2.387,2.387,0,0,0-1.077-1.842c-.83-.393-1.779.152-2.534.676a22.578,22.578,0,0,0-1.792-11.767,7.526,7.526,0,0,0-1.444-2.3,3.264,3.264,0,0,0-2.436-1.041,4.327,4.327,0,0,0-2.422,1.2,14.94,14.94,0,0,0-4.753,7.537,7.232,7.232,0,0,0-4.251-5.314,4.569,4.569,0,0,0-3.529-.152,5.247,5.247,0,0,0-2.613,3.518,11.9,11.9,0,0,0,.383,7.7,2.471,2.471,0,0,0-3.457.29,4.028,4.028,0,0,0-.653,3.678,16.267,16.267,0,0,0,2.27,3.914" transform="translate(-193.509 -199.292)" fill="#3c9962"/>
            <path id="Path_903784" data-name="Path 903784" d="M112.626,474.658H3.766c-2-1.847-2.354-5.533-1.172-7.984a6.588,6.588,0,0,1,6.746-3.547c-3.167-4.48-6.4-9.1-7.7-14.43s-.247-11.609,4.007-15.074c3.491-2.842,8.4-3.269,12.854-2.578a31.04,31.04,0,0,1,21.723,14.812,12.31,12.31,0,0,1,5.764-12.332,15.2,15.2,0,0,1,13.9-.639c4.4,1.956,7.79,5.716,10.164,9.9a68.165,68.165,0,0,1,5.272,13.4c1.395-2.926,3.153-6.1,6.244-7.076,3.415-1.076,7.171,1.144,9.032,4.2s2.276,6.752,2.647,10.313a11.808,11.808,0,0,1,14.1-2.526c4.531,2.469,6.7,8.595,5.276,13.554" transform="translate(-17.82 -183.496)" fill="#5bb583"/>
            <path id="Path_903785" data-name="Path 903785" d="M111.159,489.521h-59.2a3.977,3.977,0,0,1-.637-4.342,3.581,3.581,0,0,1,3.669-1.929c-1.723-2.437-3.481-4.949-4.19-7.848s-.134-6.313,2.18-8.2c1.9-1.546,4.571-1.778,6.99-1.4a16.88,16.88,0,0,1,11.813,8.056,6.7,6.7,0,0,1,3.135-6.707,8.269,8.269,0,0,1,7.559-.347A12.445,12.445,0,0,1,88,472.189a37.072,37.072,0,0,1,2.867,7.289c.758-1.591,1.715-3.318,3.4-3.848,1.857-.586,3.9.622,4.912,2.285a13.257,13.257,0,0,1,1.439,5.608,6.422,6.422,0,0,1,7.671-1.374,6.6,6.6,0,0,1,2.87,7.371" transform="translate(-38.865 -198.358)" fill="#3c9962"/>
            <path id="Path_903786" data-name="Path 903786" d="M1006.36,473.69v-.16h81.982a14.3,14.3,0,0,0,1.866-7.635,7.964,7.964,0,0,0-3.625-6.309,5.806,5.806,0,0,0-6.971.741c.2-7.494.4-15.094-1.386-22.376-.839-3.429-2.315-7.005-5.348-8.811-3.421-2.038-7.828-1.234-11.5.3a33.847,33.847,0,0,0-17.069,15.887,23.141,23.141,0,0,0-1.479-6.507,7.806,7.806,0,0,0-4.67-4.5,7.411,7.411,0,0,0-5.826,1.008,15.726,15.726,0,0,0-4.292,4.261c-5.681,7.756-8.082,17.365-10.36,26.7a4.13,4.13,0,0,0-4.62-2.825,6.747,6.747,0,0,0-4.6,3.465c-1,1.716-1.651,4.832-2.1,6.766" transform="translate(-446.04 -182.287)" fill="#5bb583"/>
            <path id="Path_903787" data-name="Path 903787" d="M1041.343,489.536v-.083h42.725a7.452,7.452,0,0,0,.973-3.979,4.149,4.149,0,0,0-1.889-3.288,3.025,3.025,0,0,0-3.633.386c.105-3.906.206-7.866-.723-11.662-.437-1.787-1.207-3.65-2.787-4.592-1.783-1.062-4.079-.642-6,.154a17.635,17.635,0,0,0-8.9,8.28,12.061,12.061,0,0,0-.771-3.391,4.068,4.068,0,0,0-2.434-2.347,3.86,3.86,0,0,0-3.036.525,8.209,8.209,0,0,0-2.238,2.22c-2.96,4.042-4.212,9.05-5.4,13.917a2.154,2.154,0,0,0-2.408-1.472,3.515,3.515,0,0,0-2.4,1.806,14.827,14.827,0,0,0-1.095,3.526" transform="translate(-460.942 -198.374)" fill="#3c9962"/>
            <path id="Path_903788" data-name="Path 903788" d="M807.908,122.248a2.3,2.3,0,0,0-.791.157,2.186,2.186,0,0,0-.711.421,3.567,3.567,0,0,0-.968,2.937,14.744,14.744,0,0,0,.332,2.526l-.084.044-.1.067-.081.059c-.134.092-.271.187-.406.283a7.748,7.748,0,0,0-1.23,1.085,2.467,2.467,0,0,0-.579,2.652,2.763,2.763,0,0,0,2,1.241,7.985,7.985,0,0,0,1.656.153c.117,0,.234,0,.35-.007a13.393,13.393,0,0,0,.984,2.181A4.209,4.209,0,0,0,809.3,137.3a2.95,2.95,0,0,0,.319.2,1.484,1.484,0,0,0,.286.121,1.375,1.375,0,0,0,.348.068l.06,0c.041,0,.081,0,.121,0a1.572,1.572,0,0,0,.232-.016,1.855,1.855,0,0,0,1.154-.686,3.966,3.966,0,0,0,.643-1.316,10.58,10.58,0,0,0,.4-2.456,2.129,2.129,0,0,0,.441.206,10.913,10.913,0,0,0,1.588.474,6.2,6.2,0,0,0,1.228.141,3.943,3.943,0,0,0,.4-.02,2.15,2.15,0,0,0,1.378-.629,1.718,1.718,0,0,0,.385-1.46,3.3,3.3,0,0,0-.714-1.451,9.639,9.639,0,0,0-1.66-1.624,8.148,8.148,0,0,0,.962-1.933,2.457,2.457,0,0,0-.227-2.443,2.166,2.166,0,0,0-1.68-.645,4.645,4.645,0,0,0-1.073.137,10.2,10.2,0,0,0-2.089.763,7.542,7.542,0,0,0-.539-.614,8.723,8.723,0,0,0-1.553-1.3,3.988,3.988,0,0,0-.8-.4,3.857,3.857,0,0,0-.451-.127,2.725,2.725,0,0,0-.429-.049l-.079,0Z" transform="translate(-359.453 -52.076)" fill="#f73c50"/>
            <path id="Path_903789" data-name="Path 903789" d="M323.326,190.72a2.3,2.3,0,0,1,.791.157,2.187,2.187,0,0,1,.711.421,3.567,3.567,0,0,1,.968,2.937,14.751,14.751,0,0,1-.332,2.526l.084.044.1.067.081.059c.134.092.271.187.406.283a7.757,7.757,0,0,1,1.23,1.085,2.467,2.467,0,0,1,.579,2.652,2.763,2.763,0,0,1-2,1.241,7.984,7.984,0,0,1-1.656.153q-.176,0-.35-.007a13.39,13.39,0,0,1-.984,2.181,4.212,4.212,0,0,1-1.015,1.258,2.949,2.949,0,0,1-.319.2,1.485,1.485,0,0,1-.286.121,1.375,1.375,0,0,1-.348.068l-.06,0c-.041,0-.081,0-.121,0a1.565,1.565,0,0,1-.232-.016,1.854,1.854,0,0,1-1.154-.686,3.968,3.968,0,0,1-.643-1.316,10.574,10.574,0,0,1-.4-2.456,2.131,2.131,0,0,1-.441.206,10.911,10.911,0,0,1-1.588.474,6.2,6.2,0,0,1-1.228.141,3.944,3.944,0,0,1-.4-.02,2.15,2.15,0,0,1-1.378-.629,1.718,1.718,0,0,1-.385-1.46,3.3,3.3,0,0,1,.714-1.451,9.644,9.644,0,0,1,1.66-1.624,8.148,8.148,0,0,1-.961-1.933,2.457,2.457,0,0,1,.227-2.443,2.166,2.166,0,0,1,1.68-.645,4.646,4.646,0,0,1,1.073.137,10.2,10.2,0,0,1,2.089.763,7.561,7.561,0,0,1,.538-.614,8.725,8.725,0,0,1,1.553-1.3,3.986,3.986,0,0,1,.8-.4,3.859,3.859,0,0,1,.451-.127,2.727,2.727,0,0,1,.429-.049l.079,0Z" transform="translate(-150.642 -81.244)" fill="#f73c50"/>
            <path id="Path_903790" data-name="Path 903790" d="M231.006,75.879a2.3,2.3,0,0,1,.791.157,2.187,2.187,0,0,1,.711.421,3.567,3.567,0,0,1,.968,2.937,14.759,14.759,0,0,1-.332,2.526l.084.044.1.067.081.059c.134.092.272.187.406.283a7.754,7.754,0,0,1,1.23,1.085,2.467,2.467,0,0,1,.579,2.652,2.764,2.764,0,0,1-2,1.241,7.985,7.985,0,0,1-1.656.153q-.176,0-.35-.007a13.393,13.393,0,0,1-.984,2.181,4.211,4.211,0,0,1-1.015,1.258,2.938,2.938,0,0,1-.319.2,1.487,1.487,0,0,1-.286.121,1.374,1.374,0,0,1-.348.068l-.06,0c-.041,0-.081,0-.121,0a1.569,1.569,0,0,1-.232-.016,1.854,1.854,0,0,1-1.154-.686,3.967,3.967,0,0,1-.643-1.316,10.574,10.574,0,0,1-.4-2.456,2.132,2.132,0,0,1-.441.206,10.915,10.915,0,0,1-1.588.474,6.2,6.2,0,0,1-1.228.141,3.944,3.944,0,0,1-.4-.02,2.15,2.15,0,0,1-1.378-.629,1.718,1.718,0,0,1-.385-1.46,3.3,3.3,0,0,1,.714-1.451A9.642,9.642,0,0,1,223,82.5a8.15,8.15,0,0,1-.961-1.933,2.457,2.457,0,0,1,.227-2.443,2.166,2.166,0,0,1,1.68-.645,4.647,4.647,0,0,1,1.073.137,10.2,10.2,0,0,1,2.089.763,7.55,7.55,0,0,1,.538-.614,8.723,8.723,0,0,1,1.553-1.3,3.986,3.986,0,0,1,.8-.4,3.855,3.855,0,0,1,.451-.127,2.727,2.727,0,0,1,.429-.049l.079,0Z" transform="translate(-111.315 -32.324)" fill="#ffd860"/>
            <path id="Path_903791" data-name="Path 903791" d="M972.318,72.1a2.481,2.481,0,0,0-1.257.348l-.081.052-.047.034a2.873,2.873,0,0,0-.346.263,4.374,4.374,0,0,0-.335.364,4.217,4.217,0,0,0-.5.808A9.19,9.19,0,0,0,969.073,76c-.061.29-.115.583-.167.872a9.97,9.97,0,0,0-2.287.449,4.717,4.717,0,0,0-1.033.471,2.289,2.289,0,0,0-1.16,1.509,2.61,2.61,0,0,0,1.141,2.324,10.16,10.16,0,0,0,1.95,1.236,8.987,8.987,0,0,0-.609,2.353,3.417,3.417,0,0,0,.16,1.7,1.809,1.809,0,0,0,.439.685,1.912,1.912,0,0,0,.709.414,1.757,1.757,0,0,0,.51.072,2.469,2.469,0,0,0,1.076-.265c.128-.063.254-.13.375-.2a6.353,6.353,0,0,0,1.028-.8,11.29,11.29,0,0,0,1.171-1.3l.047-.06.04-.054c.081-.106.161-.211.236-.319a9.518,9.518,0,0,0,1.678,1.992,4.214,4.214,0,0,0,1.307.824,2.163,2.163,0,0,0,.708.126,1.793,1.793,0,0,0,1.088-.364,1.267,1.267,0,0,0,.239-.21,1.917,1.917,0,0,0,.227-.311,2.472,2.472,0,0,0,.168-.357,4.455,4.455,0,0,0,.231-1.693,17.372,17.372,0,0,0-.31-2.533,2.188,2.188,0,0,0,.3-.167,8.272,8.272,0,0,0,1.409-1.048,2.932,2.932,0,0,0,1.125-2.224,2.612,2.612,0,0,0-1.988-2.066,8.5,8.5,0,0,0-1.709-.3q-.377-.027-.754-.042l-.07,0-.176-.438a16.742,16.742,0,0,0-.956-2.008,3.769,3.769,0,0,0-2.491-2.112,2.489,2.489,0,0,0-.409-.034" transform="translate(-428.163 -30.716)" fill="#4f49c1"/>
            <path id="Path_903792" data-name="Path 903792" d="M82.428,152.091a2.481,2.481,0,0,0-1.257.348l-.081.052-.047.034a2.93,2.93,0,0,0-.347.263,4.584,4.584,0,0,0-.335.364,4.251,4.251,0,0,0-.5.808,9.266,9.266,0,0,0-.677,2.023c-.06.29-.115.583-.166.873a9.957,9.957,0,0,0-2.287.449,4.724,4.724,0,0,0-1.033.471,2.286,2.286,0,0,0-1.16,1.509,2.61,2.61,0,0,0,1.141,2.324,10.178,10.178,0,0,0,1.949,1.236,9.026,9.026,0,0,0-.608,2.353,3.423,3.423,0,0,0,.16,1.7,1.817,1.817,0,0,0,.439.685,1.919,1.919,0,0,0,.709.414,1.753,1.753,0,0,0,.51.072,2.473,2.473,0,0,0,1.076-.265c.127-.063.254-.13.375-.2a6.323,6.323,0,0,0,1.028-.8,11.29,11.29,0,0,0,1.172-1.3l.047-.06.04-.054c.08-.106.161-.211.235-.319a9.545,9.545,0,0,0,1.678,1.992,4.213,4.213,0,0,0,1.307.824A2.162,2.162,0,0,0,86.5,168a1.793,1.793,0,0,0,1.088-.364,1.237,1.237,0,0,0,.239-.21,1.936,1.936,0,0,0,.228-.311,2.53,2.53,0,0,0,.168-.357,4.465,4.465,0,0,0,.231-1.693,17.543,17.543,0,0,0-.309-2.533,2.181,2.181,0,0,0,.3-.167,8.263,8.263,0,0,0,1.409-1.048,2.928,2.928,0,0,0,1.125-2.224,2.611,2.611,0,0,0-1.988-2.066,8.513,8.513,0,0,0-1.709-.3c-.252-.018-.5-.032-.754-.042l-.07,0-.176-.438a16.653,16.653,0,0,0-.956-2.008,3.769,3.769,0,0,0-2.49-2.112,2.493,2.493,0,0,0-.409-.034" transform="translate(-49.085 -64.789)" fill="#4f49c1"/>
          </g>
        </g>
      </g>
    </g>
  </g>
</svg>
