<svg xmlns="http://www.w3.org/2000/svg" xmlns:xlink="http://www.w3.org/1999/xlink" width="108" height="108" viewBox="0 0 108 108">
  <defs>
    <filter id="Fondo" x="0" y="0" width="108" height="108" filterUnits="userSpaceOnUse">
      <feOffset dy="3" input="SourceAlpha"/>
      <feGaussianBlur stdDeviation="3" result="blur"/>
      <feFlood flood-opacity="0.161"/>
      <feComposite operator="in" in2="blur"/>
      <feComposite in="SourceGraphic"/>
    </filter>
  </defs>
  <g id="Group_1143020" data-name="Group 1143020" transform="translate(-746.627 -798.42)">
    <g transform="matrix(1, 0, 0, 1, 746.63, 798.42)" filter="url(#Fondo)">
      <g id="Fondo-2" data-name="Fondo" transform="translate(9 6)" fill="#cbddf7" stroke="#2f4f7e" stroke-width="3">
        <circle cx="45" cy="45" r="45" stroke="none"/>
        <circle cx="45" cy="45" r="43.5" fill="none"/>
      </g>
    </g>
    <g id="clone_9867914" transform="translate(753.517 802.339)">
      <g id="Group_1143017" data-name="Group 1143017" transform="translate(7.463 7.427)">
        <path id="Path_903490" data-name="Path 903490" d="M82.612,245.716H75.848c-3.583-2.421,0-4.809,0-4.809h6.768S85.94,243.966,82.612,245.716Z" transform="translate(-63.599 -203.657)" fill="#7a8fa5"/>
        <path id="Path_903491" data-name="Path 903491" d="M136.081,240.907v4.809h-9.442a8.077,8.077,0,0,0,0-4.809Z" transform="translate(-107.625 -203.657)" fill="#5b778f"/>
        <path id="Path_903492" data-name="Path 903492" d="M34.44,245.716H24.987v-4.809h9.452A8.09,8.09,0,0,0,34.44,245.716Z" transform="translate(-22.191 -203.657)" fill="#5b778f"/>
        <path id="Path_903493" data-name="Path 903493" d="M80.6,34.757H76.034c-5.441-1.918-1.475-4.809-1.475-4.809h7.527S84.881,32.751,80.6,34.757Z" transform="translate(-62.682 -26.355)" fill="#7a8fa5"/>
        <path id="Path_903494" data-name="Path 903494" d="M43.512,34.757H35.731l-1.263-4.809h7.569A9.079,9.079,0,0,0,43.512,34.757Z" transform="translate(-30.16 -26.355)" fill="#5b778f"/>
        <path id="Path_903495" data-name="Path 903495" d="M128.809,29.948l-1.262,4.809h-7.8a9.186,9.186,0,0,0,1.489-4.809Z" transform="translate(-101.837 -26.355)" fill="#5b778f"/>
        <path id="Path_903496" data-name="Path 903496" d="M84.017,456.673H76.461c-2.918-2.385,1.474-4.807,1.474-4.807h4.61S87.3,454.2,84.017,456.673Z" transform="translate(-64.612 -380.96)" fill="#7a8fa5"/>
        <path id="Path_903497" data-name="Path 903497" d="M46.086,451.866a9.086,9.086,0,0,0-1.474,4.807H37.566l1.209-4.807Z" transform="translate(-32.763 -380.96)" fill="#5b778f"/>
        <path id="Path_903498" data-name="Path 903498" d="M128.413,456.673H121.34a9.177,9.177,0,0,0-1.472-4.807H127.2Z" transform="translate(-101.935 -380.96)" fill="#5b778f"/>
        <path id="Path_903499" data-name="Path 903499" d="M32.623,61.851l-8.015,4.232-5.179,6.478c-3.118,3.234-4.781,6.861-4.781,10.58a3.592,3.592,0,0,1-7.184,0,22.011,22.011,0,0,1,6.092-14.794l8.719-4.393,4.474-6.312c7.731-8.035,5.7-17.536-3.645-24.273l-4.941.081-1.209-4.4a32.4,32.4,0,0,1-3.391-3.253,22.023,22.023,0,0,1-6.07-14.642,3.656,3.656,0,0,1,3.515-3.722,3.593,3.593,0,0,1,3.668,3.592c0,5.681,3.8,10.371,8.427,13.712l5.319-.563.832,4.886C40.635,38.531,41.67,51.731,32.623,61.851Z" transform="translate(-7.463 -7.427)" fill="#ff8a98"/>
        <path id="Path_903500" data-name="Path 903500" d="M64.715,326.378a31.732,31.732,0,0,1-3.388,3.253c-6.572,4.617-6.593,4.6-7.631,5.456a25.466,25.466,0,0,0-2.176,2q-.332-.221-.682-.437l-.107-.067c-.073-.045-.144-.091-.217-.138a42.472,42.472,0,0,1-4.868-3.572,32.275,32.275,0,0,1,3.388-3.244c6.231-4.382,7.676-5.248,9.805-7.462A47.821,47.821,0,0,1,64.715,326.378Z" transform="translate(-39.555 -271.955)" fill="#fd5c6f"/>
        <path id="Path_903501" data-name="Path 903501" d="M38.855,202.3a3.591,3.591,0,1,1-7.183,0c0-3.721-1.666-7.35-4.789-10.589a29.725,29.725,0,0,0-5.81-4.562c-15.212-9.621-17.3-24.6-7.366-35.7l4.64-2.244c1.516,1.158,2.621,1.793,3.77,2.552l-2.528,3.905c-7.414,7.635-6.613,18.005,5.548,25.556C32.771,185.958,38.855,193.242,38.855,202.3Z" transform="translate(-7.602 -126.583)" fill="#36d49b"/>
        <path id="Path_903502" data-name="Path 903502" d="M128.119,11.024a22.365,22.365,0,0,1-6.069,14.8l-4.8,2.123h0c-1.34-1.011-2.346-1.609-3.414-2.3l2.321-4.042c3.115-3.234,4.776-6.859,4.776-10.577a3.592,3.592,0,0,1,7.184,0Z" transform="translate(-96.866 -7.431)" fill="#36d49b"/>
        <path id="Path_903503" data-name="Path 903503" d="M46.135,146.54q-.2-.167-.4-.339a31.646,31.646,0,0,1,3.38-3.239c.023-.031,1.018.911,2.954,2.2,1.1.736,2.039,1.277,3.2,2.114a26.993,26.993,0,0,0-3.651,3.135l-5.337-3.752Z" transform="translate(-39.629 -121.338)" fill="#00b762"/>
        <path id="Path_903504" data-name="Path 903504" d="M111.644,103.7a71.215,71.215,0,0,0-6.151-4.324,26.7,26.7,0,0,0,3.653-3.135c5.773,4.06,5.24,3.658,5.892,4.22A31.931,31.931,0,0,1,111.644,103.7Z" transform="translate(-89.853 -82.072)" fill="#00b762"/>
        <path id="Path_903505" data-name="Path 903505" d="M230.545,128.736H221.21a1.162,1.162,0,0,1,0-2.325h9.335a1.162,1.162,0,1,1,0,2.325Z" transform="translate(-186.132 -107.428)" fill="#ff9a5c"/>
        <path id="Path_903506" data-name="Path 903506" d="M230.545,194.561H221.21a1.162,1.162,0,1,1,0-2.325h9.335a1.162,1.162,0,1,1,0,2.325Z" transform="translate(-186.132 -162.751)" fill="#ff9a5c"/>
        <path id="Path_903507" data-name="Path 903507" d="M230.545,377.4H221.21a1.162,1.162,0,1,1,0-2.324h9.335a1.162,1.162,0,1,1,0,2.324Z" transform="translate(-186.132 -316.422)" fill="#ff9a5c"/>
        <path id="Path_903508" data-name="Path 903508" d="M230.545,311.579H221.21a1.162,1.162,0,1,1,0-2.325h9.335a1.162,1.162,0,1,1,0,2.325Z" transform="translate(-186.132 -261.101)" fill="#ff9a5c"/>
        <path id="Path_903509" data-name="Path 903509" d="M383.733,245.716h-6.765c-3.583-2.421,0-4.809,0-4.809h6.768S387.061,243.966,383.733,245.716Z" transform="translate(-316.679 -203.657)" fill="#7a8fa5"/>
        <path id="Path_903510" data-name="Path 903510" d="M437.2,240.907v4.809H427.76a8.077,8.077,0,0,0,0-4.809Z" transform="translate(-360.705 -203.657)" fill="#5b778f"/>
        <path id="Path_903511" data-name="Path 903511" d="M335.56,245.716h-9.453v-4.809h9.452A8.092,8.092,0,0,0,335.56,245.716Z" transform="translate(-275.27 -203.657)" fill="#5b778f"/>
        <path id="Path_903512" data-name="Path 903512" d="M381.717,34.757h-4.562c-5.441-1.918-1.475-4.809-1.475-4.809h7.527S386,32.751,381.717,34.757Z" transform="translate(-315.761 -26.355)" fill="#7a8fa5"/>
        <path id="Path_903513" data-name="Path 903513" d="M344.632,34.757h-7.781l-1.263-4.809h7.569A9.081,9.081,0,0,0,344.632,34.757Z" transform="translate(-283.238 -26.355)" fill="#5b778f"/>
        <path id="Path_903514" data-name="Path 903514" d="M429.929,29.948l-1.261,4.809h-7.8a9.186,9.186,0,0,0,1.489-4.809Z" transform="translate(-354.917 -26.355)" fill="#5b778f"/>
        <path id="Path_903515" data-name="Path 903515" d="M385.139,456.673h-7.556c-2.918-2.385,1.474-4.807,1.474-4.807h4.61S388.421,454.2,385.139,456.673Z" transform="translate(-317.692 -380.96)" fill="#7a8fa5"/>
        <path id="Path_903516" data-name="Path 903516" d="M347.206,451.866a9.086,9.086,0,0,0-1.474,4.807h-7.047l1.209-4.807Z" transform="translate(-285.842 -380.96)" fill="#5b778f"/>
        <path id="Path_903517" data-name="Path 903517" d="M429.534,456.673h-7.073a9.177,9.177,0,0,0-1.472-4.807h7.336Z" transform="translate(-355.015 -380.96)" fill="#5b778f"/>
        <path id="Path_903518" data-name="Path 903518" d="M333.744,61.851l-8.015,4.232-5.179,6.478c-3.118,3.234-4.781,6.861-4.781,10.58a3.592,3.592,0,1,1-7.184,0,22.011,22.011,0,0,1,6.092-14.794l8.719-4.393,4.474-6.312c7.731-8.035,5.7-17.536-3.645-24.273l-4.94.081-1.209-4.4c-5.556-4.628-9.416-10.721-9.461-17.895a3.657,3.657,0,0,1,3.515-3.722A3.593,3.593,0,0,1,315.8,11.02c0,5.671,3.793,10.364,8.427,13.712l5.319-.563.832,4.886C341.755,38.531,342.791,51.732,333.744,61.851Z" transform="translate(-260.543 -7.427)" fill="#ff8a98"/>
        <path id="Path_903519" data-name="Path 903519" d="M365.836,326.38a31.729,31.729,0,0,1-3.388,3.253c-5.938,4.171-7.642,5.212-9.807,7.457a48.194,48.194,0,0,1-5.873-4.214,32.273,32.273,0,0,1,3.388-3.244c5.689-4,7.579-5.147,9.805-7.462A47.78,47.78,0,0,1,365.836,326.38Z" transform="translate(-292.635 -271.956)" fill="#fd5c6f"/>
        <path id="Path_903520" data-name="Path 903520" d="M339.976,202.3a3.591,3.591,0,1,1-7.183,0c0-3.721-1.666-7.35-4.789-10.589a29.727,29.727,0,0,0-5.81-4.562c-15.212-9.621-17.3-24.6-7.366-35.7l4.64-2.244c1.516,1.158,2.621,1.793,3.77,2.552-2.768,4.276-2.375,3.734-2.836,4.231-7.388,7.968-5.71,18.049,5.856,25.231C333.892,185.957,339.976,193.241,339.976,202.3Z" transform="translate(-260.682 -126.582)" fill="#83deff"/>
        <path id="Path_903521" data-name="Path 903521" d="M429.24,11.024a22.365,22.365,0,0,1-6.069,14.8l-4.8,2.123h0c-1.34-1.011-2.346-1.609-3.414-2.3l2.321-4.042c3.115-3.234,4.776-6.859,4.776-10.577a3.592,3.592,0,0,1,7.184,0Z" transform="translate(-349.946 -7.431)" fill="#83deff"/>
        <path id="Path_903522" data-name="Path 903522" d="M346.856,146.2a31.648,31.648,0,0,1,3.38-3.239c.023-.031,1.018.911,2.954,2.2,1.1.736,2.039,1.277,3.2,2.114a26.99,26.99,0,0,0-3.651,3.135C346.95,146.345,347.482,146.746,346.856,146.2Z" transform="translate(-292.709 -121.338)" fill="#2ecefb"/>
        <path id="Path_903523" data-name="Path 903523" d="M412.765,103.7a71.216,71.216,0,0,0-6.151-4.324,26.705,26.705,0,0,0,3.653-3.135c5.773,4.06,5.24,3.658,5.892,4.22A31.928,31.928,0,0,1,412.765,103.7Z" transform="translate(-342.933 -82.072)" fill="#2ecefb"/>
      </g>
      <g id="Group_1143019" data-name="Group 1143019" transform="translate(7.469 7.453)">
        <g id="Group_1143018" data-name="Group 1143018" transform="translate(0 0)">
          <path id="Path_903524" data-name="Path 903524" d="M105.471,24.881c5.451-3.926,8.423-8.732,8.423-13.7a3.59,3.59,0,0,1,7.179,0c0,7.218-3.915,13.43-9.451,18.019" transform="translate(-89.841 -7.588)" fill="none" stroke="#000" stroke-linecap="round" stroke-linejoin="round" stroke-miterlimit="10" stroke-width="1.5"/>
          <path id="Path_903525" data-name="Path 903525" d="M19.317,152.64a27.226,27.226,0,0,1,7.594-9.61" transform="translate(-17.432 -121.421)" fill="none" stroke="#000" stroke-linecap="round" stroke-linejoin="round" stroke-miterlimit="10" stroke-width="1.5"/>
          <path id="Path_903526" data-name="Path 903526" d="M23.258,170.08c-11.908,8.577-11.109,20.593,1.895,28.673,7.649,4.753,13.708,12.032,13.708,21.068a3.59,3.59,0,0,1-7.179,0c0-5.52-3.664-10.836-10.317-14.97-10.615-6.595-15.023-15.859-13.376-24.672" transform="translate(-7.628 -144.156)" fill="none" stroke="#000" stroke-linecap="round" stroke-linejoin="round" stroke-miterlimit="10" stroke-width="1.5"/>
          <path id="Path_903527" data-name="Path 903527" d="M16.974,368.861C11.439,373.459,7.5,379.6,7.5,386.888a3.59,3.59,0,0,0,7.179,0c0-4.975,2.977-9.785,8.437-13.713" transform="translate(-7.5 -311.223)" fill="none" stroke="#000" stroke-linecap="round" stroke-linejoin="round" stroke-miterlimit="10" stroke-width="1.5"/>
          <path id="Path_903528" data-name="Path 903528" d="M29.409,65.228c13.956-11.591,12.374-28.759-4.234-39.078C18.522,22.016,14.857,16.7,14.857,11.18a3.589,3.589,0,0,0-3.666-3.589,3.654,3.654,0,0,0-3.513,3.718c.057,8.977,6.1,16.208,13.707,20.938,12.916,8.025,13.8,20.078,1.881,28.664" transform="translate(-7.65 -7.59)" fill="none" stroke="#000" stroke-linecap="round" stroke-linejoin="round" stroke-miterlimit="10" stroke-width="1.5"/>
          <line id="Line_581" data-name="Line 581" x2="16.347" transform="translate(7.442 42.03)" fill="none" stroke="#000" stroke-linecap="round" stroke-linejoin="round" stroke-miterlimit="10" stroke-width="1.5"/>
          <line id="Line_582" data-name="Line 582" x1="16.35" transform="translate(7.439 37.225)" fill="none" stroke="#000" stroke-linecap="round" stroke-linejoin="round" stroke-miterlimit="10" stroke-width="1.5"/>
          <line id="Line_583" data-name="Line 583" x1="14.968" transform="translate(8.146 8.395)" fill="none" stroke="#000" stroke-linecap="round" stroke-linejoin="round" stroke-miterlimit="10" stroke-width="1.5"/>
          <line id="Line_584" data-name="Line 584" x2="16.846" transform="translate(7.208 3.59)" fill="none" stroke="#000" stroke-linecap="round" stroke-linejoin="round" stroke-miterlimit="10" stroke-width="1.5"/>
          <line id="Line_585" data-name="Line 585" x1="14.968" transform="translate(8.146 70.86)" fill="none" stroke="#000" stroke-linecap="round" stroke-linejoin="round" stroke-miterlimit="10" stroke-width="1.5"/>
          <line id="Line_586" data-name="Line 586" x2="16.846" transform="translate(7.208 75.665)" fill="none" stroke="#000" stroke-linecap="round" stroke-linejoin="round" stroke-miterlimit="10" stroke-width="1.5"/>
          <path id="Path_903529" data-name="Path 903529" d="M406.647,24.881c5.451-3.926,8.423-8.732,8.423-13.7a3.59,3.59,0,1,1,7.179,0c0,7.218-3.914,13.43-9.451,18.019" transform="translate(-342.967 -7.588)" fill="none" stroke="#000" stroke-linecap="round" stroke-linejoin="round" stroke-miterlimit="10" stroke-width="1.5"/>
          <path id="Path_903530" data-name="Path 903530" d="M324.435,147.345c-11.908,8.577-11.109,20.593,1.895,28.673,7.649,4.753,13.708,12.032,13.708,21.068a3.59,3.59,0,0,1-7.179,0c0-5.52-3.664-10.836-10.317-14.97-16.842-10.464-18.059-27.647-4.257-39.087" transform="translate(-260.754 -121.421)" fill="none" stroke="#000" stroke-linecap="round" stroke-linejoin="round" stroke-miterlimit="10" stroke-width="1.5"/>
          <path id="Path_903531" data-name="Path 903531" d="M318.151,368.861c-5.535,4.6-9.474,10.741-9.474,18.027a3.59,3.59,0,0,0,7.179,0c0-4.975,2.977-9.785,8.437-13.713" transform="translate(-260.627 -311.223)" fill="none" stroke="#000" stroke-linecap="round" stroke-linejoin="round" stroke-miterlimit="10" stroke-width="1.5"/>
          <path id="Path_903532" data-name="Path 903532" d="M330.586,65.228c13.956-11.591,12.374-28.759-4.234-39.078-6.653-4.134-10.318-9.451-10.318-14.97a3.589,3.589,0,0,0-3.666-3.589,3.654,3.654,0,0,0-3.513,3.718c.057,8.977,6.1,16.208,13.707,20.938,12.917,8.025,13.8,20.078,1.881,28.664" transform="translate(-260.777 -7.59)" fill="none" stroke="#000" stroke-linecap="round" stroke-linejoin="round" stroke-miterlimit="10" stroke-width="1.5"/>
          <line id="Line_587" data-name="Line 587" x2="16.347" transform="translate(55.492 42.03)" fill="none" stroke="#000" stroke-linecap="round" stroke-linejoin="round" stroke-miterlimit="10" stroke-width="1.5"/>
          <line id="Line_588" data-name="Line 588" x1="8.177" transform="translate(55.489 37.225)" fill="none" stroke="#000" stroke-linecap="round" stroke-linejoin="round" stroke-miterlimit="10" stroke-width="1.5"/>
          <line id="Line_589" data-name="Line 589" x1="3.368" transform="translate(68.471 37.225)" fill="none" stroke="#000" stroke-linecap="round" stroke-linejoin="round" stroke-miterlimit="10" stroke-width="1.5"/>
          <line id="Line_590" data-name="Line 590" x1="14.968" transform="translate(56.196 8.395)" fill="none" stroke="#000" stroke-linecap="round" stroke-linejoin="round" stroke-miterlimit="10" stroke-width="1.5"/>
          <line id="Line_591" data-name="Line 591" x2="16.846" transform="translate(55.258 3.59)" fill="none" stroke="#000" stroke-linecap="round" stroke-linejoin="round" stroke-miterlimit="10" stroke-width="1.5"/>
          <line id="Line_592" data-name="Line 592" x1="14.968" transform="translate(56.196 70.86)" fill="none" stroke="#000" stroke-linecap="round" stroke-linejoin="round" stroke-miterlimit="10" stroke-width="1.5"/>
          <line id="Line_593" data-name="Line 593" x2="16.846" transform="translate(55.258 75.665)" fill="none" stroke="#000" stroke-linecap="round" stroke-linejoin="round" stroke-miterlimit="10" stroke-width="1.5"/>
          <line id="Line_594" data-name="Line 594" x2="9.61" transform="translate(34.911 19.544)" fill="none" stroke="#000" stroke-linecap="round" stroke-linejoin="round" stroke-miterlimit="10" stroke-width="1.5"/>
          <line id="Line_595" data-name="Line 595" x2="9.61" transform="translate(34.911 30.355)" fill="none" stroke="#000" stroke-linecap="round" stroke-linejoin="round" stroke-miterlimit="10" stroke-width="1.5"/>
          <line id="Line_596" data-name="Line 596" x2="9.61" transform="translate(34.911 60.386)" fill="none" stroke="#000" stroke-linecap="round" stroke-linejoin="round" stroke-miterlimit="10" stroke-width="1.5"/>
          <line id="Line_597" data-name="Line 597" x2="9.61" transform="translate(34.911 49.575)" fill="none" stroke="#000" stroke-linecap="round" stroke-linejoin="round" stroke-miterlimit="10" stroke-width="1.5"/>
        </g>
      </g>
    </g>
  </g>
</svg>
