<svg xmlns="http://www.w3.org/2000/svg" width="35.985" height="35.985" viewBox="0 0 35.985 35.985">
  <g id="genetica" transform="translate(0)">
    <path id="Path_903587" data-name="Path 903587" d="M32.46,28.934A3.531,3.531,0,0,0,29,31.757h-13.1A11.316,11.316,0,0,0,12.5,27.773a14.941,14.941,0,0,0,3.87-4.255h7.711a2.82,2.82,0,1,0,0-1.406H17.05a11.57,11.57,0,0,0,0-8.239h7.032a2.82,2.82,0,1,0,0-1.406H16.372A14.94,14.94,0,0,0,12.5,8.212a11.315,11.315,0,0,0,3.4-3.984H29a3.526,3.526,0,1,0,0-1.406h-12.6A8.608,8.608,0,0,0,16.663.7a.7.7,0,1,0-1.406,0c0,2.943-1.551,4.816-3.922,6.636-.421-.3-.838-.593-1.22-.858C12.335,4.842,13.84,3.32,13.84.7a.7.7,0,0,0-1.406,0,4.212,4.212,0,0,1-.224,1.414H5.6A4.212,4.212,0,0,1,5.372.7.7.7,0,1,0,3.966.7c0,2.924,1.878,4.48,4.531,6.36,3.578,2.536,7.9,5.148,7.9,10.929a9.605,9.605,0,0,1-2.458,6.518A16.808,16.808,0,0,1,11.336,26.9c-.387-.277-.8-.564-1.219-.857,2.906-2.154,4.867-4.441,4.867-8.049,0-4.007-2.407-6.323-5.674-8.632C5.843,6.91,2.549,4.972,2.549.7A.7.7,0,0,0,1.143.7c0,3.532,1.917,5.732,4.161,7.51a17.467,17.467,0,0,0-2.5,2.344A10.957,10.957,0,0,0,0,17.993a10.957,10.957,0,0,0,2.8,7.437,17.47,17.47,0,0,0,2.5,2.344C3.06,29.55,1.143,31.75,1.143,35.282a.7.7,0,1,0,1.406,0c0-2.943,1.552-4.816,3.922-6.636.421.3.838.593,1.22.858-2.219,1.639-3.724,3.161-3.724,5.778a.7.7,0,1,0,1.406,0A4.214,4.214,0,0,1,5.6,33.868h6.616a4.212,4.212,0,0,1,.224,1.414.7.7,0,1,0,1.406,0c0-2.924-1.878-4.48-4.531-6.36-3.385-2.4-7.9-5.049-7.9-10.929a9.606,9.606,0,0,1,2.458-6.518A16.811,16.811,0,0,1,6.47,9.087c.387.278.8.564,1.219.857C4.784,12.1,2.823,14.385,2.823,17.993c0,5.466,4.616,7.771,8.1,10.344,2.6,1.92,4.332,3.836,4.332,6.945a.7.7,0,1,0,1.406,0,8.608,8.608,0,0,0-.256-2.12H29a3.526,3.526,0,1,0,3.455-4.228ZM26.814,21.4A1.414,1.414,0,1,1,25.4,22.815,1.416,1.416,0,0,1,26.814,21.4Zm0-9.644A1.414,1.414,0,1,1,25.4,13.17,1.416,1.416,0,0,1,26.814,11.756ZM32.46,1.406a2.12,2.12,0,1,1-2.12,2.12,2.122,2.122,0,0,1,2.12-2.12ZM6.44,3.523h4.926A14.455,14.455,0,0,1,8.9,5.625a14.457,14.457,0,0,1-2.463-2.1Zm4.926,28.94H6.44A14.457,14.457,0,0,1,8.9,30.36,14.458,14.458,0,0,1,11.366,32.462ZM4.982,14.814h7.842a6.627,6.627,0,0,1,.721,2.476H4.261A6.627,6.627,0,0,1,4.982,14.814ZM4.261,18.7h9.284a6.626,6.626,0,0,1-.721,2.476H4.982A6.627,6.627,0,0,1,4.261,18.7ZM8.9,10.8a16.11,16.11,0,0,1,2.973,2.61H5.93A16.11,16.11,0,0,1,8.9,10.8ZM5.93,22.577h5.946A16.11,16.11,0,0,1,8.9,25.187,16.112,16.112,0,0,1,5.93,22.577Zm26.53,12a2.12,2.12,0,1,1,2.12-2.12A2.122,2.122,0,0,1,32.46,34.579Z" transform="translate(0)" fill="#453179"/>
  </g>
</svg>
