<svg xmlns="http://www.w3.org/2000/svg" xmlns:xlink="http://www.w3.org/1999/xlink" width="108" height="108" viewBox="0 0 108 108">
  <defs>
    <filter id="Fondo" x="0" y="0" width="108" height="108" filterUnits="userSpaceOnUse">
      <feOffset dy="3" input="SourceAlpha"/>
      <feGaussianBlur stdDeviation="3" result="blur"/>
      <feFlood flood-opacity="0.161"/>
      <feComposite operator="in" in2="blur"/>
      <feComposite in="SourceGraphic"/>
    </filter>
  </defs>
  <g id="Group_1143170" data-name="Group 1143170" transform="translate(-196.687 -8764.5)">
    <g transform="matrix(1, 0, 0, 1, 196.69, 8764.5)" filter="url(#Fondo)">
      <g id="Fondo-2" data-name="Fondo" transform="translate(9 6)" fill="#cbddf7" stroke="#2f4f7e" stroke-width="3">
        <circle cx="45" cy="45" r="45" stroke="none"/>
        <circle cx="45" cy="45" r="43.5" fill="none"/>
      </g>
    </g>
    <g id="adolescente" transform="translate(159.437 8769.5)">
      <g id="Group_1143168" data-name="Group 1143168" transform="translate(57.431 1.318)">
        <path id="Path_903794" data-name="Path 903794" d="M199.887,256h19.727v25.363H199.887Z" transform="translate(-175.933 -212.318)" fill="#e2a975"/>
        <path id="Path_903795" data-name="Path 903795" d="M232.39,412h-5.636l-2.818-19.727h11.273Z" transform="translate(-195.753 -324.638)" fill="#f4dbb3"/>
        <path id="Path_903796" data-name="Path 903796" d="M79.113,328.145l-9.007,3.275a9.864,9.864,0,0,0-6.493,9.27v18.455h31V345.054Z" transform="translate(-63.613 -271.782)" fill="#ff8086"/>
        <path id="Path_903797" data-name="Path 903797" d="M199.887,263.568a22.338,22.338,0,0,0,19.727,0V256H199.887Z" transform="translate(-175.933 -212.318)" fill="#d19a6e"/>
        <path id="Path_903798" data-name="Path 903798" d="M164.112,112.148H162v-8.455H125.362v8.455h-1.409c-1.946,0-4.227,1.577-4.227,3.523a3.523,3.523,0,0,0,3.523,3.523h2.185a18.3,18.3,0,0,0,36.494,0h2.185a3.523,3.523,0,1,0,0-7.045Z" transform="translate(-109.862 -86.784)" fill="#ecbd83"/>
        <path id="Path_903799" data-name="Path 903799" d="M131,117.785V103.694h-5.636v8.455h-2.114a3.523,3.523,0,1,0,0,7.045h2.185a18.188,18.188,0,0,0,21.074,16.672A18.306,18.306,0,0,1,131,117.785Z" transform="translate(-109.862 -86.785)" fill="#e2a975"/>
        <path id="Path_903800" data-name="Path 903800" d="M151.79,87.661l5.64,10.714a32.879,32.879,0,0,0,15.5-7.9l1.409,5.636s7.045-1.409,11.273-5.636v5.636a2.818,2.818,0,0,0,2.818,2.818h2.818V87.661Z" transform="translate(-136.29 -73.57)" fill="#6e4848"/>
        <path id="Path_903801" data-name="Path 903801" d="M144.213,87.661h-5.636l-2.818,2.818v8.3a27.627,27.627,0,0,0,8.455-.427Z" transform="translate(-123.076 -73.57)" fill="#643c3e"/>
        <path id="Path_903802" data-name="Path 903802" d="M163.941,7.5H149.85a14.091,14.091,0,0,0-14.091,14.091v2.818h42.273V21.591A14.091,14.091,0,0,0,163.941,7.5Z" transform="translate(-123.077 -7.5)" fill="#ff8086"/>
        <path id="Path_903803" data-name="Path 903803" d="M167.29,325.455a4.24,4.24,0,0,0-1.577-3.284,27.483,27.483,0,0,1-6.307-7.274,1.4,1.4,0,0,0-1.741-.6l-5.876,2.35a43.44,43.44,0,0,0,15.5,16.683v-7.876Z" transform="translate(-136.29 -260.284)" fill="#f5ebcd"/>
        <path id="Path_903804" data-name="Path 903804" d="M158.3,7.5h-8.455a14.091,14.091,0,0,0-14.091,14.091v2.818h8.455V21.591A14.091,14.091,0,0,1,158.3,7.5Z" transform="translate(-123.076 -7.5)" fill="#e5646e"/>
        <path id="Path_903805" data-name="Path 903805" d="M329.71,71.629h-6.762a2.818,2.818,0,0,0-2.818,2.818v2.818h9.864V74.447A14.162,14.162,0,0,0,329.71,71.629Z" transform="translate(-275.039 -60.356)" fill="#e5646e"/>
        <path id="Path_903806" data-name="Path 903806" d="M287.532,328.145l9.007,3.275a9.864,9.864,0,0,1,6.493,9.27v18.455h-31V345.054Z" transform="translate(-235.396 -271.782)" fill="#ff8086"/>
        <path id="Path_903807" data-name="Path 903807" d="M272.032,325.455a4.24,4.24,0,0,1,1.577-3.284,27.484,27.484,0,0,0,6.307-7.274,1.4,1.4,0,0,1,1.741-.6l5.876,2.35a43.44,43.44,0,0,1-15.5,16.683v-7.876Z" transform="translate(-235.396 -260.284)" fill="#f5ebcd"/>
      </g>
      <g id="Group_1143169" data-name="Group 1143169" transform="translate(56.113 0)">
        <path id="Path_903808" data-name="Path 903808" d="M211.056,155.033v-1.409a1.318,1.318,0,0,0-2.637,0v1.409a1.318,1.318,0,1,0,2.637,0Z" transform="translate(-181.646 -125.533)"/>
        <path id="Path_903809" data-name="Path 903809" d="M289.9,156.352a1.318,1.318,0,0,0,1.318-1.318v-1.409a1.318,1.318,0,0,0-2.637,0v1.409A1.318,1.318,0,0,0,289.9,156.352Z" transform="translate(-247.717 -125.533)"/>
        <path id="Path_903810" data-name="Path 903810" d="M121.56,440.887a1.318,1.318,0,0,0-1.318,1.318v9.864a1.318,1.318,0,1,0,2.637,0v-9.864a1.318,1.318,0,0,0-1.318-1.318Z" transform="translate(-108.969 -363.387)"/>
        <path id="Path_903811" data-name="Path 903811" d="M119.025,59.718l-8.987-3.268-5.857-2.343a2.719,2.719,0,0,0-1.75-.1V48.449a19.665,19.665,0,0,0,8.265-13.4h.783A5,5,0,0,0,116.5,30.7a4.833,4.833,0,0,0-2.793-4.89v-10.4A15.426,15.426,0,0,0,98.3,0H84.2A15.427,15.427,0,0,0,68.8,15.409v1.5H58.84a1.318,1.318,0,0,0,0,2.637H68.8v1.5a1.318,1.318,0,0,0,2.637,0v-1.5H89.943c-3.811,2.406-10.6,5.818-18.42,5.818h-.5A5,5,0,0,0,66,29.71a4.841,4.841,0,0,0,4.816,5.336H71.8a19.66,19.66,0,0,0,8.266,13.406v5.559a2.719,2.719,0,0,0-1.75.1L72.461,56.45l-8.987,3.268a11.216,11.216,0,0,0-7.361,10.509V88.682a1.318,1.318,0,0,0,2.637,0V70.227A8.572,8.572,0,0,1,64.375,62.2l7.914-2.878A45.441,45.441,0,0,0,87.113,75.086v13.6a1.318,1.318,0,0,0,2.637,0V70.273h3V88.682a1.318,1.318,0,0,0,2.637,0v-13.6a45.857,45.857,0,0,0,10.149-9.018,1.318,1.318,0,0,0-2.021-1.693A43.438,43.438,0,0,1,95.386,71.9v-5.41a2.908,2.908,0,0,1,1.09-2.261,28.662,28.662,0,0,0,6.615-7.634.087.087,0,0,1,.111-.039l4.519,1.808c-.225.4-.51.884-.857,1.434a1.318,1.318,0,1,0,2.23,1.406c.476-.754.844-1.394,1.113-1.886l7.917,2.879a8.571,8.571,0,0,1,5.625,8.031V88.682a1.318,1.318,0,0,0,2.637,0V70.227a11.217,11.217,0,0,0-7.361-10.509Zm-7.957-44.309v1.5H103.84v-1.5a1.5,1.5,0,0,1,1.5-1.5h5.636A12.839,12.839,0,0,1,111.068,15.409Zm-9.412,4.136a24.064,24.064,0,0,1-5.24,2.637l-.659-2.637Zm6.412,0h3v5.818h-1.5a1.5,1.5,0,0,1-1.5-1.5ZM71.432,15.409A12.787,12.787,0,0,1,84.2,2.637H98.3a12.792,12.792,0,0,1,12.081,8.636H105.34a4.141,4.141,0,0,0-4.137,4.136v1.5H71.432ZM74.25,32.318a1.318,1.318,0,0,0-2.637,0v.091h-.8a2.2,2.2,0,0,1-2.193-2.436A2.339,2.339,0,0,1,71.019,28h.5c10.1,0,18.362-5.063,21.755-7.5l.921,3.684a1.317,1.317,0,0,0,1.6.959,25.25,25.25,0,0,0,9.635-5.19v3.911A4.141,4.141,0,0,0,109.568,28h2.114a2.2,2.2,0,0,1,2.193,2.436,2.339,2.339,0,0,1-2.394,1.972h-.595v-.077a1.318,1.318,0,0,0-1.318-1.318h0a1.318,1.318,0,0,0-1.318,1.317,17,17,0,0,1-34-.012Zm.532,26.044L79.3,56.555a.087.087,0,0,1,.111.039,28.66,28.66,0,0,0,6.615,7.634,2.909,2.909,0,0,1,1.09,2.261V71.9A43.6,43.6,0,0,1,74.781,58.362Zm20.031,3.82a5.535,5.535,0,0,0-2.063,4.307v1.147h-3V66.489a5.535,5.535,0,0,0-2.063-4.307A26.945,26.945,0,0,1,82.7,56.844V50a19.609,19.609,0,0,0,17.09,0v6.85A26.954,26.954,0,0,1,94.813,62.182Z" transform="translate(-56.113 0)"/>
        <path id="Path_903812" data-name="Path 903812" d="M378.076,440.887a1.318,1.318,0,0,0-1.318,1.318v9.864a1.318,1.318,0,0,0,2.637,0v-9.864A1.318,1.318,0,0,0,378.076,440.887Z" transform="translate(-320.395 -363.387)"/>
        <path id="Path_903813" data-name="Path 903813" d="M230.777,210.863a1.318,1.318,0,0,0-1.371-2.252,9.538,9.538,0,0,1-9.324,0,1.318,1.318,0,0,0-1.371,2.252,12.163,12.163,0,0,0,12.065,0Z" transform="translate(-189.608 -171.782)"/>
      </g>
    </g>
  </g>
</svg>
