<svg xmlns="http://www.w3.org/2000/svg" width="90" height="90" viewBox="0 0 90 90">
  <g id="Group_1099765" data-name="Group 1099765" transform="translate(-204.373 -8572)">
    <path id="Path_875096" data-name="Path 875096" d="M45,0A45,45,0,1,1,0,45,45,45,0,0,1,45,0Z" transform="translate(204.373 8572)" fill="#453179"/>
    <g id="play_14015307" transform="translate(225.436 8592.951)">
      <path id="Path_903435" data-name="Path 903435" d="M38.565,19.9,21.805,11.34a1.114,1.114,0,0,0-1.619.991V29.446a1.113,1.113,0,0,0,1.619.991l16.76-8.558a1.114,1.114,0,0,0,0-1.983ZM22.412,27.628V14.149l13.2,6.739Z" transform="translate(-5.017 -2.592)" fill="#c6c0d6"/>
      <path id="Path_903436" data-name="Path 903436" d="M40.982,1.167H6.894A6.171,6.171,0,0,0,.731,7.33V29.266a6.172,6.172,0,0,0,6.163,6.165H40.982a6.171,6.171,0,0,0,6.161-6.165V7.33a6.17,6.17,0,0,0-6.161-6.163Zm3.935,28.1A3.941,3.941,0,0,1,40.982,33.2H6.894a3.942,3.942,0,0,1-3.937-3.939V7.33A3.942,3.942,0,0,1,6.894,3.393H40.982A3.94,3.94,0,0,1,44.916,7.33Z" fill="#c6c0d6"/>
      <path id="Path_903437" data-name="Path 903437" d="M46.03,53H14.672A5.142,5.142,0,0,0,4.629,53H1.844a1.113,1.113,0,0,0,0,2.226H4.629a5.143,5.143,0,0,0,10.043,0H46.029a1.113,1.113,0,0,0,0-2.226ZM9.651,57.031a2.919,2.919,0,1,1,2.92-2.919A2.923,2.923,0,0,1,9.651,57.031Z" transform="translate(0 -12.326)" fill="#c6c0d6"/>
    </g>
  </g>
</svg>
