<svg xmlns="http://www.w3.org/2000/svg" width="31.299" height="37.343" viewBox="0 0 31.299 37.343">
  <g id="nino" transform="translate(-14.177 -4.557)">
    <path id="Path_903591" data-name="Path 903591" d="M45.473,41.292l-.651-6.116a4.641,4.641,0,0,0-3.531-4.016l-2.167-.519a5.8,5.8,0,0,0-3.871-5.353,10.738,10.738,0,0,0,2.22-3.769c.091.007.183.014.272.014a2.754,2.754,0,0,0,2.184-.967,2.993,2.993,0,0,0,.536-2.856,1.921,1.921,0,0,0-1.075-1.153,2.147,2.147,0,0,0-.94-.134c.537-1.751,1.351-5.436-.406-7.673a3.686,3.686,0,0,0,.2-3.912.55.55,0,0,0-.722-.22c-1.431.712-2.692.547-4.6.3a33.267,33.267,0,0,0-4.6-.356c-4.33,0-5.371,2.356-5.605,3.21-3.16,1.918-2.147,6.607-1.517,8.656a2.143,2.143,0,0,0-.939.135,1.92,1.92,0,0,0-1.075,1.153,2.994,2.994,0,0,0,.537,2.856,2.753,2.753,0,0,0,2.183.967c.089,0,.181-.007.272-.014A10.747,10.747,0,0,0,24.4,25.29a5.793,5.793,0,0,0-3.871,5.351l-2.167.518a4.641,4.641,0,0,0-3.531,4.016l-.651,6.116a.55.55,0,0,0,.489.6.53.53,0,0,0,.059,0,.55.55,0,0,0,.546-.492l.651-6.116a3.54,3.54,0,0,1,2.693-3.063l2.249-.537c1.353,1.533,3.7,2.2,5.66,2.494v5.1a.55.55,0,1,0,1.1,0V34.316c.774.07,1.42.084,1.813.084.2,0,.335,0,.388-.005s.185.005.388.005c.394,0,1.039-.014,1.814-.084v4.973a.55.55,0,0,0,1.1,0v-5.1c1.958-.29,4.307-.961,5.66-2.494l2.248.537a3.541,3.541,0,0,1,2.693,3.063l.651,6.116a.55.55,0,0,0,.546.492.539.539,0,0,0,.059,0,.549.549,0,0,0,.488-.6ZM22.6,17.417,23.711,16.3a4.411,4.411,0,0,0,1.234-2.524l.184-1.42a24.674,24.674,0,0,0,4.7.433,24.674,24.674,0,0,0,4.7-.434l.184,1.42A4.406,4.406,0,0,0,35.941,16.3l1.11,1.119a10.167,10.167,0,0,1-5.591,9.4,3.6,3.6,0,0,1-3.267,0A10.171,10.171,0,0,1,22.6,17.417Zm16.378.162a.831.831,0,0,1,.458.522,1.9,1.9,0,0,1-.351,1.759,1.658,1.658,0,0,1-1.3.574,13.669,13.669,0,0,0,.357-2.85,1.4,1.4,0,0,1,.835-.005ZM23.461,8.61a.56.56,0,0,0,.288-.425c.013-.1.353-2.528,4.576-2.528A31.89,31.89,0,0,1,32.777,6a9.112,9.112,0,0,0,4.7-.167,2.4,2.4,0,0,1-.55,2.53.55.55,0,0,0,0,.781c1.8,1.774.948,5.412.445,7.034l-.65-.655a3.3,3.3,0,0,1-.925-1.891l-.261-2.016a.55.55,0,0,0-.683-.461,22.14,22.14,0,0,1-5.026.532,22.148,22.148,0,0,1-5.026-.532.55.55,0,0,0-.684.461l-.261,2.016a3.3,3.3,0,0,1-.925,1.891l-.649.655C21.723,14.372,20.736,10.062,23.461,8.61ZM20.567,19.86a1.9,1.9,0,0,1-.351-1.759.832.832,0,0,1,.452-.521,1.393,1.393,0,0,1,.839,0,13.683,13.683,0,0,0,.357,2.848A1.662,1.662,0,0,1,20.567,19.86Zm1.048,11.02a4.674,4.674,0,0,1,3.683-4.71q.256.224.512.423l-.275,3.242a.555.555,0,0,0,.059.3,11.866,11.866,0,0,0,2.564,3.118C26.211,33.117,23.057,32.625,21.616,30.88Zm8.211,2.295a11.741,11.741,0,0,1-3.183-3.415l.208-2.442c.295.182.579.341.841.475a4.7,4.7,0,0,0,4.267,0c.263-.134.546-.292.841-.475l.208,2.442A11.74,11.74,0,0,1,29.827,33.175Zm1.669.077a11.866,11.866,0,0,0,2.564-3.118.555.555,0,0,0,.059-.3l-.275-3.242q.255-.2.511-.422a4.7,4.7,0,0,1,3.682,4.712C36.6,32.625,33.442,33.117,31.5,33.252Z" transform="translate(0)" fill="#251a42"/>
  </g>
</svg>
