<svg xmlns="http://www.w3.org/2000/svg" width="38.117" height="37.883" viewBox="0 0 38.117 37.883">
  <g id="nutricion_2_" data-name="nutricion (2)" transform="translate(-4.005 -4.175)">
    <path id="Path_903588" data-name="Path 903588" d="M26.182,40.7H7.173A1.806,1.806,0,0,1,5.554,38.1l1.361-2.7h15.2a.681.681,0,1,0,0-1.362H7.6l3.208-6.373H23.282a.681.681,0,1,0,0-1.362H11.494l3.212-6.381H31.422l1.022,2.03a.681.681,0,1,0,1.217-.612L25.9,5.918a3.175,3.175,0,0,0-5.668,0L4.337,37.491a3.157,3.157,0,0,0,2.836,4.566H26.182a.681.681,0,1,0,0-1.362ZM21.446,6.53a1.823,1.823,0,0,1,3.236,0l2.157,4.286h-7.55ZM18.6,12.178h8.921l3.212,6.382H15.391Z" fill="#251a42"/>
    <path id="Path_903589" data-name="Path 903589" d="M51.339,40.171c-.493-4.184-4.476-6.215-8.464-4.438V34.623a.734.734,0,0,1,.733-.733.681.681,0,0,0,0-1.362,2.1,2.1,0,0,0-2.1,2.093V35.74c-4.028-1.761-7.914.194-8.447,4.4-.539,3.911,2.751,8.4,5.542,10.237a3.132,3.132,0,0,0,2.484.658,3.189,3.189,0,0,1,2.22.006,2.958,2.958,0,0,0,2.359-.593c2.7-1.741,6.137-6.353,5.668-10.276Zm-1.386,1.653a12.662,12.662,0,0,1-5.008,7.471c-1.413.867-1.215.171-2.748.181-1.572-.01-1.336.714-2.851-.244a12.206,12.206,0,0,1-4.922-7.395c-.52-4.713,3.5-6.737,7.423-4.422a.714.714,0,0,0,.7,0c4.047-2.418,8.019-.035,7.41,4.412Z" transform="translate(-9.26 -9.053)" fill="#251a42"/>
  </g>
</svg>
